<?xml version="1.0" standalone="no"?>
<!DOCTYPE svg PUBLIC "-//W3C//DTD SVG 1.1//EN" "http://www.w3.org/Graphics/SVG/1.1/DTD/svg11.dtd" >
<svg xmlns="http://www.w3.org/2000/svg" xmlns:xlink="http://www.w3.org/1999/xlink" version="1.1">
<metadata>
Created by FontForge 20200427 at Fri Jul  1 22:11:43 2016
 By www
(c) 2012 Typodermic Fonts Inc. See attached license agreement. If agreement is missing visit typodermicfonts.com for more info.
</metadata>
<defs>
<font id="SnasmW05-Regular" horiz-adv-x="748" >
  <font-face 
    font-family="SnasmW05-Regular"
    font-weight="400"
    font-stretch="normal"
    units-per-em="1000"
    panose-1="2 11 6 5 4 2 2 4 2 4"
    ascent="800"
    descent="-200"
    x-height="507"
    cap-height="675"
    bbox="-228 -318 1486 882"
    underline-thickness="50"
    underline-position="-125"
    unicode-range="U+0020-25CA"
  />
<missing-glyph horiz-adv-x="816" 
d="M39 -191v1073h738v-1073h-738zM428 178h-203v-178h203v178zM400 278q0 28 10 39.5t39 11.5h36q57 0 97 9.5t64.5 30.5t36 53.5t11.5 78.5q0 92 -47.5 133t-161.5 41h-371v-129h351q31 0 43 -11.5t12 -36.5t-12 -36t-43 -11h-58q-46 0 -76 -8.5t-47.5 -27.5t-24.5 -49
t-7 -73v-45h148v30z" />
    <glyph glyph-name="copyright" unicode="&#x28;C&#x29;" horiz-adv-x="861" 
d="M321 0q-143 0 -219.5 82.5t-76.5 254.5t76.5 255t219.5 83h218q144 0 220.5 -83t76.5 -255t-76.5 -254.5t-220.5 -82.5h-218zM539 76q107 0 163.5 63.5t56.5 197.5t-56.5 197t-163.5 63h-218q-106 0 -163 -63t-57 -197t57 -197.5t163 -63.5h218zM368 157q-78 0 -119.5 44
t-41.5 138t41.5 138.5t119.5 44.5h217v-75h-202q-23 0 -37.5 -7t-22.5 -21t-11 -34t-3 -46t3 -45.5t11 -33t22.5 -20.5t37.5 -7h202v-76h-217z" />
    <glyph glyph-name="registered" unicode="&#x28;R&#x29;" horiz-adv-x="861" 
d="M321 0q-143 0 -219.5 82.5t-76.5 254.5t76.5 255t219.5 83h218q144 0 220.5 -83t76.5 -255t-76.5 -254.5t-220.5 -82.5h-218zM539 76q107 0 163.5 63.5t56.5 197.5t-56.5 197t-163.5 63h-218q-106 0 -163 -63t-57 -197t57 -197.5t163 -63.5h218zM541 157l-84 122h-127
v-122h-99v365h268q78 0 109.5 -29.5t31.5 -92.5q0 -48 -19 -74.5t-60 -38.5l99 -130h-119zM330 447v-96h165q25 0 35 9.5t10 38.5t-10 38.5t-35 9.5h-165z" />
    <glyph glyph-name="uni2117" unicode="&#x28;P&#x29;" horiz-adv-x="861" 
d="M321 0q-143 0 -219.5 82.5t-76.5 254.5t76.5 255t219.5 83h218q144 0 220.5 -83t76.5 -255t-76.5 -254.5t-220.5 -82.5h-218zM539 76q107 0 163.5 63.5t56.5 197.5t-56.5 197t-163.5 63h-218q-106 0 -163 -63t-57 -197t57 -197.5t163 -63.5h218zM346 276v-119h-100v365
h249q80 0 112 -30t32 -93t-32 -93t-112 -30h-149zM346 447v-96h149q24 0 34 9.5t10 38.5t-10 38.5t-34 9.5h-149z" />
    <glyph glyph-name=".notdef" horiz-adv-x="816" 
d="M39 -191v1073h738v-1073h-738zM428 178h-203v-178h203v178zM400 278q0 28 10 39.5t39 11.5h36q57 0 97 9.5t64.5 30.5t36 53.5t11.5 78.5q0 92 -47.5 133t-161.5 41h-371v-129h351q31 0 43 -11.5t12 -36.5t-12 -36t-43 -11h-58q-46 0 -76 -8.5t-47.5 -27.5t-24.5 -49
t-7 -73v-45h148v30z" />
    <glyph glyph-name=".null" horiz-adv-x="0" 
 />
    <glyph glyph-name="nonmarkingreturn" horiz-adv-x="333" 
 />
    <glyph glyph-name="glyph382" horiz-adv-x="0" 
 />
    <glyph glyph-name="glyph382" horiz-adv-x="0" 
 />
    <glyph glyph-name="space" unicode=" " horiz-adv-x="321" 
 />
    <glyph glyph-name="exclam" unicode="!" horiz-adv-x="276" 
d="M36 0v178h203v-178h-203zM63 248l-19 427h187l-19 -427h-149z" />
    <glyph glyph-name="quotedbl" unicode="&#x22;" horiz-adv-x="467" 
d="M29 438zM48 438l-19 237h175l-19 -237h-137zM282 438l-19 237h175l-19 -237h-137z" />
    <glyph glyph-name="numbersign" unicode="#" horiz-adv-x="543" 
d="M263 0l29 171h-97l-30 -171h-105l29 171h-74v100h91l23 130h-93v100h110l29 174h105l-29 -174h98l29 174h105l-29 -174h74v-100h-92l-21 -130h92v-100h-109l-29 -171h-106zM332 401h-98l-22 -130h97z" />
    <glyph glyph-name="dollar" unicode="$" horiz-adv-x="661" 
d="M286 0v83h-250v124h397q49 0 49 39q0 21 -11.5 29t-37.5 8h-226q-94 0 -139 41t-45 117t45 112.5t139 36.5h79v85h124v-85h208v-122h-387q-27 0 -39 -7t-12 -30t12 -30.5t39 -7.5h237q48 0 81 -11t53 -31.5t28.5 -50.5t8.5 -67q0 -38 -9 -66.5t-30 -47t-56.5 -27.5
t-87.5 -9h-46v-83h-124z" />
    <glyph glyph-name="percent" unicode="%" horiz-adv-x="1107" 
d="M39 0zM204 301q-81 0 -123 45.5t-42 142.5q0 95 42 140.5t123 45.5h118q80 0 122 -45.5t42 -140.5q0 -97 -42 -142.5t-122 -45.5h-118zM299 388q44 0 60 21.5t16 79.5q0 55 -16 77t-60 22h-74q-43 0 -58.5 -21.5t-15.5 -77.5q0 -58 15.5 -79.5t58.5 -21.5h74zM207 0
l563 675h132l-563 -675h-132zM787 0q-81 0 -123 45.5t-42 142.5q0 95 42 140.5t123 45.5h118q80 0 122 -45.5t42 -140.5q0 -97 -42 -142.5t-122 -45.5h-118zM882 87q44 0 60 21.5t16 79.5q0 55 -16 77t-60 22h-74q-43 0 -58.5 -21.5t-15.5 -77.5q0 -58 15.5 -79.5
t58.5 -21.5h74z" />
    <glyph glyph-name="ampersand" unicode="&#x26;" horiz-adv-x="916" 
d="M680 0l-103 93q-30 -28 -57 -46t-55 -28.5t-59 -14.5t-70 -4h-125q-50 0 -86.5 14t-60.5 37.5t-35.5 53t-11.5 61.5q0 43 7 72t22.5 49t41 35t62.5 29l98 38l-42 38q-27 24 -38 50t-11 68q0 57 43 93.5t136 36.5h168q97 0 142 -36.5t45 -98.5q0 -52 -25 -83t-87 -56
l-86 -33l94 -83l120 109h191l-211 -197l227 -197h-234zM339 307l-78 -30q-32 -13 -40.5 -31t-8.5 -47q0 -35 15.5 -57t51.5 -22h60q37 0 71.5 17.5t61.5 42.5l4 4zM503 487q21 8 27.5 19t6.5 30q0 43 -66 43h-73q-37 0 -51 -12t-14 -31q0 -16 8 -28.5t24 -26.5l37 -34z" />
    <glyph glyph-name="quotesingle" unicode="'" horiz-adv-x="234" 
d="M48 438l-19 237h175l-19 -237h-137z" />
    <glyph glyph-name="parenleft" unicode="(" horiz-adv-x="383" 
d="M296 -318q-56 0 -94 13.5t-61.5 38.5t-34 60t-10.5 78v820q0 43 10.5 78t34 60t61.5 38.5t94 13.5h68v-110h-67q-35 0 -56.5 -19t-21.5 -61v-820q0 -42 21.5 -60.5t56.5 -18.5h67v-111h-68z" />
    <glyph glyph-name="parenright" unicode=")" horiz-adv-x="383" 
d="M19 -318v111h68q34 0 55.5 18.5t21.5 60.5v820q0 42 -21.5 61t-55.5 19h-68v110h68q55 0 93.5 -13.5t62 -38.5t34 -60t10.5 -78v-820q0 -43 -10.5 -78t-34 -60t-62 -38.5t-93.5 -13.5h-68z" />
    <glyph glyph-name="asterisk" unicode="*" horiz-adv-x="414" 
d="M250 460l9 -123h-104l8 123l-112 -43l-32 97l120 31l-77 93l84 61l61 -100l61 100l84 -61l-77 -93l119 -31l-31 -97z" />
    <glyph glyph-name="plus" unicode="+" horiz-adv-x="654" 
d="M267 47v230h-228v118h228v229h119v-229h229v-118h-229v-230h-119z" />
    <glyph glyph-name="comma" unicode="," horiz-adv-x="279" 
d="M39 -58v236h201v-65q0 -78 -39.5 -124.5t-113.5 -46.5h-48z" />
    <glyph glyph-name="hyphen" unicode="-" horiz-adv-x="328" 
d="M19 255v120h290v-120h-290z" />
    <glyph glyph-name="period" unicode="." horiz-adv-x="279" 
d="M39 0v178h203v-178h-203z" />
    <glyph glyph-name="slash" unicode="/" horiz-adv-x="401" 
d="M0 -190l269 887h132l-269 -887h-132z" />
    <glyph glyph-name="zero" unicode="0" horiz-adv-x="861" 
d="M321 0q-143 0 -219.5 82.5t-76.5 254.5t76.5 255t219.5 83h218q144 0 220.5 -83t76.5 -255t-76.5 -254.5t-220.5 -82.5h-218zM500 140q43 0 72 10t46 33t24.5 60.5t7.5 93.5t-7.5 94t-24.5 61t-46 32.5t-72 9.5h-139q-44 0 -72.5 -9.5t-45.5 -32.5t-24 -61t-7 -94
t7 -93.5t24 -60.5t45.5 -33t72.5 -10h139z" />
    <glyph glyph-name="one" unicode="1" horiz-adv-x="358" 
d="M128 0v485q0 55 -57 55h-66v135h148q82 0 120.5 -38t38.5 -126v-511h-184z" />
    <glyph glyph-name="two" unicode="2" horiz-adv-x="753" 
d="M35 0v194q0 51 14.5 88.5t46.5 62t83 36.5t125 12h160q45 0 63.5 17.5t18.5 61.5t-19 59t-63 15h-410v129h406q74 0 125 -13t83 -38.5t46.5 -63t14.5 -87.5t-14.5 -87.5t-46.5 -63t-83 -38t-125 -12.5h-156q-44 0 -63 -14.5t-19 -62.5v-70h510v-125h-697z" />
    <glyph glyph-name="three" unicode="3" horiz-adv-x="745" 
d="M39 0v140h414q50 0 67 18t17 54t-17 54t-67 18h-403v122h390q47 0 62.5 17t15.5 52q0 34 -15.5 51.5t-62.5 17.5h-398v131h430q58 0 100.5 -15t70 -39.5t41 -57t13.5 -67.5q0 -33 -4.5 -57t-13 -40.5t-20 -27.5t-24.5 -18q35 -15 62.5 -51t27.5 -98q0 -97 -57 -150.5
t-178 -53.5h-451z" />
    <glyph glyph-name="four" unicode="4" horiz-adv-x="777" 
d="M552 0v195h-251q-124 0 -191.5 52t-67.5 151v277h185v-270q0 -32 23.5 -54.5t66.5 -22.5h235v347h186v-675h-186z" />
    <glyph glyph-name="five" unicode="5" horiz-adv-x="768" 
d="M39 0v125h435q22 0 37.5 3.5t25.5 12.5t14.5 25t4.5 41q0 49 -19 65.5t-63 16.5h-435v386h678v-126h-493v-138h258q70 0 120 -11.5t81 -36.5t45.5 -64t14.5 -94t-14.5 -94t-45.5 -63.5t-81 -36t-120 -11.5h-443z" />
    <glyph glyph-name="six" unicode="6" horiz-adv-x="823" 
d="M321 0q-143 0 -219.5 82.5t-76.5 254.5t76.5 255t219.5 83h440v-141h-400q-70 0 -104.5 -26.5t-43.5 -96.5h324q70 0 120 -11.5t81 -36.5t45.5 -64t14.5 -94t-14.5 -94t-45.5 -63.5t-81 -36t-120 -11.5h-216zM209 289q2 -47 11 -78t27 -50.5t46 -27.5t68 -8h168
q22 0 37.5 3.5t25.5 12.5t14.5 25t4.5 41q0 49 -19 65.5t-63 16.5h-320z" />
    <glyph glyph-name="seven" unicode="7" horiz-adv-x="772" 
d="M141 0l315 433q26 36 45 58.5t40 44.5l-1 3q-17 -1 -51.5 -2t-100.5 -1h-371v139h737v-128l-382 -547h-231z" />
    <glyph glyph-name="eight" unicode="8" horiz-adv-x="837" 
d="M260 0q-121 0 -179 53.5t-58 150.5q0 31 8 55t20.5 42.5t29 31t34.5 20.5q-14 7 -26 17.5t-21.5 27t-15 39.5t-5.5 56q0 35 14.5 68t43 58.5t72 40.5t101.5 15h282q57 0 100.5 -15t72 -40.5t43 -58.5t14.5 -68q0 -33 -5.5 -56t-14.5 -39.5t-21.5 -27t-26.5 -17.5
q18 -8 34.5 -20.5t29 -31t20.5 -42.5t8 -55q0 -97 -57.5 -150.5t-178.5 -53.5h-318zM297 289q-50 0 -66.5 -19.5t-16.5 -55.5t16.5 -55t66.5 -19h242q50 0 66.5 19t16.5 55t-16.5 55.5t-66.5 19.5h-242zM309 544q-48 0 -63.5 -18.5t-15.5 -53.5t15.5 -53.5t63.5 -18.5h220
q47 0 62.5 18.5t15.5 53.5q0 34 -15.5 53t-62.5 19h-220z" />
    <glyph glyph-name="nine" unicode="9" horiz-adv-x="819" 
d="M60 0v140h399q73 0 108 32t40 101h-321q-141 0 -201 50t-60 151t60 151t201 50h212q143 0 220 -83t77 -255t-77 -254.5t-220 -82.5h-438zM296 549q-45 0 -65.5 -16.5t-20.5 -60.5q0 -43 20.5 -60.5t65.5 -17.5h315q-2 46 -11 76t-27 47.5t-46.5 24.5t-67.5 7h-163z" />
    <glyph glyph-name="colon" unicode=":" horiz-adv-x="279" 
d="M39 -35v236h201v-65q0 -78 -39.5 -124.5t-113.5 -46.5h-48zM39 363v178h203v-178h-203z" />
    <glyph glyph-name="semicolon" unicode=";" horiz-adv-x="279" 
d="M39 363v178h203v-178h-203zM39 0v178h203v-178h-203z" />
    <glyph glyph-name="less" unicode="&#x3c;" horiz-adv-x="654" 
d="M39 258v157l576 172v-130l-444 -119v-4l444 -119v-130z" />
    <glyph glyph-name="equal" unicode="=" horiz-adv-x="654" 
d="M39 421v118h576v-118h-576zM39 133v119h576v-119h-576z" />
    <glyph glyph-name="greater" unicode="&#x3e;" horiz-adv-x="654" 
d="M39 85v130l444 119v4l-444 119v130l576 -172v-157z" />
    <glyph glyph-name="question" unicode="?" horiz-adv-x="604" 
d="M122 0v178h203v-178h-203zM345 329q-27 0 -37.5 -11.5t-10.5 -39.5v-30h-149v45q0 43 7 73t24.5 49t47.5 27.5t76 8.5h59q30 0 42.5 11t12.5 36t-12.5 36.5t-42.5 11.5h-352v129h372q113 0 161 -41t48 -133q0 -46 -11.5 -78.5t-36.5 -53.5t-64.5 -30.5t-96.5 -9.5h-37z
" />
    <glyph glyph-name="at" unicode="@" horiz-adv-x="830" 
d="M299 -229q-66 0 -117.5 28.5t-86 82t-52.5 131t-18 176.5q0 199 70.5 294.5t203.5 95.5h331q83 0 129 -70t46 -218q0 -149 -45.5 -220t-129.5 -71h-246q-54 0 -81.5 45.5t-27.5 142.5t27.5 142t81.5 45h299q-17 98 -76 98h-312q-69 0 -103.5 -72.5t-34.5 -211.5
q0 -136 35 -214t103 -78h469v-126h-465zM423 275q-19 0 -30 -22.5t-11 -61.5t11 -62t30 -23h176q23 0 40 8.5t28 28t16.5 52t5.5 80.5h-266z" />
    <glyph glyph-name="A" unicode="A" horiz-adv-x="794" 
d="M296 0q-74 0 -125 12t-83 36.5t-46.5 62t-14.5 88.5t14.5 89t46.5 62.5t83 36.5t125 12h281q-1 30 -7.5 54.5t-21.5 42.5t-41.5 28t-67.5 10h-394v141h421q144 0 221 -72t77 -222v-381h-468zM577 284h-281q-44 0 -63.5 -15t-19.5 -62q0 -23 4.5 -38t14.5 -23.5t26 -11.5
t38 -3h281v153z" />
    <glyph glyph-name="B" unicode="B" horiz-adv-x="834" 
d="M39 0v675h524q58 0 100.5 -15t71 -39.5t42.5 -57t14 -67.5q0 -33 -5 -57t-14 -40.5t-21 -27.5t-25 -18q18 -8 34.5 -20.5t29 -31t20.5 -42.5t8 -55q0 -97 -58 -150.5t-179 -53.5h-542zM222 544v-144h303q48 0 63.5 18.5t15.5 53.5t-15.5 53.5t-63.5 18.5h-303zM222 289
v-149h317q50 0 66.5 19t16.5 55t-16.5 55.5t-66.5 19.5h-317z" />
    <glyph glyph-name="C" unicode="C" horiz-adv-x="747" 
d="M321 0q-143 0 -219.5 82.5t-76.5 254.5t76.5 255t219.5 83h401v-141h-372q-44 0 -71 -13t-42 -38t-20 -61.5t-5 -84.5q0 -47 5 -84t20 -62t42 -38t71 -13h372v-140h-401z" />
    <glyph glyph-name="D" unicode="D" horiz-adv-x="859" 
d="M39 0v675h498q144 0 220.5 -83t76.5 -255t-76.5 -254.5t-220.5 -82.5h-498zM509 140q44 0 71 13t42 38t20 62t5 84q0 48 -5 84.5t-20 61.5t-42 38t-71 13h-284v-394h284z" />
    <glyph glyph-name="E" unicode="E" horiz-adv-x="757" 
d="M321 0q-143 0 -219.5 82.5t-76.5 254.5t76.5 255t219.5 83h401v-138h-374q-35 0 -59.5 -9t-40.5 -25.5t-25 -41.5t-12 -56h507v-130h-508q3 -33 11.5 -58.5t24.5 -43t41 -26.5t61 -9h374v-138h-401z" />
    <glyph glyph-name="F" unicode="F" horiz-adv-x="757" 
d="M225 256v-256h-186v381q0 151 76 222.5t220 71.5h400v-141h-372q-41 0 -67.5 -9.5t-42 -27.5t-21.5 -43.5t-7 -56.5h511v-141h-511z" />
    <glyph glyph-name="G" unicode="G" horiz-adv-x="802" 
d="M321 0q-143 0 -219.5 82.5t-76.5 254.5t76.5 255t219.5 83h441v-141h-412q-44 0 -71 -13t-42 -38t-20 -61.5t-5 -84.5q0 -47 5 -84t20 -62.5t42 -39t71 -13.5h246v141h-224v122h393v-401h-444z" />
    <glyph glyph-name="H" unicode="H" horiz-adv-x="838" 
d="M612 0v279h-386v-279h-187v675h187v-258h386v258h188v-675h-188z" />
    <glyph glyph-name="I" unicode="I" horiz-adv-x="263" 
d="M39 0v675h186v-675h-186z" />
    <glyph glyph-name="J" unicode="J" horiz-adv-x="626" 
d="M15 0v149h305q45 0 67.5 22.5t22.5 54.5v449h185v-473q0 -99 -67.5 -150.5t-191.5 -51.5h-321z" />
    <glyph glyph-name="K" unicode="K" horiz-adv-x="783" 
d="M537 0l-273 287h-42v-287h-183v675h183v-264h42l274 264h221l-334 -313l357 -362h-245z" />
    <glyph glyph-name="L" unicode="L" horiz-adv-x="711" 
d="M39 0v675h186v-526h475v-149h-661z" />
    <glyph glyph-name="M" unicode="M" horiz-adv-x="1061" 
d="M849 0v458q0 32 -26 54t-64 22h-135v-534h-181v534h-221v-534h-183v675h733q124 0 191 -52t67 -151v-472h-181z" />
    <glyph glyph-name="N" unicode="N" horiz-adv-x="816" 
d="M601 0v458q0 32 -25 54t-65 22h-286v-534h-186v675h488q124 0 191 -52t67 -151v-472h-184z" />
    <glyph glyph-name="O" unicode="O" horiz-adv-x="908" 
d="M383 0q-176 0 -267 86.5t-91 250.5q0 165 91 251.5t267 86.5h142q176 0 267 -86.5t91 -251.5q0 -164 -91 -250.5t-267 -86.5h-142zM492 133q64 0 103.5 17t61.5 45.5t30 65t8 76.5t-8 76.5t-30 65t-61.5 45.5t-103.5 17h-87q-60 0 -97.5 -17t-58.5 -45.5t-28.5 -65
t-7.5 -76.5t7.5 -76.5t28.5 -65t58.5 -45.5t97.5 -17h87z" />
    <glyph glyph-name="P" unicode="P" horiz-adv-x="784" 
d="M225 220v-220h-186v675h458q74 0 125.5 -13.5t83.5 -42t46.5 -71.5t14.5 -101t-14.5 -101t-46.5 -71t-83.5 -41.5t-125.5 -13.5h-272zM225 534v-174h272q45 0 64 16.5t19 70.5t-19 70.5t-64 16.5h-272z" />
    <glyph glyph-name="Q" unicode="Q" horiz-adv-x="908" 
d="M608 -55l-48 70q-9 -1 -17.5 -1h-17.5h-142q-176 0 -267 84.5t-91 245.5q0 160 91 245.5t267 85.5h142q176 0 267 -85.5t91 -245.5q0 -106 -40 -178.5t-117 -110.5l83 -110h-201zM467 145q-6 4 -13 13.5t-20 26.5l-83 109h201l81 -114q37 29 49.5 71.5t12.5 90.5
q0 39 -8 75t-30 63.5t-61.5 44t-103.5 16.5h-87q-60 0 -97.5 -16.5t-58.5 -44t-28.5 -63.5t-7.5 -75t7.5 -75t28.5 -63t58.5 -43.5t97.5 -16.5h11q17 0 29 -1t22 -2v4z" />
    <glyph glyph-name="R" unicode="R" horiz-adv-x="834" 
d="M611 0l-156 224h-233v-224h-183v675h494q71 0 121 -13.5t81.5 -41.5t45.5 -70.5t14 -100.5q0 -88 -35 -137.5t-112 -71.5l183 -240h-220zM222 534v-176h303q46 0 65 17.5t19 71.5q0 27 -4.5 43.5t-14.5 26.5t-26 13.5t-39 3.5h-303z" />
    <glyph glyph-name="S" unicode="S" horiz-adv-x="791" 
d="M35 0v125h466q22 0 38 3t25.5 11.5t14 23.5t4.5 38q0 47 -18.5 62t-63.5 15h-213q-74 0 -125 12t-83 36.5t-46.5 61.5t-14.5 88t14.5 88t46.5 62t83 37t125 12h456v-126h-456q-44 0 -63 -14t-19 -60q0 -23 4.5 -38t14.5 -23.5t25.5 -11.5t37.5 -3h213q73 0 124.5 -12
t83.5 -36.5t46.5 -62.5t14.5 -89t-14.5 -88.5t-46.5 -62t-83.5 -36.5t-124.5 -12h-466z" />
    <glyph glyph-name="T" unicode="T" horiz-adv-x="802" 
d="M308 0v537h-294v138h775v-138h-294v-537h-187z" />
    <glyph glyph-name="U" unicode="U" horiz-adv-x="803" 
d="M289 0q-124 0 -191 51.5t-67 150.5v473h187v-455q0 -32 21 -54t69 -22h271v531h186v-675h-476z" />
    <glyph glyph-name="V" unicode="V" horiz-adv-x="849" 
d="M313 0l-310 675h204l144 -338q27 -63 47 -108t25 -65h3q6 20 25.5 65t46.5 108l150 338h196l-316 -675h-215z" />
    <glyph glyph-name="W" unicode="W" horiz-adv-x="1244" 
d="M777 0l-106 337q-13 42 -25.5 85t-23.5 86h-3q-10 -43 -23 -85.5t-27 -85.5l-111 -337h-236l-216 675h196l101 -338q14 -45 26 -92.5t22 -91.5h5q10 44 24.5 91.5t28.5 92.5l108 338h218l104 -338q14 -47 27 -93.5t24 -90.5h3q10 44 23.5 90t28.5 94l101 338h193
l-224 -675h-238z" />
    <glyph glyph-name="X" unicode="X" horiz-adv-x="932" 
d="M692 0l-221 251l-243 -251h-225l364 363l-292 312h233l182 -208l202 208h222l-319 -321l334 -354h-237z" />
    <glyph glyph-name="Y" unicode="Y" horiz-adv-x="800" 
d="M305 0v258l-303 417h199l199 -282l197 282h201l-306 -417v-258h-187z" />
    <glyph glyph-name="Z" unicode="Z" horiz-adv-x="800" 
d="M29 0v161l305 244q47 37 77.5 61t50 38.5t29.5 21.5t16 10l-1 5q-6 -1 -18.5 -2t-37 -1.5t-63.5 -1t-99 -0.5h-259v139h737v-128l-331 -268q-47 -38 -77.5 -62t-50 -38.5t-29.5 -21.5t-16 -10l2 -6q6 1 18.5 2.5t36.5 2t63.5 1t99.5 0.5h284v-147h-737z" />
    <glyph glyph-name="bracketleft" unicode="[" horiz-adv-x="374" 
d="M96 -318v1200h268v-110h-145v-979h145v-111h-268z" />
    <glyph glyph-name="backslash" unicode="\" horiz-adv-x="401" 
d="M269 -190l-269 887h132l269 -887h-132z" />
    <glyph glyph-name="bracketright" unicode="]" horiz-adv-x="374" 
d="M9 -318v111h145v979h-145v110h269v-1200h-269z" />
    <glyph glyph-name="asciicircum" unicode="^" horiz-adv-x="506" 
d="M341 219l-86 323h-4l-86 -323h-126l135 456h158l135 -456h-126z" />
    <glyph glyph-name="underscore" unicode="_" horiz-adv-x="710" 
d="M9 -190v118h692v-118h-692z" />
    <glyph glyph-name="grave" unicode="`" horiz-adv-x="423" 
d="M197 549l-158 165h184l161 -165h-187z" />
    <glyph glyph-name="a" unicode="a" horiz-adv-x="696" 
d="M170 0q-42 0 -71 12t-47 34t-25.5 51t-7.5 64q0 34 7.5 61.5t25.5 47t47 29.5t71 10h315q-8 45 -31.5 60.5t-76.5 15.5h-338v122h354q72 0 123.5 -13.5t85 -43.5t49 -78.5t15.5 -118.5v-253h-496zM490 213h-259q-26 0 -36 -12t-10 -33q0 -22 10 -33.5t36 -11.5h259v90z
" />
    <glyph glyph-name="b" unicode="b" horiz-adv-x="753" 
d="M294 0q-66 0 -115.5 16t-82.5 46t-49 72t-16 93v470h182v-190h225q143 0 217 -65t74 -188q0 -124 -74 -189t-217 -65h-144zM411 129q44 0 71.5 10.5t42.5 28t20 40t5 46.5t-5 46t-20 39.5t-42.5 28t-71.5 10.5h-143q-20 0 -31.5 0.5t-23.5 2.5v-168q0 -16 4.5 -31t15 -27
t27.5 -19t41 -7h110z" />
    <glyph glyph-name="c" unicode="c" horiz-adv-x="629" 
d="M283 0q-58 0 -105.5 13t-81.5 42.5t-52.5 78t-18.5 120.5q0 71 18 119.5t52 78t81.5 42.5t106.5 13h322v-131h-289q-34 0 -56 -8t-34.5 -23.5t-17.5 -38t-5 -52.5t5 -53t17.5 -38.5t34.5 -23.5t56 -8h289v-131h-322z" />
    <glyph glyph-name="d" unicode="d" horiz-adv-x="753" 
d="M316 0q-143 0 -217 65t-74 189q0 123 74 188t217 65h225v190h182v-470q0 -51 -16 -93t-49 -72t-82.5 -46t-116.5 -16h-143zM541 381q-12 -2 -23.5 -2.5t-32.5 -0.5h-143q-44 0 -71 -10.5t-42 -28t-20.5 -39.5t-5.5 -46t5.5 -46.5t20.5 -40t42 -28t71 -10.5h111
q24 0 40.5 7t27 19t15.5 27t5 31v168z" />
    <glyph glyph-name="e" unicode="e" horiz-adv-x="697" 
d="M283 0q-67 0 -115.5 13t-80 43t-47 78.5t-15.5 119.5q0 70 13.5 118.5t44 78.5t80 43t120.5 13h208q96 0 142 -40.5t46 -114.5t-38 -108t-102 -34h-338q6 -49 30 -67.5t80 -18.5h342v-124h-370zM311 399q-57 0 -81 -19.5t-29 -65.5h259q26 0 37.5 10t11.5 32
q0 21 -11.5 32t-37.5 11h-149z" />
    <glyph glyph-name="f" unicode="f" horiz-adv-x="372" 
d="M31 0v517q0 55 12 90t41.5 55t79 27.5t124.5 7.5h69v-120h-49q-28 0 -46 -3.5t-29 -11.5t-15.5 -21.5t-4.5 -33.5h140v-122h-140v-385h-182z" />
    <glyph glyph-name="g" unicode="g" horiz-adv-x="759" 
d="M74 -190v124h373q55 0 74.5 16t19.5 57v23h-225q-143 0 -217 59.5t-74 177.5q0 117 74 178.5t217 61.5h143q67 0 116.5 -15.5t82.5 -43.5t49 -68t16 -89v-294q0 -57 -12.5 -93.5t-42 -57.5t-79 -28.5t-124.5 -7.5h-391zM541 304q0 30 -20.5 54t-67.5 24h-111
q-44 0 -71 -9.5t-42 -25.5t-20.5 -37t-5.5 -43q0 -21 5.5 -41.5t20.5 -36.5t42 -26t71 -10h143q21 0 32.5 -0.5t23.5 -2.5v154z" />
    <glyph glyph-name="h" unicode="h" 
d="M536 0v273q0 24 -5 43t-17.5 33t-33.5 21.5t-53 7.5h-151q-20 0 -31.5 0.5t-24.5 2.5v-381h-181v697h181v-190h239q58 0 106 -14t81.5 -42.5t52 -72.5t18.5 -105v-273h-181z" />
    <glyph glyph-name="i" unicode="i" horiz-adv-x="259" 
d="M39 0v497h181v-497h-181zM39 564v133h181v-133h-181z" />
    <glyph glyph-name="j" unicode="j" horiz-adv-x="283" 
d="M-63 -190v132h36q49 0 67 15t18 54v486h182v-503q0 -53 -12 -88.5t-40 -56.5t-74.5 -30t-115.5 -9h-61zM58 564v133h182v-133h-182z" />
    <glyph glyph-name="k" unicode="k" horiz-adv-x="699" 
d="M462 0l-209 215h-33v-215h-181v697h181v-388h33l210 198h216l-255 -235l273 -272h-235z" />
    <glyph glyph-name="l" unicode="l" horiz-adv-x="259" 
d="M39 0v697h181v-697h-181z" />
    <glyph glyph-name="m" unicode="m" horiz-adv-x="1061" 
d="M850 0v273q0 48 -22.5 76.5t-85.5 28.5h-121v-378h-173v378h-174q-20 0 -31.5 0.5t-23.5 2.5v-381h-180v507h733q59 0 106.5 -14t81.5 -42.5t52 -72.5t18 -105v-273h-180z" />
    <glyph glyph-name="n" unicode="n" 
d="M536 0v273q0 24 -5 43t-17.5 33t-33.5 21.5t-53 7.5h-151q-20 0 -31.5 0.5t-24.5 2.5v-381h-181v507h420q58 0 106 -14t81.5 -42.5t52 -72.5t18.5 -105v-273h-181z" />
    <glyph glyph-name="o" unicode="o" 
d="M316 0q-143 0 -217 65t-74 189q0 123 74 188t217 65h116q143 0 217 -65t74 -188q0 -124 -74 -189t-217 -65h-116zM406 129q44 0 71 10.5t42 28t20.5 40t5.5 46.5t-5.5 46t-20.5 39.5t-42 28t-71 10.5h-72q-41 0 -66.5 -10.5t-39.5 -28t-19.5 -39.5t-5.5 -46t5.5 -46.5
t19.5 -40t39.5 -28t66.5 -10.5h72z" />
    <glyph glyph-name="p" unicode="p" horiz-adv-x="753" 
d="M213 0v-190h-182v469q0 52 16 94t49 72t82.5 46t115.5 16h144q143 0 217 -65t74 -189q0 -123 -74 -188t-217 -65h-225zM411 129q44 0 71.5 10.5t42.5 27.5t20 39.5t5 46.5t-5 46t-20 39.5t-42.5 28t-71.5 10.5h-110q-24 0 -41 -7t-27.5 -19t-15 -27t-4.5 -31v-168
q12 2 23.5 3t31.5 1h143z" />
    <glyph glyph-name="q" unicode="q" horiz-adv-x="753" 
d="M541 293q0 16 -5 31t-15.5 27t-27 19t-40.5 7h-111q-44 0 -71 -10.5t-42 -28t-20.5 -39.5t-5.5 -46t5.5 -46.5t20.5 -39.5t42 -27.5t71 -10.5h143q21 0 32.5 -1t23.5 -3v168zM541 -190v190h-225q-143 0 -217 65t-74 188q0 124 74 189t217 65h143q67 0 116.5 -16t82.5 -46
t49 -72t16 -94v-469h-182z" />
    <glyph glyph-name="r" unicode="r" horiz-adv-x="459" 
d="M31 0v286q0 116 65.5 168.5t180.5 52.5h167v-122h-135q-55 0 -75.5 -25.5t-20.5 -73.5v-286h-182z" />
    <glyph glyph-name="s" unicode="s" horiz-adv-x="647" 
d="M31 0v124h378q26 0 37.5 9t11.5 30q0 20 -11.5 28t-37.5 8h-207q-95 0 -140 41t-45 117q0 77 45 113.5t140 36.5h410v-122h-372q-28 0 -39.5 -7t-11.5 -30t11.5 -30.5t39.5 -7.5h223q48 0 80.5 -11t52.5 -31.5t28.5 -50.5t8.5 -68t-9 -66t-30 -46.5t-56.5 -27.5t-87.5 -9
h-419z" />
    <glyph glyph-name="t" unicode="t" horiz-adv-x="381" 
d="M288 0q-75 0 -124.5 7.5t-79 27.5t-41.5 55t-12 90v507h182v-180h153v-122h-153v-195q0 -20 4.5 -33t15.5 -21t29 -11.5t46 -3.5h46v-121h-66z" />
    <glyph glyph-name="u" unicode="u" horiz-adv-x="736" 
d="M289 0q-59 0 -106.5 13.5t-81.5 42t-52 73t-18 105.5v273h182v-273q0 -48 22.5 -76.5t85.5 -28.5h139q21 0 32.5 -1t23.5 -3v382h183v-507h-410z" />
    <glyph glyph-name="v" unicode="v" horiz-adv-x="745" 
d="M251 0l-248 507h196l116 -254q21 -48 35.5 -82t18.5 -48h6q5 14 19.5 48t36.5 82l121 254h189l-252 -507h-238z" />
    <glyph glyph-name="w" unicode="w" horiz-adv-x="1116" 
d="M685 0l-84 253q-11 32 -21 64.5t-19 64.5h-4q-8 -32 -17.5 -64t-20.5 -65l-89 -253h-245l-179 507h190l81 -254q11 -35 21 -70.5t18 -68.5h4q8 33 19 69.5t23 69.5l86 254h233l83 -254q10 -35 20.5 -70.5t18.5 -68.5h4q8 33 18 68.5t23 70.5l80 254h182l-180 -507h-245z
" />
    <glyph glyph-name="x" unicode="x" horiz-adv-x="803" 
d="M564 0l-162 177l-176 -177h-223l291 274l-231 233h234l126 -134l134 134h222l-249 -233l271 -274h-237z" />
    <glyph glyph-name="y" unicode="y" horiz-adv-x="745" 
d="M155 -190l128 223l-280 474h192l97 -170q30 -51 47.5 -84t30.5 -65h5q11 32 30 65t48 84l96 170h192l-396 -697h-190z" />
    <glyph glyph-name="z" unicode="z" horiz-adv-x="672" 
d="M29 0v121l221 168q21 16 41.5 31.5t38 28t29.5 20.5t16 10v4q-10 -2 -54 -3.5t-104 -1.5h-188v129h618v-96l-239 -190q-57 -45 -86.5 -66.5t-38.5 -25.5l1 -5q10 3 49.5 4t107.5 1h206v-129h-618z" />
    <glyph glyph-name="braceleft" unicode="{" horiz-adv-x="299" 
d="M249 -318q-89 0 -125 43.5t-36 116.5q0 39 6 85.5t13 92.5t13 86.5t6 66.5q0 35 -13 48t-38 13h-18v96h18q25 0 38 13t13 48q0 27 -6 67t-13 86t-13 92.5t-6 85.5q0 73 36 116.5t125 43.5h30v-110h-25q-23 0 -32.5 -11.5t-9.5 -37.5q0 -38 6 -87t13 -98t13 -92t6 -70
q0 -31 -10 -56t-33 -39q23 -14 33 -38.5t10 -54.5q0 -27 -6 -70t-13 -92t-13 -98t-6 -87q0 -26 9.5 -37t32.5 -11h25v-111h-30z" />
    <glyph glyph-name="bar" unicode="|" horiz-adv-x="309" 
d="M92 -251v1066h123v-1066h-123z" />
    <glyph glyph-name="braceright" unicode="}" horiz-adv-x="299" 
d="M19 -318v111h26q23 0 32.5 11t9.5 37q0 38 -6 87t-13 98t-13 92t-6 70q0 30 9.5 54.5t32.5 38.5q-23 14 -32.5 39t-9.5 56q0 27 6 70t13 92t13 98t6 87q0 26 -9.5 37.5t-32.5 11.5h-26v110h31q89 0 125 -43.5t36 -116.5q0 -39 -6 -85.5t-13.5 -92.5t-13.5 -86t-6 -67
q0 -35 13 -48t38 -13h19v-96h-19q-25 0 -38 -13t-13 -48q0 -26 6 -66.5t13.5 -86.5t13.5 -92.5t6 -85.5q0 -73 -36 -116.5t-125 -43.5h-31z" />
    <glyph glyph-name="asciitilde" unicode="~" horiz-adv-x="655" 
d="M617 312q-10 -16 -26.5 -31.5t-37.5 -28t-45 -20t-48 -7.5q-41 0 -74 16t-63.5 35t-60 35t-61.5 16q-26 0 -50 -9t-45 -23.5t-38 -32.5t-29 -37v134q9 16 25.5 32t37 28.5t44.5 20t49 7.5q40 0 73.5 -16t63.5 -35.5t59.5 -35.5t63.5 -16q26 0 49.5 9t44.5 23.5t38 33
t30 37.5v-135z" />
    <glyph glyph-name="exclamdown" unicode="&#xa1;" horiz-adv-x="276" 
d="M36 367v178h203v-178h-203zM45 -129l19 426h149l18 -426h-186z" />
    <glyph glyph-name="cent" unicode="&#xa2;" horiz-adv-x="623" 
d="M423 83v-83h-123v83h-17q-58 0 -105.5 13t-81.5 43t-52.5 78.5t-18.5 119.5q0 72 18 120.5t52 78t81.5 42t106.5 12.5h17v85h123v-85h182v-131h-289q-34 0 -56 -8t-34.5 -23t-17.5 -38t-5 -53t5 -52.5t17.5 -38.5t34.5 -24t56 -8h289v-131h-182z" />
    <glyph glyph-name="sterling" unicode="&#xa3;" horiz-adv-x="671" 
d="M25 0v149h87v323q0 99 67.5 151t190.5 52h203v-150h-186q-45 0 -67.5 -22.5t-22.5 -54.5v-49h258v-131h-258v-119h349v-149h-621z" />
    <glyph glyph-name="currency" unicode="&#xa4;" horiz-adv-x="759" 
d="M490 141q-14 -4 -31 -5.5t-35 -1.5h-82q-20 0 -37.5 2t-34.5 5l-147 -147l-84 85l130 130q-35 50 -35 128q0 77 34 128l-129 128l84 83l145 -145q34 9 74 9h82q35 0 69 -8l144 144l83 -83l-124 -125q36 -50 36 -131q0 -83 -37 -132l126 -126l-84 -85zM405 214q37 0 60 10
t36 27.5t17.5 39.5t4.5 46t-4.5 46t-17.5 39t-36 27t-60 10h-51q-35 0 -56.5 -10t-33.5 -27t-16.5 -39t-4.5 -46t4.5 -46t16.5 -39.5t33.5 -27.5t56.5 -10h51z" />
    <glyph glyph-name="yen" unicode="&#xa5;" horiz-adv-x="688" 
d="M436 85v-85h-186v85h-198v100h198v92h-198v99h181l-217 299h195l135 -195l138 195h187l-218 -299h177v-99h-194v-92h194v-100h-194z" />
    <glyph glyph-name="brokenbar" unicode="&#xa6;" horiz-adv-x="309" 
d="M92 -251v380h123v-380h-123zM92 474v341h123v-341h-123z" />
    <glyph glyph-name="section" unicode="&#xa7;" horiz-adv-x="686" 
d="M41 -271v125h351q22 0 37.5 3t25.5 11.5t14.5 23.5t4.5 38q0 47 -19 62t-63 15h-98q-74 0 -125 12t-83 36.5t-46.5 61.5t-14.5 88q0 43 17.5 79t46.5 56q-31 21 -47.5 56t-16.5 80q0 51 14.5 88t46.5 62t83 37t125 12h341v-126h-341q-44 0 -63 -14t-19 -60q0 -23 4.5 -38
t14.5 -23.5t25.5 -11.5t37.5 -3h98q73 0 124.5 -12t83.5 -36.5t46.5 -62.5t14.5 -89q0 -45 -13 -80t-41 -55q54 -41 54 -136q0 -51 -14.5 -88t-46.5 -62t-83.5 -37t-124.5 -12h-351zM392 129q41 0 61.5 13.5t20.5 58.5t-18.5 61t-63.5 16h-98q-47 0 -64.5 -15.5t-17.5 -58.5
q0 -47 19 -61t63 -14h98z" />
    <glyph glyph-name="dieresis" unicode="&#xa8;" horiz-adv-x="525" 
d="M305 564v133h183v-133h-183zM39 564v133h181v-133h-181z" />
    <glyph glyph-name="ordfeminine" unicode="&#xaa;" horiz-adv-x="411" 
d="M107 337q-49 0 -67.5 26.5t-18.5 65.5q0 41 18.5 63t67.5 22h164q-1 17 -13 23.5t-39 6.5h-187v77h196q81 0 117 -32t36 -110v-142h-274zM275 456h-134q-11 0 -15 -6t-4 -17t4 -17t15 -6h134v46z" />
    <glyph glyph-name="guillemotleft" unicode="&#xab;" horiz-adv-x="456" 
d="M10 93zM136 93l-117 198q-4 7 -6.5 15t-2.5 17q0 8 2.5 16.5t6.5 16.5l117 198h120l-128 -227v-4l128 -230h-120zM316 93l-117 198q-4 7 -6.5 15t-2.5 17q0 8 2.5 16.5t6.5 16.5l117 198h120l-128 -227v-4l128 -230h-120z" />
    <glyph glyph-name="logicalnot" unicode="&#xac;" horiz-adv-x="654" 
d="M497 47v230h-458v118h576v-348h-118z" />
    <glyph glyph-name="macron" unicode="&#xaf;" horiz-adv-x="677" 
d="M39 568v119h600v-119h-600z" />
    <glyph glyph-name="degree" unicode="&#xb0;" horiz-adv-x="426" 
d="M188 393q-85 0 -128 39t-43 113t43 113t128 39h50q84 0 127 -39t43 -113t-43 -113t-127 -39h-50zM223 471q25 0 41 6t25 16.5t12 24t3 27.5t-3 27.5t-12 24t-25 17t-41 6.5h-25q-24 0 -38.5 -6.5t-23 -17t-11.5 -24t-3 -27.5t3 -27.5t11.5 -24t23 -16.5t38.5 -6h25z" />
    <glyph glyph-name="plusminus" unicode="&#xb1;" horiz-adv-x="654" 
d="M39 0zM267 47v230h-228v118h228v229h119v-229h229v-118h-229v-230h-119zM39 -117v118h576v-118h-576z" />
    <glyph glyph-name="uni00B2" unicode="&#xb2;" horiz-adv-x="442" 
d="M30 301zM30 301v109q0 60 34 87t117 27h86q20 0 28.5 7.5t8.5 29.5q0 20 -8.5 26.5t-28.5 6.5h-227v81h225q82 0 116 -28.5t34 -84.5q0 -57 -34 -85.5t-116 -28.5h-84q-21 0 -30.5 -7t-9.5 -30v-31h275v-79h-386z" />
    <glyph glyph-name="uni00B3" unicode="&#xb3;" horiz-adv-x="439" 
d="M32 301zM32 301v87h229q23 0 31 8t8 25q0 16 -8 24.5t-31 8.5h-222v77h214q23 0 30.5 7t7.5 24q0 15 -7.5 23t-30.5 8h-220v82h237q65 0 96 -30.5t31 -70.5q0 -32 -7 -50.5t-21 -27.5q18 -10 30 -30t12 -50q0 -55 -31.5 -85t-99.5 -30h-248z" />
    <glyph glyph-name="acute" unicode="&#xb4;" horiz-adv-x="423" 
d="M39 549l160 165h185l-159 -165h-186z" />
    <glyph glyph-name="paragraph" unicode="&#xb6;" horiz-adv-x="819" 
d="M638 -190v757h-142v-757h-144v516h-132q-113 0 -159.5 42.5t-46.5 131.5t46.5 132t159.5 43h562v-865h-144zM352 567h-132q-35 0 -49 -13t-14 -54t14 -54t49 -13h132v134z" />
    <glyph glyph-name="periodcentered" unicode="&#xb7;" horiz-adv-x="279" 
d="M39 248zM39 248v178h203v-178h-203z" />
    <glyph glyph-name="cedilla" unicode="&#xb8;" horiz-adv-x="279" 
d="M52 -270v237h176v-63q0 -39 -11.5 -71t-32.5 -55t-49.5 -35.5t-61.5 -12.5h-21z" />
    <glyph glyph-name="uni00B9" unicode="&#xb9;" horiz-adv-x="226" 
d="M13 301zM79 301v267q0 24 -25 24h-41v83h84q48 0 70 -22t22 -73v-279h-110z" />
    <glyph glyph-name="ordmasculine" unicode="&#xba;" horiz-adv-x="441" 
d="M187 337q-80 0 -121.5 37t-41.5 106q0 68 41.5 104.5t121.5 36.5h62q79 0 120.5 -36.5t41.5 -104.5q0 -69 -41.5 -106t-120.5 -37h-62zM235 417q43 0 56 19t13 44q0 12 -2.5 22.5t-10 19t-21 13.5t-35.5 5h-39q-20 0 -32.5 -5t-19.5 -13.5t-9.5 -19t-2.5 -22.5t2.5 -23.5
t9.5 -20.5t19.5 -14t32.5 -5h39z" />
    <glyph glyph-name="guillemotright" unicode="&#xbb;" horiz-adv-x="456" 
d="M19 93zM19 93l129 230v4l-129 227h121l116 -198q9 -17 9 -33q0 -9 -2.5 -17t-6.5 -15l-116 -198h-121zM199 93l129 230v4l-129 227h121l116 -198q9 -17 9 -33q0 -9 -2.5 -17t-6.5 -15l-116 -198h-121z" />
    <glyph glyph-name="onequarter" unicode="&#xbc;" horiz-adv-x="952" 
d="M39 0zM119 301v267q0 24 -25 24h-41v83h84q48 0 70 -22t22 -73v-279h-110zM39 0l563 675h132l-563 -675h-132zM804 0v105h-130q-69 0 -107.5 29.5t-38.5 84.5v155h111v-150q0 -16 11.5 -25.5t31.5 -9.5h122v185h110v-374h-110z" />
    <glyph glyph-name="onehalf" unicode="&#xbd;" horiz-adv-x="935" 
d="M39 0zM119 301v267q0 24 -25 24h-41v83h84q48 0 70 -22t22 -73v-279h-110zM39 0l563 675h132l-563 -675h-132zM511 0v109q0 60 34 87t117 27h86q20 0 28.5 7.5t8.5 29.5q0 20 -8.5 26.5t-28.5 6.5h-227v81h225q82 0 116 -28.5t34 -84.5q0 -57 -34 -85.5t-116 -28.5h-84
q-21 0 -30.5 -7t-9.5 -30v-31h275v-79h-386z" />
    <glyph glyph-name="threequarters" unicode="&#xbe;" horiz-adv-x="1064" 
d="M39 0zM39 301v87h229q23 0 31 8t8 25q0 16 -8 24.5t-31 8.5h-222v77h214q23 0 30.5 7t7.5 24q0 15 -7.5 23t-30.5 8h-220v82h237q65 0 96 -30.5t31 -70.5q0 -32 -7 -50.5t-21 -27.5q18 -10 30 -30t12 -50q0 -55 -31.5 -85t-99.5 -30h-248zM155 0l563 675h132l-563 -675
h-132zM915 0v105h-130q-69 0 -107.5 29.5t-38.5 84.5v155h111v-150q0 -16 11.5 -25.5t31.5 -9.5h122v185h110v-374h-110z" />
    <glyph glyph-name="questiondown" unicode="&#xbf;" horiz-adv-x="604" 
d="M279 368v178h203v-178h-203zM221 -129q-113 0 -160.5 40.5t-47.5 132.5q0 91 47.5 132t160.5 41h37q28 0 38.5 11.5t10.5 39.5v29h148v-44q0 -43 -7 -73t-24.5 -49t-47.5 -27.5t-76 -8.5h-58q-31 0 -43 -11t-12 -36t12 -36.5t43 -11.5h351v-129h-372z" />
    <glyph glyph-name="Agrave" unicode="&#xc0;" horiz-adv-x="794" 
d="M27 0zM296 0q-74 0 -125 12t-83 36.5t-46.5 62t-14.5 88.5t14.5 89t46.5 62.5t83 36.5t125 12h281q-1 30 -7.5 54.5t-21.5 42.5t-41.5 28t-67.5 10h-394v141h421q144 0 221 -72t77 -222v-381h-468zM577 284h-281q-44 0 -63.5 -15t-19.5 -62q0 -23 4.5 -38t14.5 -23.5
t26 -11.5t38 -3h281v153zM326 717l-158 165h184l161 -165h-187z" />
    <glyph glyph-name="Aacute" unicode="&#xc1;" horiz-adv-x="794" 
d="M27 0zM296 0q-74 0 -125 12t-83 36.5t-46.5 62t-14.5 88.5t14.5 89t46.5 62.5t83 36.5t125 12h281q-1 30 -7.5 54.5t-21.5 42.5t-41.5 28t-67.5 10h-394v141h421q144 0 221 -72t77 -222v-381h-468zM577 284h-281q-44 0 -63.5 -15t-19.5 -62q0 -23 4.5 -38t14.5 -23.5
t26 -11.5t38 -3h281v153zM263 717l160 165h185l-159 -165h-186z" />
    <glyph glyph-name="Acircumflex" unicode="&#xc2;" horiz-adv-x="794" 
d="M27 0zM296 0q-74 0 -125 12t-83 36.5t-46.5 62t-14.5 88.5t14.5 89t46.5 62.5t83 36.5t125 12h281q-1 30 -7.5 54.5t-21.5 42.5t-41.5 28t-67.5 10h-394v141h421q144 0 221 -72t77 -222v-381h-468zM577 284h-281q-44 0 -63.5 -15t-19.5 -62q0 -23 4.5 -38t14.5 -23.5
t26 -11.5t38 -3h281v153zM452 717l-62 96h-5l-61 -96h-156l132 165h177l132 -165h-157z" />
    <glyph glyph-name="Atilde" unicode="&#xc3;" horiz-adv-x="794" 
d="M27 0zM296 0q-74 0 -125 12t-83 36.5t-46.5 62t-14.5 88.5t14.5 89t46.5 62.5t83 36.5t125 12h281q-1 30 -7.5 54.5t-21.5 42.5t-41.5 28t-67.5 10h-394v141h421q144 0 221 -72t77 -222v-381h-468zM577 284h-281q-44 0 -63.5 -15t-19.5 -62q0 -23 4.5 -38t14.5 -23.5
t26 -11.5t38 -3h281v153zM88 736v119h600v-119h-600z" />
    <glyph glyph-name="Adieresis" unicode="&#xc4;" horiz-adv-x="794" 
d="M27 0zM296 0q-74 0 -125 12t-83 36.5t-46.5 62t-14.5 88.5t14.5 89t46.5 62.5t83 36.5t125 12h281q-1 30 -7.5 54.5t-21.5 42.5t-41.5 28t-67.5 10h-394v141h421q144 0 221 -72t77 -222v-381h-468zM577 284h-281q-44 0 -63.5 -15t-19.5 -62q0 -23 4.5 -38t14.5 -23.5
t26 -11.5t38 -3h281v153zM438 732v133h183v-133h-183zM172 732v133h181v-133h-181z" />
    <glyph glyph-name="Aring" unicode="&#xc5;" horiz-adv-x="794" 
d="M27 0zM296 0q-74 0 -125 12t-83 36.5t-46.5 62t-14.5 88.5t14.5 89t46.5 62.5t83 36.5t125 12h281q-1 30 -7.5 54.5t-21.5 42.5t-41.5 28t-67.5 10h-394v141h421q144 0 221 -72t77 -222v-381h-468zM577 284h-281q-44 0 -63.5 -15t-19.5 -62q0 -23 4.5 -38t14.5 -23.5
t26 -11.5t38 -3h281v153zM377 686q-51 0 -76.5 25.5t-25.5 73.5q0 97 102 97h40q103 0 103 -97q0 -48 -26 -73.5t-77 -25.5h-40zM407 741q27 0 34.5 13.5t7.5 30.5q0 16 -7.5 28.5t-34.5 12.5h-23q-24 0 -32 -12.5t-8 -28.5q0 -17 8 -30.5t32 -13.5h23z" />
    <glyph glyph-name="AE" unicode="&#xc6;" horiz-adv-x="1248" 
d="M296 0q-74 0 -125 12t-83 36.5t-46.5 62t-14.5 88.5t14.5 89t46.5 62.5t83 36.5t125 12h252q-1 30 -7 54.5t-21.5 42.5t-42 28t-67.5 10h-365v141h393q131 0 207 -61q73 61 197 61h372v-138h-347q-35 0 -59 -9t-40 -25.5t-24.5 -41.5t-12.5 -56h478v-130h-480
q7 -66 37 -101.5t101 -35.5h347v-138h-918zM296 284q-44 0 -63.5 -15t-19.5 -62q0 -23 4.5 -38t14.5 -23.5t26 -11.5t38 -3h291q-32 59 -40 153h-251z" />
    <glyph glyph-name="Ccedilla" unicode="&#xc7;" horiz-adv-x="747" 
d="M25 0zM321 0q-143 0 -219.5 82.5t-76.5 254.5t76.5 255t219.5 83h401v-141h-372q-44 0 -71 -13t-42 -38t-20 -61.5t-5 -84.5q0 -47 5 -84t20 -62t42 -38t71 -13h372v-140h-401zM343 -270v237h176v-63q0 -39 -11.5 -71t-32.5 -55t-49.5 -35.5t-61.5 -12.5h-21z" />
    <glyph glyph-name="Egrave" unicode="&#xc8;" horiz-adv-x="757" 
d="M25 0zM321 0q-143 0 -219.5 82.5t-76.5 254.5t76.5 255t219.5 83h401v-138h-374q-35 0 -59.5 -9t-40.5 -25.5t-25 -41.5t-12 -56h507v-130h-508q3 -33 11.5 -58.5t24.5 -43t41 -26.5t61 -9h374v-138h-401zM363 717l-158 165h184l161 -165h-187z" />
    <glyph glyph-name="Eacute" unicode="&#xc9;" horiz-adv-x="757" 
d="M25 0zM321 0q-143 0 -219.5 82.5t-76.5 254.5t76.5 255t219.5 83h401v-138h-374q-35 0 -59.5 -9t-40.5 -25.5t-25 -41.5t-12 -56h507v-130h-508q3 -33 11.5 -58.5t24.5 -43t41 -26.5t61 -9h374v-138h-401zM301 717l160 165h185l-159 -165h-186z" />
    <glyph glyph-name="Ecircumflex" unicode="&#xca;" horiz-adv-x="757" 
d="M25 0zM321 0q-143 0 -219.5 82.5t-76.5 254.5t76.5 255t219.5 83h401v-138h-374q-35 0 -59.5 -9t-40.5 -25.5t-25 -41.5t-12 -56h507v-130h-508q3 -33 11.5 -58.5t24.5 -43t41 -26.5t61 -9h374v-138h-401zM489 717l-62 96h-5l-61 -96h-156l132 165h177l132 -165h-157z
" />
    <glyph glyph-name="Edieresis" unicode="&#xcb;" horiz-adv-x="757" 
d="M25 0zM321 0q-143 0 -219.5 82.5t-76.5 254.5t76.5 255t219.5 83h401v-138h-374q-35 0 -59.5 -9t-40.5 -25.5t-25 -41.5t-12 -56h507v-130h-508q3 -33 11.5 -58.5t24.5 -43t41 -26.5t61 -9h374v-138h-401zM468 732v133h183v-133h-183zM202 732v133h181v-133h-181z" />
    <glyph glyph-name="Igrave" unicode="&#xcc;" horiz-adv-x="287" 
d="M0 0zM63 0v675h186v-675h-186zM94 717l-158 165h184l161 -165h-187z" />
    <glyph glyph-name="Iacute" unicode="&#xcd;" horiz-adv-x="291" 
d="M8 0zM39 0v675h186v-675h-186zM8 717l160 165h185l-159 -165h-186z" />
    <glyph glyph-name="Icircumflex" unicode="&#xce;" horiz-adv-x="339" 
d="M0 0zM79 0v675h186v-675h-186zM237 717l-62 96h-5l-61 -96h-156l132 165h177l132 -165h-157z" />
    <glyph glyph-name="Idieresis" unicode="&#xcf;" horiz-adv-x="346" 
d="M0 0zM82 0v675h186v-675h-186zM218 732v133h183v-133h-183zM-48 732v133h181v-133h-181z" />
    <glyph glyph-name="Eth" unicode="&#xd0;" horiz-adv-x="879" 
d="M57 0v275h-48v130h48v270h499q144 0 221 -83t77 -255t-77 -254.5t-221 -82.5h-499zM244 275v-135h285q43 0 70 13t42 38t20.5 62t5.5 84q0 48 -5.5 84.5t-20.5 61.5t-42 38t-70 13h-285v-129h274v-130h-274z" />
    <glyph glyph-name="Ntilde" unicode="&#xd1;" horiz-adv-x="816" 
d="M39 0zM601 0v458q0 32 -25 54t-65 22h-286v-534h-186v675h488q124 0 191 -52t67 -151v-472h-184zM98 736v119h600v-119h-600z" />
    <glyph glyph-name="Ograve" unicode="&#xd2;" horiz-adv-x="908" 
d="M25 0zM383 0q-176 0 -267 86.5t-91 250.5q0 165 91 251.5t267 86.5h142q176 0 267 -86.5t91 -251.5q0 -164 -91 -250.5t-267 -86.5h-142zM492 133q64 0 103.5 17t61.5 45.5t30 65t8 76.5t-8 76.5t-30 65t-61.5 45.5t-103.5 17h-87q-60 0 -97.5 -17t-58.5 -45.5t-28.5 -65
t-7.5 -76.5t7.5 -76.5t28.5 -65t58.5 -45.5t97.5 -17h87zM392 717l-158 165h184l161 -165h-187z" />
    <glyph glyph-name="Oacute" unicode="&#xd3;" horiz-adv-x="908" 
d="M25 0zM383 0q-176 0 -267 86.5t-91 250.5q0 165 91 251.5t267 86.5h142q176 0 267 -86.5t91 -251.5q0 -164 -91 -250.5t-267 -86.5h-142zM492 133q64 0 103.5 17t61.5 45.5t30 65t8 76.5t-8 76.5t-30 65t-61.5 45.5t-103.5 17h-87q-60 0 -97.5 -17t-58.5 -45.5t-28.5 -65
t-7.5 -76.5t7.5 -76.5t28.5 -65t58.5 -45.5t97.5 -17h87zM330 717l160 165h185l-159 -165h-186z" />
    <glyph glyph-name="Ocircumflex" unicode="&#xd4;" horiz-adv-x="908" 
d="M25 0zM383 0q-176 0 -267 86.5t-91 250.5q0 165 91 251.5t267 86.5h142q176 0 267 -86.5t91 -251.5q0 -164 -91 -250.5t-267 -86.5h-142zM492 133q64 0 103.5 17t61.5 45.5t30 65t8 76.5t-8 76.5t-30 65t-61.5 45.5t-103.5 17h-87q-60 0 -97.5 -17t-58.5 -45.5t-28.5 -65
t-7.5 -76.5t7.5 -76.5t28.5 -65t58.5 -45.5t97.5 -17h87zM518 717l-62 96h-5l-61 -96h-156l132 165h177l132 -165h-157z" />
    <glyph glyph-name="Otilde" unicode="&#xd5;" horiz-adv-x="908" 
d="M25 0zM383 0q-176 0 -267 86.5t-91 250.5q0 165 91 251.5t267 86.5h142q176 0 267 -86.5t91 -251.5q0 -164 -91 -250.5t-267 -86.5h-142zM492 133q64 0 103.5 17t61.5 45.5t30 65t8 76.5t-8 76.5t-30 65t-61.5 45.5t-103.5 17h-87q-60 0 -97.5 -17t-58.5 -45.5t-28.5 -65
t-7.5 -76.5t7.5 -76.5t28.5 -65t58.5 -45.5t97.5 -17h87zM154 736v119h600v-119h-600z" />
    <glyph glyph-name="Odieresis" unicode="&#xd6;" horiz-adv-x="908" 
d="M25 0zM383 0q-176 0 -267 86.5t-91 250.5q0 165 91 251.5t267 86.5h142q176 0 267 -86.5t91 -251.5q0 -164 -91 -250.5t-267 -86.5h-142zM492 133q64 0 103.5 17t61.5 45.5t30 65t8 76.5t-8 76.5t-30 65t-61.5 45.5t-103.5 17h-87q-60 0 -97.5 -17t-58.5 -45.5t-28.5 -65
t-7.5 -76.5t7.5 -76.5t28.5 -65t58.5 -45.5t97.5 -17h87zM495 732v133h183v-133h-183zM229 732v133h181v-133h-181z" />
    <glyph glyph-name="multiply" unicode="&#xd7;" horiz-adv-x="583" 
d="M292 252l-169 -170l-84 84l168 170l-168 169l84 83l169 -169l168 169l84 -83l-169 -169l170 -170l-85 -84z" />
    <glyph glyph-name="Oslash" unicode="&#xd8;" horiz-adv-x="908" 
d="M383 0q-75 0 -133 15l-93 -111h-132l128 153q-128 85 -128 280q0 165 91 251.5t267 86.5h142q72 0 132 -17l94 112h132l-130 -155q64 -41 97 -111t33 -167q0 -164 -91 -250.5t-267 -86.5h-142zM555 536q-14 2 -30 3.5t-33 1.5h-87q-60 0 -97.5 -17t-58.5 -45.5t-28.5 -65
t-7.5 -76.5q0 -45 9.5 -85t36.5 -69zM492 133q64 0 103.5 17t61.5 45.5t30 65t8 76.5q0 44 -9.5 83.5t-38.5 68.5l-295 -352q12 -2 25 -3t28 -1h87z" />
    <glyph glyph-name="Ugrave" unicode="&#xd9;" horiz-adv-x="803" 
d="M31 0zM289 0q-124 0 -191 51.5t-67 150.5v473h187v-455q0 -32 21 -54t69 -22h271v531h186v-675h-476zM339 717l-158 165h184l161 -165h-187z" />
    <glyph glyph-name="Uacute" unicode="&#xda;" horiz-adv-x="803" 
d="M31 0zM289 0q-124 0 -191 51.5t-67 150.5v473h187v-455q0 -32 21 -54t69 -22h271v531h186v-675h-476zM277 717l160 165h185l-159 -165h-186z" />
    <glyph glyph-name="Ucircumflex" unicode="&#xdb;" horiz-adv-x="803" 
d="M31 0zM289 0q-124 0 -191 51.5t-67 150.5v473h187v-455q0 -32 21 -54t69 -22h271v531h186v-675h-476zM465 717l-62 96h-5l-61 -96h-156l132 165h177l132 -165h-157z" />
    <glyph glyph-name="Udieresis" unicode="&#xdc;" horiz-adv-x="803" 
d="M31 0zM289 0q-124 0 -191 51.5t-67 150.5v473h187v-455q0 -32 21 -54t69 -22h271v531h186v-675h-476zM444 732v133h183v-133h-183zM178 732v133h181v-133h-181z" />
    <glyph glyph-name="Yacute" unicode="&#xdd;" horiz-adv-x="800" 
d="M2 0zM305 0v258l-303 417h199l199 -282l197 282h201l-306 -417v-258h-187zM276 717l160 165h185l-159 -165h-186z" />
    <glyph glyph-name="Thorn" unicode="&#xde;" horiz-adv-x="791" 
d="M225 115v-115h-186v675h186v-106h272q74 0 125.5 -13.5t83.5 -41.5t46.5 -71t14.5 -101t-14.5 -101t-46.5 -71t-83.5 -41.5t-125.5 -13.5h-272zM225 429v-174h272q45 0 64 16.5t19 70.5t-19 70.5t-64 16.5h-272z" />
    <glyph glyph-name="germandbls" unicode="&#xdf;" horiz-adv-x="931" 
d="M310 0v131h340q59 0 79 22.5t20 65.5q0 42 -20 64t-78 24h-38q-44 0 -80 9.5t-61.5 32t-39.5 60t-14 92.5q0 45 -20 60.5t-70 15.5h-23q-47 0 -66 -15t-19 -55v-507h-181v517q0 55 13.5 90t42.5 55t76 27.5t115 7.5h72q55 0 95.5 -9.5t67.5 -32.5t40 -60.5t13 -93.5
q0 -38 18.5 -51.5t68.5 -13.5h18q52 0 94 -11t71.5 -36t45.5 -67t16 -103q0 -62 -16 -103.5t-46 -67.5t-72 -37t-93 -11h-369z" />
    <glyph glyph-name="agrave" unicode="&#xe0;" horiz-adv-x="696" 
d="M19 0zM170 0q-42 0 -71 12t-47 34t-25.5 51t-7.5 64q0 34 7.5 61.5t25.5 47t47 29.5t71 10h315q-8 45 -31.5 60.5t-76.5 15.5h-338v122h354q72 0 123.5 -13.5t85 -43.5t49 -78.5t15.5 -118.5v-253h-496zM490 213h-259q-26 0 -36 -12t-10 -33q0 -22 10 -33.5t36 -11.5h259
v90zM286 549l-158 165h184l161 -165h-187z" />
    <glyph glyph-name="aacute" unicode="&#xe1;" horiz-adv-x="696" 
d="M19 0zM170 0q-42 0 -71 12t-47 34t-25.5 51t-7.5 64q0 34 7.5 61.5t25.5 47t47 29.5t71 10h315q-8 45 -31.5 60.5t-76.5 15.5h-338v122h354q72 0 123.5 -13.5t85 -43.5t49 -78.5t15.5 -118.5v-253h-496zM490 213h-259q-26 0 -36 -12t-10 -33q0 -22 10 -33.5t36 -11.5h259
v90zM224 549l160 165h185l-159 -165h-186z" />
    <glyph glyph-name="acircumflex" unicode="&#xe2;" horiz-adv-x="696" 
d="M19 0zM170 0q-42 0 -71 12t-47 34t-25.5 51t-7.5 64q0 34 7.5 61.5t25.5 47t47 29.5t71 10h315q-8 45 -31.5 60.5t-76.5 15.5h-338v122h354q72 0 123.5 -13.5t85 -43.5t49 -78.5t15.5 -118.5v-253h-496zM490 213h-259q-26 0 -36 -12t-10 -33q0 -22 10 -33.5t36 -11.5h259
v90zM412 549l-62 96h-5l-61 -96h-156l132 165h177l132 -165h-157z" />
    <glyph glyph-name="atilde" unicode="&#xe3;" horiz-adv-x="696" 
d="M19 0zM170 0q-42 0 -71 12t-47 34t-25.5 51t-7.5 64q0 34 7.5 61.5t25.5 47t47 29.5t71 10h315q-8 45 -31.5 60.5t-76.5 15.5h-338v122h354q72 0 123.5 -13.5t85 -43.5t49 -78.5t15.5 -118.5v-253h-496zM490 213h-259q-26 0 -36 -12t-10 -33q0 -22 10 -33.5t36 -11.5h259
v90zM42 568v119h600v-119h-600z" />
    <glyph glyph-name="adieresis" unicode="&#xe4;" horiz-adv-x="696" 
d="M19 0zM170 0q-42 0 -71 12t-47 34t-25.5 51t-7.5 64q0 34 7.5 61.5t25.5 47t47 29.5t71 10h315q-8 45 -31.5 60.5t-76.5 15.5h-338v122h354q72 0 123.5 -13.5t85 -43.5t49 -78.5t15.5 -118.5v-253h-496zM490 213h-259q-26 0 -36 -12t-10 -33q0 -22 10 -33.5t36 -11.5h259
v90zM390 564v133h183v-133h-183zM124 564v133h181v-133h-181z" />
    <glyph glyph-name="aring" unicode="&#xe5;" horiz-adv-x="696" 
d="M19 0zM170 0q-42 0 -71 12t-47 34t-25.5 51t-7.5 64q0 34 7.5 61.5t25.5 47t47 29.5t71 10h315q-8 45 -31.5 60.5t-76.5 15.5h-338v122h354q72 0 123.5 -13.5t85 -43.5t49 -78.5t15.5 -118.5v-253h-496zM490 213h-259q-26 0 -36 -12t-10 -33q0 -22 10 -33.5t36 -11.5h259
v90zM328 518q-51 0 -76.5 25.5t-25.5 73.5q0 97 102 97h40q103 0 103 -97q0 -48 -26 -73.5t-77 -25.5h-40zM358 573q27 0 34.5 13.5t7.5 30.5q0 16 -7.5 28.5t-34.5 12.5h-23q-24 0 -32 -12.5t-8 -28.5q0 -17 8 -30.5t32 -13.5h23z" />
    <glyph glyph-name="ae" unicode="&#xe6;" horiz-adv-x="1111" 
d="M170 0q-42 0 -71 12t-47 34t-25.5 51t-7.5 64q0 34 7.5 61.5t25.5 47t47 29.5t71 10h287q-8 45 -32 60.5t-76 15.5h-310v122h326q119 0 183 -39q58 39 177 39h180q95 0 141.5 -40.5t46.5 -114.5t-38 -108t-102 -34h-309q5 -49 29 -67.5t80 -18.5h314v-124h-897zM231 213
q-26 0 -36 -12t-10 -33q0 -22 10 -33.5t36 -11.5h256q-14 36 -19 90h-237zM753 399q-56 0 -80.5 -19.5t-29.5 -65.5h231q49 0 49 42q0 43 -49 43h-121z" />
    <glyph glyph-name="ccedilla" unicode="&#xe7;" horiz-adv-x="629" 
d="M25 0zM283 0q-58 0 -105.5 13t-81.5 42.5t-52.5 78t-18.5 120.5q0 71 18 119.5t52 78t81.5 42.5t106.5 13h322v-131h-289q-34 0 -56 -8t-34.5 -23.5t-17.5 -38t-5 -52.5t5 -53t17.5 -38.5t34.5 -23.5t56 -8h289v-131h-322zM256 -270v237h176v-63q0 -39 -11.5 -71
t-32.5 -55t-49.5 -35.5t-61.5 -12.5h-21z" />
    <glyph glyph-name="egrave" unicode="&#xe8;" horiz-adv-x="697" 
d="M25 0zM283 0q-67 0 -115.5 13t-80 43t-47 78.5t-15.5 119.5q0 70 13.5 118.5t44 78.5t80 43t120.5 13h208q96 0 142 -40.5t46 -114.5t-38 -108t-102 -34h-338q6 -49 30 -67.5t80 -18.5h342v-124h-370zM311 399q-57 0 -81 -19.5t-29 -65.5h259q26 0 37.5 10t11.5 32
q0 21 -11.5 32t-37.5 11h-149zM305 549l-158 165h184l161 -165h-187z" />
    <glyph glyph-name="eacute" unicode="&#xe9;" horiz-adv-x="697" 
d="M25 0zM283 0q-67 0 -115.5 13t-80 43t-47 78.5t-15.5 119.5q0 70 13.5 118.5t44 78.5t80 43t120.5 13h208q96 0 142 -40.5t46 -114.5t-38 -108t-102 -34h-338q6 -49 30 -67.5t80 -18.5h342v-124h-370zM311 399q-57 0 -81 -19.5t-29 -65.5h259q26 0 37.5 10t11.5 32
q0 21 -11.5 32t-37.5 11h-149zM243 549l160 165h185l-159 -165h-186z" />
    <glyph glyph-name="ecircumflex" unicode="&#xea;" horiz-adv-x="697" 
d="M25 0zM283 0q-67 0 -115.5 13t-80 43t-47 78.5t-15.5 119.5q0 70 13.5 118.5t44 78.5t80 43t120.5 13h208q96 0 142 -40.5t46 -114.5t-38 -108t-102 -34h-338q6 -49 30 -67.5t80 -18.5h342v-124h-370zM311 399q-57 0 -81 -19.5t-29 -65.5h259q26 0 37.5 10t11.5 32
q0 21 -11.5 32t-37.5 11h-149zM431 549l-62 96h-5l-61 -96h-156l132 165h177l132 -165h-157z" />
    <glyph glyph-name="edieresis" unicode="&#xeb;" horiz-adv-x="697" 
d="M25 0zM283 0q-67 0 -115.5 13t-80 43t-47 78.5t-15.5 119.5q0 70 13.5 118.5t44 78.5t80 43t120.5 13h208q96 0 142 -40.5t46 -114.5t-38 -108t-102 -34h-338q6 -49 30 -67.5t80 -18.5h342v-124h-370zM311 399q-57 0 -81 -19.5t-29 -65.5h259q26 0 37.5 10t11.5 32
q0 21 -11.5 32t-37.5 11h-149zM410 564v133h183v-133h-183zM144 564v133h181v-133h-181z" />
    <glyph glyph-name="igrave" unicode="&#xec;" horiz-adv-x="296" 
d="M0 0zM77 0v507h181v-507h-181zM106 549l-158 165h184l161 -165h-187z" />
    <glyph glyph-name="iacute" unicode="&#xed;" horiz-adv-x="312" 
d="M7 0zM39 0v507h181v-507h-181zM7 549l160 165h185l-159 -165h-186z" />
    <glyph glyph-name="icircumflex" unicode="&#xee;" horiz-adv-x="402" 
d="M0 0zM108 0v507h181v-507h-181zM264 549l-62 96h-5l-61 -96h-156l132 165h177l132 -165h-157z" />
    <glyph glyph-name="idieresis" unicode="&#xef;" horiz-adv-x="417" 
d="M0 0zM117 0v507h181v-507h-181zM250 564v133h183v-133h-183zM-16 564v133h181v-133h-181z" />
    <glyph glyph-name="eth" unicode="&#xf0;" horiz-adv-x="761" 
d="M541 357q-12 -2 -23.5 -3t-32.5 -1h-143q-44 0 -71 -9.5t-42 -25.5t-20.5 -36.5t-5.5 -42.5t5.5 -42.5t20.5 -36.5t42 -26t71 -10h111q24 0 40.5 6.5t27 17.5t15.5 25t5 29v155zM316 0q-143 0 -217 61.5t-74 178.5t74 177t217 60h225v23q0 41 -19.5 57t-74.5 16h-373v124
h391q75 0 124.5 -7.5t79 -28.5t42 -57t12.5 -93v-296q0 -98 -65.5 -156.5t-198.5 -58.5h-143z" />
    <glyph glyph-name="ntilde" unicode="&#xf1;" 
d="M39 0zM536 0v273q0 24 -5 43t-17.5 33t-33.5 21.5t-53 7.5h-151q-20 0 -31.5 0.5t-24.5 2.5v-381h-181v507h420q58 0 106 -14t81.5 -42.5t52 -72.5t18.5 -105v-273h-181zM61 568v119h600v-119h-600z" />
    <glyph glyph-name="ograve" unicode="&#xf2;" 
d="M25 0zM316 0q-143 0 -217 65t-74 189q0 123 74 188t217 65h116q143 0 217 -65t74 -188q0 -124 -74 -189t-217 -65h-116zM406 129q44 0 71 10.5t42 28t20.5 40t5.5 46.5t-5.5 46t-20.5 39.5t-42 28t-71 10.5h-72q-41 0 -66.5 -10.5t-39.5 -28t-19.5 -39.5t-5.5 -46
t5.5 -46.5t19.5 -40t39.5 -28t66.5 -10.5h72zM312 549l-158 165h184l161 -165h-187z" />
    <glyph glyph-name="oacute" unicode="&#xf3;" 
d="M25 0zM316 0q-143 0 -217 65t-74 189q0 123 74 188t217 65h116q143 0 217 -65t74 -188q0 -124 -74 -189t-217 -65h-116zM406 129q44 0 71 10.5t42 28t20.5 40t5.5 46.5t-5.5 46t-20.5 39.5t-42 28t-71 10.5h-72q-41 0 -66.5 -10.5t-39.5 -28t-19.5 -39.5t-5.5 -46
t5.5 -46.5t19.5 -40t39.5 -28t66.5 -10.5h72zM250 549l160 165h185l-159 -165h-186z" />
    <glyph glyph-name="ocircumflex" unicode="&#xf4;" 
d="M25 0zM316 0q-143 0 -217 65t-74 189q0 123 74 188t217 65h116q143 0 217 -65t74 -188q0 -124 -74 -189t-217 -65h-116zM406 129q44 0 71 10.5t42 28t20.5 40t5.5 46.5t-5.5 46t-20.5 39.5t-42 28t-71 10.5h-72q-41 0 -66.5 -10.5t-39.5 -28t-19.5 -39.5t-5.5 -46
t5.5 -46.5t19.5 -40t39.5 -28t66.5 -10.5h72zM438 549l-62 96h-5l-61 -96h-156l132 165h177l132 -165h-157z" />
    <glyph glyph-name="otilde" unicode="&#xf5;" 
d="M25 0zM316 0q-143 0 -217 65t-74 189q0 123 74 188t217 65h116q143 0 217 -65t74 -188q0 -124 -74 -189t-217 -65h-116zM406 129q44 0 71 10.5t42 28t20.5 40t5.5 46.5t-5.5 46t-20.5 39.5t-42 28t-71 10.5h-72q-41 0 -66.5 -10.5t-39.5 -28t-19.5 -39.5t-5.5 -46
t5.5 -46.5t19.5 -40t39.5 -28t66.5 -10.5h72zM74 568v119h600v-119h-600z" />
    <glyph glyph-name="odieresis" unicode="&#xf6;" 
d="M25 0zM316 0q-143 0 -217 65t-74 189q0 123 74 188t217 65h116q143 0 217 -65t74 -188q0 -124 -74 -189t-217 -65h-116zM406 129q44 0 71 10.5t42 28t20.5 40t5.5 46.5t-5.5 46t-20.5 39.5t-42 28t-71 10.5h-72q-41 0 -66.5 -10.5t-39.5 -28t-19.5 -39.5t-5.5 -46
t5.5 -46.5t19.5 -40t39.5 -28t66.5 -10.5h72zM416 564v133h183v-133h-183zM150 564v133h181v-133h-181z" />
    <glyph glyph-name="divide" unicode="&#xf7;" horiz-adv-x="654" 
d="M39 0zM39 277v118h576v-118h-576zM226 496v178h203v-178h-203zM226 0v178h203v-178h-203z" />
    <glyph glyph-name="oslash" unicode="&#xf8;" 
d="M316 0q-43 0 -77 6l-82 -102h-132l110 136q-110 63 -110 214q0 123 74 188t217 65h116q40 0 76 -6l83 102h132l-110 -137q110 -63 110 -212q0 -124 -74 -189t-217 -65h-116zM409 378h-75q-41 0 -66.5 -10.5t-39.5 -28t-19.5 -39.5t-5.5 -46q0 -26 6.5 -50.5t24.5 -41.5z
M406 129q44 0 71 10.5t42 28t20.5 40t5.5 46.5q0 25 -6.5 49t-24.5 42l-175 -216h67z" />
    <glyph glyph-name="ugrave" unicode="&#xf9;" horiz-adv-x="736" 
d="M31 0zM289 0q-59 0 -106.5 13.5t-81.5 42t-52 73t-18 105.5v273h182v-273q0 -48 22.5 -76.5t85.5 -28.5h139q21 0 32.5 -1t23.5 -3v382h183v-507h-410zM306 549l-158 165h184l161 -165h-187z" />
    <glyph glyph-name="uacute" unicode="&#xfa;" horiz-adv-x="736" 
d="M31 0zM289 0q-59 0 -106.5 13.5t-81.5 42t-52 73t-18 105.5v273h182v-273q0 -48 22.5 -76.5t85.5 -28.5h139q21 0 32.5 -1t23.5 -3v382h183v-507h-410zM244 549l160 165h185l-159 -165h-186z" />
    <glyph glyph-name="ucircumflex" unicode="&#xfb;" horiz-adv-x="736" 
d="M31 0zM289 0q-59 0 -106.5 13.5t-81.5 42t-52 73t-18 105.5v273h182v-273q0 -48 22.5 -76.5t85.5 -28.5h139q21 0 32.5 -1t23.5 -3v382h183v-507h-410zM432 549l-62 96h-5l-61 -96h-156l132 165h177l132 -165h-157z" />
    <glyph glyph-name="udieresis" unicode="&#xfc;" horiz-adv-x="736" 
d="M31 0zM289 0q-59 0 -106.5 13.5t-81.5 42t-52 73t-18 105.5v273h182v-273q0 -48 22.5 -76.5t85.5 -28.5h139q21 0 32.5 -1t23.5 -3v382h183v-507h-410zM410 564v133h183v-133h-183zM144 564v133h181v-133h-181z" />
    <glyph glyph-name="yacute" unicode="&#xfd;" horiz-adv-x="745" 
d="M3 0zM155 -190l128 223l-280 474h192l97 -170q30 -51 47.5 -84t30.5 -65h5q11 32 30 65t48 84l96 170h192l-396 -697h-190zM248 549l160 165h185l-159 -165h-186z" />
    <glyph glyph-name="thorn" unicode="&#xfe;" horiz-adv-x="761" 
d="M220 0v-190h-181v887h181v-190h226q143 0 216.5 -65t73.5 -189q0 -123 -73.5 -188t-216.5 -65h-226zM419 129q44 0 71.5 10.5t42.5 27.5t20 39.5t5 46.5t-5 46.5t-20 40t-42.5 28t-71.5 10.5h-143q-20 0 -31.5 0.5t-24.5 2.5v-256q13 2 24.5 3t31.5 1h143z" />
    <glyph glyph-name="ydieresis" unicode="&#xff;" horiz-adv-x="745" 
d="M3 0zM155 -190l128 223l-280 474h192l97 -170q30 -51 47.5 -84t30.5 -65h5q11 32 30 65t48 84l96 170h192l-396 -697h-190zM414 564v133h183v-133h-183zM148 564v133h181v-133h-181z" />
    <glyph glyph-name="Amacron" unicode="&#x100;" horiz-adv-x="794" 
d="M27 0zM296 0q-74 0 -125 12t-83 36.5t-46.5 62t-14.5 88.5t14.5 89t46.5 62.5t83 36.5t125 12h281q-1 30 -7.5 54.5t-21.5 42.5t-41.5 28t-67.5 10h-394v141h421q144 0 221 -72t77 -222v-381h-468zM577 284h-281q-44 0 -63.5 -15t-19.5 -62q0 -23 4.5 -38t14.5 -23.5
t26 -11.5t38 -3h281v153zM88 736v119h600v-119h-600z" />
    <glyph glyph-name="amacron" unicode="&#x101;" horiz-adv-x="696" 
d="M19 0zM170 0q-42 0 -71 12t-47 34t-25.5 51t-7.5 64q0 34 7.5 61.5t25.5 47t47 29.5t71 10h315q-8 45 -31.5 60.5t-76.5 15.5h-338v122h354q72 0 123.5 -13.5t85 -43.5t49 -78.5t15.5 -118.5v-253h-496zM490 213h-259q-26 0 -36 -12t-10 -33q0 -22 10 -33.5t36 -11.5h259
v90zM44 568v119h600v-119h-600z" />
    <glyph glyph-name="Abreve" unicode="&#x102;" horiz-adv-x="794" 
d="M27 0zM296 0q-74 0 -125 12t-83 36.5t-46.5 62t-14.5 88.5t14.5 89t46.5 62.5t83 36.5t125 12h281q-1 30 -7.5 54.5t-21.5 42.5t-41.5 28t-67.5 10h-394v141h421q144 0 221 -72t77 -222v-381h-468zM577 284h-281q-44 0 -63.5 -15t-19.5 -62q0 -23 4.5 -38t14.5 -23.5
t26 -11.5t38 -3h281v153zM355 723q-103 0 -155.5 40.5t-52.5 118.5h127q0 -15 4 -29t14.5 -24.5t29 -17t47.5 -6.5h32q31 0 50 6.5t30 17t15.5 24.5t4.5 29h127q-1 -78 -53.5 -118.5t-155.5 -40.5h-64z" />
    <glyph glyph-name="abreve" unicode="&#x103;" horiz-adv-x="696" 
d="M19 0zM170 0q-42 0 -71 12t-47 34t-25.5 51t-7.5 64q0 34 7.5 61.5t25.5 47t47 29.5t71 10h315q-8 45 -31.5 60.5t-76.5 15.5h-338v122h354q72 0 123.5 -13.5t85 -43.5t49 -78.5t15.5 -118.5v-253h-496zM490 213h-259q-26 0 -36 -12t-10 -33q0 -22 10 -33.5t36 -11.5h259
v90zM307 555q-103 0 -155.5 40.5t-52.5 118.5h127q0 -15 4 -29t14.5 -24.5t29 -17t47.5 -6.5h32q31 0 50 6.5t30 17t15.5 24.5t4.5 29h127q-1 -78 -53.5 -118.5t-155.5 -40.5h-64z" />
    <glyph glyph-name="Aogonek" unicode="&#x104;" horiz-adv-x="794" 
d="M631 -318q-102 0 -147 34.5t-45 109.5q0 50 23.5 82.5t82.5 58.5l72 33h-321q-74 0 -125 12t-83 36.5t-46.5 62t-14.5 88.5t14.5 89t46.5 62.5t83 36.5t125 12h281q-1 30 -7.5 54.5t-21.5 42.5t-41.5 28t-67.5 10h-394v141h421q144 0 221 -72t77 -222v-381l-113 -67
q-19 -11 -30.5 -29t-11.5 -38q0 -10 3.5 -21t12 -20.5t22.5 -15.5t35 -6h82v-121h-133zM577 284h-281q-44 0 -63.5 -15t-19.5 -62q0 -23 4.5 -38t14.5 -23.5t26 -11.5t38 -3h281v153z" />
    <glyph glyph-name="aogonek" unicode="&#x105;" horiz-adv-x="696" 
d="M533 -318q-102 0 -147 34.5t-45 109.5q0 50 23.5 82.5t82.5 58.5l72 33h-349q-42 0 -71 12t-47 34t-25.5 51t-7.5 64q0 34 7.5 61.5t25.5 47t47 29.5t71 10h315q-8 45 -31.5 60.5t-76.5 15.5h-338v122h354q72 0 123.5 -13.5t85 -43.5t49 -78.5t15.5 -118.5v-253l-112 -67
q-20 -11 -31.5 -29t-11.5 -38q0 -10 3.5 -21t12 -20.5t23 -15.5t35.5 -6h81v-121h-133zM490 213h-259q-26 0 -36 -12t-10 -33q0 -22 10 -33.5t36 -11.5h259v90z" />
    <glyph glyph-name="Cacute" unicode="&#x106;" horiz-adv-x="747" 
d="M25 0zM321 0q-143 0 -219.5 82.5t-76.5 254.5t76.5 255t219.5 83h401v-141h-372q-44 0 -71 -13t-42 -38t-20 -61.5t-5 -84.5q0 -47 5 -84t20 -62t42 -38t71 -13h372v-140h-401zM297 717l160 165h185l-159 -165h-186z" />
    <glyph glyph-name="cacute" unicode="&#x107;" horiz-adv-x="629" 
d="M25 0zM283 0q-58 0 -105.5 13t-81.5 42.5t-52.5 78t-18.5 120.5q0 71 18 119.5t52 78t81.5 42.5t106.5 13h322v-131h-289q-34 0 -56 -8t-34.5 -23.5t-17.5 -38t-5 -52.5t5 -53t17.5 -38.5t34.5 -23.5t56 -8h289v-131h-322zM238 549l160 165h185l-159 -165h-186z" />
    <glyph glyph-name="Cdotaccent" unicode="&#x10a;" horiz-adv-x="747" 
d="M25 0zM321 0q-143 0 -219.5 82.5t-76.5 254.5t76.5 255t219.5 83h401v-141h-372q-44 0 -71 -13t-42 -38t-20 -61.5t-5 -84.5q0 -47 5 -84t20 -62t42 -38t71 -13h372v-140h-401zM331 732v133h181v-133h-181z" />
    <glyph glyph-name="cdotaccent" unicode="&#x10b;" horiz-adv-x="629" 
d="M25 0zM283 0q-58 0 -105.5 13t-81.5 42.5t-52.5 78t-18.5 120.5q0 71 18 119.5t52 78t81.5 42.5t106.5 13h322v-131h-289q-34 0 -56 -8t-34.5 -23.5t-17.5 -38t-5 -52.5t5 -53t17.5 -38.5t34.5 -23.5t56 -8h289v-131h-322zM272 564v133h181v-133h-181z" />
    <glyph glyph-name="Ccaron" unicode="&#x10c;" horiz-adv-x="747" 
d="M25 0zM321 0q-143 0 -219.5 82.5t-76.5 254.5t76.5 255t219.5 83h401v-141h-372q-44 0 -71 -13t-42 -38t-20 -61.5t-5 -84.5q0 -47 5 -84t20 -62t42 -38t71 -13h372v-140h-401zM333 717l-132 165h156l63 -95h3l62 95h157l-132 -165h-177z" />
    <glyph glyph-name="ccaron" unicode="&#x10d;" horiz-adv-x="629" 
d="M25 0zM283 0q-58 0 -105.5 13t-81.5 42.5t-52.5 78t-18.5 120.5q0 71 18 119.5t52 78t81.5 42.5t106.5 13h322v-131h-289q-34 0 -56 -8t-34.5 -23.5t-17.5 -38t-5 -52.5t5 -53t17.5 -38.5t34.5 -23.5t56 -8h289v-131h-322zM275 549l-132 165h156l63 -95h3l62 95h157
l-132 -165h-177z" />
    <glyph glyph-name="Dcaron" unicode="&#x10e;" horiz-adv-x="859" 
d="M39 0zM39 0v675h498q144 0 220.5 -83t76.5 -255t-76.5 -254.5t-220.5 -82.5h-498zM509 140q44 0 71 13t42 38t20 62t5 84q0 48 -5 84.5t-20 61.5t-42 38t-71 13h-284v-394h284zM294 717l-132 165h156l63 -95h3l62 95h157l-132 -165h-177z" />
    <glyph glyph-name="dcaron" unicode="&#x10f;" horiz-adv-x="986" 
d="M25 0zM316 0q-143 0 -217 65t-74 189q0 123 74 188t217 65h225v190h182v-470q0 -51 -16 -93t-49 -72t-82.5 -46t-116.5 -16h-143zM541 381q-12 -2 -23.5 -2.5t-32.5 -0.5h-143q-44 0 -71 -10.5t-42 -28t-20.5 -39.5t-5.5 -46t5.5 -46.5t20.5 -40t42 -28t71 -10.5h111
q24 0 40.5 7t27 19t15.5 27t5 31v168zM775.681 540.033l125.869 230.229h145.536l-125.082 -230.229h-146.323z" />
    <glyph glyph-name="Dcroat" unicode="&#x110;" horiz-adv-x="879" 
d="M9 0zM57 0v275h-48v130h48v270h499q144 0 221 -83t77 -255t-77 -254.5t-221 -82.5h-499zM244 275v-135h285q43 0 70 13t42 38t20.5 62t5.5 84q0 48 -5.5 84.5t-20.5 61.5t-42 38t-70 13h-285v-129h274v-130h-274z" />
    <glyph glyph-name="dcroat" unicode="&#x111;" horiz-adv-x="753" 
d="M316 0q-143 0 -217 65t-74 189q0 123 74 188t217 65h225v71h-418v119h600v-470q0 -51 -16 -93t-49 -72t-82.5 -46t-116.5 -16h-143zM541 381q-12 -2 -23.5 -2.5t-32.5 -0.5h-143q-44 0 -71 -10.5t-42 -28t-20.5 -39.5t-5.5 -46t5.5 -46.5t20.5 -40t42 -28t71 -10.5h111
q24 0 40.5 7t27 19t15.5 27t5 31v168z" />
    <glyph glyph-name="Emacron" unicode="&#x112;" horiz-adv-x="757" 
d="M25 0zM321 0q-143 0 -219.5 82.5t-76.5 254.5t76.5 255t219.5 83h401v-138h-374q-35 0 -59.5 -9t-40.5 -25.5t-25 -41.5t-12 -56h507v-130h-508q3 -33 11.5 -58.5t24.5 -43t41 -26.5t61 -9h374v-138h-401zM126 736v119h600v-119h-600z" />
    <glyph glyph-name="emacron" unicode="&#x113;" horiz-adv-x="697" 
d="M25 0zM283 0q-67 0 -115.5 13t-80 43t-47 78.5t-15.5 119.5q0 70 13.5 118.5t44 78.5t80 43t120.5 13h208q96 0 142 -40.5t46 -114.5t-38 -108t-102 -34h-338q6 -49 30 -67.5t80 -18.5h342v-124h-370zM311 399q-57 0 -81 -19.5t-29 -65.5h259q26 0 37.5 10t11.5 32
q0 21 -11.5 32t-37.5 11h-149zM63 568v119h600v-119h-600z" />
    <glyph glyph-name="Ebreve" unicode="&#x114;" horiz-adv-x="757" 
d="M25 0zM321 0q-143 0 -219.5 82.5t-76.5 254.5t76.5 255t219.5 83h401v-138h-374q-35 0 -59.5 -9t-40.5 -25.5t-25 -41.5t-12 -56h507v-130h-508q3 -33 11.5 -58.5t24.5 -43t41 -26.5t61 -9h374v-138h-401zM394 723q-103 0 -155.5 40.5t-52.5 118.5h127q0 -15 4 -29
t14.5 -24.5t29 -17t47.5 -6.5h32q31 0 50 6.5t30 17t15.5 24.5t4.5 29h127q-1 -78 -53.5 -118.5t-155.5 -40.5h-64z" />
    <glyph glyph-name="ebreve" unicode="&#x115;" horiz-adv-x="697" 
d="M25 0zM283 0q-67 0 -115.5 13t-80 43t-47 78.5t-15.5 119.5q0 70 13.5 118.5t44 78.5t80 43t120.5 13h208q96 0 142 -40.5t46 -114.5t-38 -108t-102 -34h-338q6 -49 30 -67.5t80 -18.5h342v-124h-370zM311 399q-57 0 -81 -19.5t-29 -65.5h259q26 0 37.5 10t11.5 32
q0 21 -11.5 32t-37.5 11h-149zM329 555q-103 0 -155.5 40.5t-52.5 118.5h127q0 -15 4 -29t14.5 -24.5t29 -17t47.5 -6.5h32q31 0 50 6.5t30 17t15.5 24.5t4.5 29h127q-1 -78 -53.5 -118.5t-155.5 -40.5h-64z" />
    <glyph glyph-name="Edotaccent" unicode="&#x116;" horiz-adv-x="757" 
d="M25 0zM321 0q-143 0 -219.5 82.5t-76.5 254.5t76.5 255t219.5 83h401v-138h-374q-35 0 -59.5 -9t-40.5 -25.5t-25 -41.5t-12 -56h507v-130h-508q3 -33 11.5 -58.5t24.5 -43t41 -26.5t61 -9h374v-138h-401zM336 732v133h181v-133h-181z" />
    <glyph glyph-name="edotaccent" unicode="&#x117;" horiz-adv-x="697" 
d="M25 0zM283 0q-67 0 -115.5 13t-80 43t-47 78.5t-15.5 119.5q0 70 13.5 118.5t44 78.5t80 43t120.5 13h208q96 0 142 -40.5t46 -114.5t-38 -108t-102 -34h-338q6 -49 30 -67.5t80 -18.5h342v-124h-370zM311 399q-57 0 -81 -19.5t-29 -65.5h259q26 0 37.5 10t11.5 32
q0 21 -11.5 32t-37.5 11h-149zM269 564v133h181v-133h-181z" />
    <glyph glyph-name="Eogonek" unicode="&#x118;" horiz-adv-x="757" 
d="M590 -318q-102 0 -147 34.5t-45 109.5q0 50 23.5 82.5t82.5 58.5l72 33h-255q-143 0 -219.5 82.5t-76.5 254.5t76.5 255t219.5 83h401v-138h-374q-35 0 -59.5 -9t-40.5 -25.5t-25 -41.5t-12 -56h507v-130h-508q3 -33 11.5 -58.5t24.5 -43t41 -26.5t61 -9h374v-138
l-112 -67q-19 -11 -31 -29t-12 -38q0 -10 3.5 -21t12.5 -20.5t23 -15.5t35 -6h81v-121h-132z" />
    <glyph glyph-name="eogonek" unicode="&#x119;" horiz-adv-x="697" 
d="M521 -318q-102 0 -147.5 34.5t-45.5 109.5q0 50 24 82.5t83 58.5l72 33h-224q-67 0 -115.5 13t-80 43t-47 78.5t-15.5 119.5q0 70 13.5 118.5t44 78.5t80 43t120.5 13h208q96 0 142 -40.5t46 -114.5t-38 -108t-102 -34h-338q6 -49 30 -67.5t80 -18.5h342v-124l-112 -67
q-20 -11 -31.5 -29t-11.5 -38q0 -10 3.5 -21t12 -20.5t23 -15.5t35.5 -6h81v-121h-132zM311 399q-57 0 -81 -19.5t-29 -65.5h259q26 0 37.5 10t11.5 32q0 21 -11.5 32t-37.5 11h-149z" />
    <glyph glyph-name="Ecaron" unicode="&#x11a;" horiz-adv-x="757" 
d="M25 0zM321 0q-143 0 -219.5 82.5t-76.5 254.5t76.5 255t219.5 83h401v-138h-374q-35 0 -59.5 -9t-40.5 -25.5t-25 -41.5t-12 -56h507v-130h-508q3 -33 11.5 -58.5t24.5 -43t41 -26.5t61 -9h374v-138h-401zM337 717l-132 165h156l63 -95h3l62 95h157l-132 -165h-177z" />
    <glyph glyph-name="ecaron" unicode="&#x11b;" horiz-adv-x="697" 
d="M25 0zM283 0q-67 0 -115.5 13t-80 43t-47 78.5t-15.5 119.5q0 70 13.5 118.5t44 78.5t80 43t120.5 13h208q96 0 142 -40.5t46 -114.5t-38 -108t-102 -34h-338q6 -49 30 -67.5t80 -18.5h342v-124h-370zM311 399q-57 0 -81 -19.5t-29 -65.5h259q26 0 37.5 10t11.5 32
q0 21 -11.5 32t-37.5 11h-149zM275 549l-132 165h156l63 -95h3l62 95h157l-132 -165h-177z" />
    <glyph glyph-name="Gbreve" unicode="&#x11e;" horiz-adv-x="802" 
d="M25 0zM321 0q-143 0 -219.5 82.5t-76.5 254.5t76.5 255t219.5 83h441v-141h-412q-44 0 -71 -13t-42 -38t-20 -61.5t-5 -84.5q0 -47 5 -84t20 -62.5t42 -39t71 -13.5h246v141h-224v122h393v-401h-444zM407 723q-103 0 -155.5 40.5t-52.5 118.5h127q0 -15 4 -29t14.5 -24.5
t29 -17t47.5 -6.5h32q31 0 50 6.5t30 17t15.5 24.5t4.5 29h127q-1 -78 -53.5 -118.5t-155.5 -40.5h-64z" />
    <glyph glyph-name="gbreve" unicode="&#x11f;" horiz-adv-x="759" 
d="M25 0zM74 -190v124h373q55 0 74.5 16t19.5 57v23h-225q-143 0 -217 59.5t-74 177.5q0 117 74 178.5t217 61.5h143q67 0 116.5 -15.5t82.5 -43.5t49 -68t16 -89v-294q0 -57 -12.5 -93.5t-42 -57.5t-79 -28.5t-124.5 -7.5h-391zM541 304q0 30 -20.5 54t-67.5 24h-111
q-44 0 -71 -9.5t-42 -25.5t-20.5 -37t-5.5 -43q0 -21 5.5 -41.5t20.5 -36.5t42 -26t71 -10h143q21 0 32.5 -0.5t23.5 -2.5v154zM352 555q-103 0 -155.5 40.5t-52.5 118.5h127q0 -15 4 -29t14.5 -24.5t29 -17t47.5 -6.5h32q31 0 50 6.5t30 17t15.5 24.5t4.5 29h127
q-1 -78 -53.5 -118.5t-155.5 -40.5h-64z" />
    <glyph glyph-name="Gdotaccent" unicode="&#x120;" horiz-adv-x="802" 
d="M25 0zM321 0q-143 0 -219.5 82.5t-76.5 254.5t76.5 255t219.5 83h441v-141h-412q-44 0 -71 -13t-42 -38t-20 -61.5t-5 -84.5q0 -47 5 -84t20 -62.5t42 -39t71 -13.5h246v141h-224v122h393v-401h-444zM349 732v133h181v-133h-181z" />
    <glyph glyph-name="gdotaccent" unicode="&#x121;" horiz-adv-x="759" 
d="M25 0zM74 -190v124h373q55 0 74.5 16t19.5 57v23h-225q-143 0 -217 59.5t-74 177.5q0 117 74 178.5t217 61.5h143q67 0 116.5 -15.5t82.5 -43.5t49 -68t16 -89v-294q0 -57 -12.5 -93.5t-42 -57.5t-79 -28.5t-124.5 -7.5h-391zM541 304q0 30 -20.5 54t-67.5 24h-111
q-44 0 -71 -9.5t-42 -25.5t-20.5 -37t-5.5 -43q0 -21 5.5 -41.5t20.5 -36.5t42 -26t71 -10h143q21 0 32.5 -0.5t23.5 -2.5v154zM294 564v133h181v-133h-181z" />
    <glyph glyph-name="Gcommaaccent" unicode="&#x122;" horiz-adv-x="802" 
d="M25 0zM321 0q-143 0 -219.5 82.5t-76.5 254.5t76.5 255t219.5 83h441v-141h-412q-44 0 -71 -13t-42 -38t-20 -61.5t-5 -84.5q0 -47 5 -84t20 -62.5t42 -39t71 -13.5h246v141h-224v122h393v-401h-444zM335 -270v237h176v-63q0 -39 -11.5 -71t-32.5 -55t-49.5 -35.5
t-61.5 -12.5h-21z" />
    <glyph glyph-name="gcommaaccent" unicode="&#x123;" horiz-adv-x="759" 
d="M25 0zM74 -190v124h373q55 0 74.5 16t19.5 57v23h-225q-143 0 -217 59.5t-74 177.5q0 117 74 178.5t217 61.5h143q67 0 116.5 -15.5t82.5 -43.5t49 -68t16 -89v-294q0 -57 -12.5 -93.5t-42 -57.5t-79 -28.5t-124.5 -7.5h-391zM541 304q0 30 -20.5 54t-67.5 24h-111
q-44 0 -71 -9.5t-42 -25.5t-20.5 -37t-5.5 -43q0 -21 5.5 -41.5t20.5 -36.5t42 -26t71 -10h143q21 0 32.5 -0.5t23.5 -2.5v154zM451 563q-33 0 -61.5 12.5t-49.5 35.5t-32.5 55t-11.5 71v63h175v-237h-20z" />
    <glyph glyph-name="Hbar" unicode="&#x126;" horiz-adv-x="838" 
d="M612 0v201h-386v-201h-187v675h187v-111h386v111h188v-675h-188zM612 444h-386v-106h386v106z" />
    <glyph glyph-name="hbar" unicode="&#x127;" 
d="M536 0v273q0 24 -5 43t-17.5 33t-33.5 21.5t-53 7.5h-151q-20 0 -31.5 0.5t-24.5 2.5v-381h-181v697h600v-119h-419v-71h239q58 0 106 -14t81.5 -42.5t52 -72.5t18.5 -105v-273h-181z" />
    <glyph glyph-name="Imacron" unicode="&#x12a;" horiz-adv-x="263" 
d="M0 0zM39 0v675h186v-675h-186zM-13.5 736v119h300v-119h-300z" />
    <glyph glyph-name="imacron" unicode="&#x12b;" horiz-adv-x="259" 
d="M0 0zM39 0v507h181v-507h-181zM-18.5 568v119h300v-119h-300z" />
    <glyph glyph-name="Ibreve" unicode="&#x12c;" horiz-adv-x="350" 
d="M0 0zM82 0v675h186v-675h-186zM143 723q-103 0 -155.5 40.5t-52.5 118.5h127q0 -15 4 -29t14.5 -24.5t29 -17t47.5 -6.5h32q31 0 50 6.5t30 17t15.5 24.5t4.5 29h127q-1 -78 -53.5 -118.5t-155.5 -40.5h-64z" />
    <glyph glyph-name="ibreve" unicode="&#x12d;" horiz-adv-x="440" 
d="M0 0zM129 0v507h181v-507h-181zM189 555q-103 0 -155.5 40.5t-52.5 118.5h127q0 -15 4 -29t14.5 -24.5t29 -17t47.5 -6.5h32q31 0 50 6.5t30 17t15.5 24.5t4.5 29h127q-1 -78 -53.5 -118.5t-155.5 -40.5h-64z" />
    <glyph glyph-name="Iogonek" unicode="&#x12e;" horiz-adv-x="263" 
d="M93 -318q-102 0 -147 34.5t-45 109.5q0 50 23.5 82.5t82.5 58.5l72 33h-40v675h186v-675l-112 -67q-20 -11 -31.5 -29t-11.5 -38q0 -10 3.5 -21t12 -20.5t23 -15.5t35.5 -6h81v-121h-132z" />
    <glyph glyph-name="iogonek" unicode="&#x12f;" horiz-adv-x="259" 
d="M88 -318q-102 0 -147.5 34.5t-45.5 109.5q0 50 24.5 82.5t82.5 58.5l72 33h-35v497h181v-497l-112 -67q-20 -11 -31.5 -29t-11.5 -38q0 -10 3.5 -21t12 -20.5t23 -15.5t35.5 -6h81v-121h-132zM39 564v133h181v-133h-181z" />
    <glyph glyph-name="Idotaccent" unicode="&#x130;" horiz-adv-x="263" 
d="M39 0zM39 0v675h186v-675h-186zM41 732v133h181v-133h-181z" />
    <glyph glyph-name="dotlessi" unicode="&#x131;" horiz-adv-x="259" 
d="M39 0v507h181v-507h-181z" />
    <glyph glyph-name="IJ" unicode="&#x132;" horiz-adv-x="889" 
d="M39 0zM39 0v675h186v-675h-186zM278 0v149h305q45 0 67.5 22.5t22.5 54.5v449h185v-473q0 -99 -67.5 -150.5t-191.5 -51.5h-321z" />
    <glyph glyph-name="ij" unicode="&#x133;" horiz-adv-x="541" 
d="M39 0zM39 0v497h181v-497h-181zM39 564v133h181v-133h-181zM196 -190v132h36q49 0 67 15t18 54v486h182v-503q0 -53 -12 -88.5t-40 -56.5t-74.5 -30t-115.5 -9h-61zM317 564v133h182v-133h-182z" />
    <glyph glyph-name="Kcommaaccent" unicode="&#x136;" horiz-adv-x="783" 
d="M39 0zM537 0l-273 287h-42v-287h-183v675h183v-264h42l274 264h221l-334 -313l357 -362h-245zM266 -270v237h176v-63q0 -39 -11.5 -71t-32.5 -55t-49.5 -35.5t-61.5 -12.5h-21z" />
    <glyph glyph-name="kcommaaccent" unicode="&#x137;" horiz-adv-x="699" 
d="M39 0zM462 0l-209 215h-33v-215h-181v697h181v-388h33l210 198h216l-255 -235l273 -272h-235zM245 -270v237h176v-63q0 -39 -11.5 -71t-32.5 -55t-49.5 -35.5t-61.5 -12.5h-21z" />
    <glyph glyph-name="Lacute" unicode="&#x139;" horiz-adv-x="711" 
d="M39 0zM39 0v675h186v-526h475v-149h-661zM117 717l160 165h185l-159 -165h-186z" />
    <glyph glyph-name="lacute" unicode="&#x13a;" horiz-adv-x="296" 
d="M7 0zM39 0v697h181v-697h-181zM7 717l160 165h185l-159 -165h-186z" />
    <glyph glyph-name="Lcommaaccent" unicode="&#x13b;" horiz-adv-x="711" 
d="M39 0zM39 0v675h186v-526h475v-149h-661zM280 -270v237h176v-63q0 -39 -11.5 -71t-32.5 -55t-49.5 -35.5t-61.5 -12.5h-21z" />
    <glyph glyph-name="lcommaaccent" unicode="&#x13c;" horiz-adv-x="259" 
d="M39 0zM39 0v697h181v-697h-181zM42 -270v237h176v-63q0 -39 -11.5 -71t-32.5 -55t-49.5 -35.5t-61.5 -12.5h-21z" />
    <glyph glyph-name="Lcaron" unicode="&#x13d;" horiz-adv-x="711" 
d="M39 0zM39 0v675h186v-526h475v-149h-661zM297.681 540.033l125.869 230.229h145.536l-125.082 -230.229h-146.323z" />
    <glyph glyph-name="lcaron" unicode="&#x13e;" horiz-adv-x="468" 
d="M39 0zM39 0v697h181v-697h-181zM267.681 540.033l125.869 230.229h145.536l-125.082 -230.229h-146.323z" />
    <glyph glyph-name="Ldot" unicode="&#x13f;" horiz-adv-x="711" 
d="M39 0zM39 0v675h186v-526h475v-149h-661zM287 311v133h181v-133h-181z" />
    <glyph glyph-name="ldot" unicode="&#x140;" horiz-adv-x="428" 
d="M39 0zM39 0v697h181v-697h-181zM252 312v133h181v-133h-181z" />
    <glyph glyph-name="Lslash" unicode="&#x141;" horiz-adv-x="711" 
d="M39 0v675h186v-144l204 42v-138l-204 -42v-244h475v-149h-661z" />
    <glyph glyph-name="lslash" unicode="&#x142;" horiz-adv-x="401" 
d="M109 0v436l-104 -23v137l104 24v123h182v-84l106 24v-138l-106 -24v-475h-182z" />
    <glyph glyph-name="Nacute" unicode="&#x143;" horiz-adv-x="816" 
d="M39 0zM601 0v458q0 32 -25 54t-65 22h-286v-534h-186v675h488q124 0 191 -52t67 -151v-472h-184zM274 717l160 165h185l-159 -165h-186z" />
    <glyph glyph-name="nacute" unicode="&#x144;" 
d="M39 0zM536 0v273q0 24 -5 43t-17.5 33t-33.5 21.5t-53 7.5h-151q-20 0 -31.5 0.5t-24.5 2.5v-381h-181v507h420q58 0 106 -14t81.5 -42.5t52 -72.5t18.5 -105v-273h-181zM240 549l160 165h185l-159 -165h-186z" />
    <glyph glyph-name="Ncommaaccent" unicode="&#x145;" horiz-adv-x="816" 
d="M39 0zM601 0v458q0 32 -25 54t-65 22h-286v-534h-186v675h488q124 0 191 -52t67 -151v-472h-184zM320 -270v237h176v-63q0 -39 -11.5 -71t-32.5 -55t-49.5 -35.5t-61.5 -12.5h-21z" />
    <glyph glyph-name="ncommaaccent" unicode="&#x146;" 
d="M39 0zM536 0v273q0 24 -5 43t-17.5 33t-33.5 21.5t-53 7.5h-151q-20 0 -31.5 0.5t-24.5 2.5v-381h-181v507h420q58 0 106 -14t81.5 -42.5t52 -72.5t18.5 -105v-273h-181zM287 -270v237h176v-63q0 -39 -11.5 -71t-32.5 -55t-49.5 -35.5t-61.5 -12.5h-21z" />
    <glyph glyph-name="Ncaron" unicode="&#x147;" horiz-adv-x="816" 
d="M39 0zM601 0v458q0 32 -25 54t-65 22h-286v-534h-186v675h488q124 0 191 -52t67 -151v-472h-184zM310 717l-132 165h156l63 -95h3l62 95h157l-132 -165h-177z" />
    <glyph glyph-name="ncaron" unicode="&#x148;" 
d="M39 0zM536 0v273q0 24 -5 43t-17.5 33t-33.5 21.5t-53 7.5h-151q-20 0 -31.5 0.5t-24.5 2.5v-381h-181v507h420q58 0 106 -14t81.5 -42.5t52 -72.5t18.5 -105v-273h-181zM276 549l-132 165h156l63 -95h3l62 95h157l-132 -165h-177z" />
    <glyph glyph-name="Eng" unicode="&#x14a;" horiz-adv-x="816" 
d="M483 -190v132h34q49 0 66.5 15t17.5 54v447q0 32 -25 54t-65 22h-286v-534h-186v675h488q124 0 191 -52t67 -151v-478q0 -53 -12 -88.5t-40 -56.5t-74.5 -30t-115.5 -9h-60z" />
    <glyph glyph-name="eng" unicode="&#x14b;" 
d="M415 -190v132h34q49 0 68 15t19 54v262q0 24 -5 43t-17.5 33t-33.5 21.5t-53 7.5h-151q-20 0 -31.5 0.5t-24.5 2.5v-381h-181v507h420q58 0 106 -14t81.5 -42.5t52 -72.5t18.5 -105v-279q0 -53 -12 -88.5t-40 -56.5t-74.5 -30t-115.5 -9h-60z" />
    <glyph glyph-name="Omacron" unicode="&#x14c;" horiz-adv-x="908" 
d="M25 0zM383 0q-176 0 -267 86.5t-91 250.5q0 165 91 251.5t267 86.5h142q176 0 267 -86.5t91 -251.5q0 -164 -91 -250.5t-267 -86.5h-142zM492 133q64 0 103.5 17t61.5 45.5t30 65t8 76.5t-8 76.5t-30 65t-61.5 45.5t-103.5 17h-87q-60 0 -97.5 -17t-58.5 -45.5t-28.5 -65
t-7.5 -76.5t7.5 -76.5t28.5 -65t58.5 -45.5t97.5 -17h87zM154 736v119h600v-119h-600z" />
    <glyph glyph-name="omacron" unicode="&#x14d;" 
d="M25 0zM316 0q-143 0 -217 65t-74 189q0 123 74 188t217 65h116q143 0 217 -65t74 -188q0 -124 -74 -189t-217 -65h-116zM406 129q44 0 71 10.5t42 28t20.5 40t5.5 46.5t-5.5 46t-20.5 39.5t-42 28t-71 10.5h-72q-41 0 -66.5 -10.5t-39.5 -28t-19.5 -39.5t-5.5 -46
t5.5 -46.5t19.5 -40t39.5 -28t66.5 -10.5h72zM74 568v119h600v-119h-600z" />
    <glyph glyph-name="Obreve" unicode="&#x14e;" horiz-adv-x="908" 
d="M25 0zM383 0q-176 0 -267 86.5t-91 250.5q0 165 91 251.5t267 86.5h142q176 0 267 -86.5t91 -251.5q0 -164 -91 -250.5t-267 -86.5h-142zM492 133q64 0 103.5 17t61.5 45.5t30 65t8 76.5t-8 76.5t-30 65t-61.5 45.5t-103.5 17h-87q-60 0 -97.5 -17t-58.5 -45.5t-28.5 -65
t-7.5 -76.5t7.5 -76.5t28.5 -65t58.5 -45.5t97.5 -17h87zM421 723q-103 0 -155.5 40.5t-52.5 118.5h127q0 -15 4 -29t14.5 -24.5t29 -17t47.5 -6.5h32q31 0 50 6.5t30 17t15.5 24.5t4.5 29h127q-1 -78 -53.5 -118.5t-155.5 -40.5h-64z" />
    <glyph glyph-name="obreve" unicode="&#x14f;" 
d="M25 0zM316 0q-143 0 -217 65t-74 189q0 123 74 188t217 65h116q143 0 217 -65t74 -188q0 -124 -74 -189t-217 -65h-116zM406 129q44 0 71 10.5t42 28t20.5 40t5.5 46.5t-5.5 46t-20.5 39.5t-42 28t-71 10.5h-72q-41 0 -66.5 -10.5t-39.5 -28t-19.5 -39.5t-5.5 -46
t5.5 -46.5t19.5 -40t39.5 -28t66.5 -10.5h72zM342 555q-103 0 -155.5 40.5t-52.5 118.5h127q0 -15 4 -29t14.5 -24.5t29 -17t47.5 -6.5h32q31 0 50 6.5t30 17t15.5 24.5t4.5 29h127q-1 -78 -53.5 -118.5t-155.5 -40.5h-64z" />
    <glyph glyph-name="Ohungarumlaut" unicode="&#x150;" horiz-adv-x="908" 
d="M25 0zM383 0q-176 0 -267 86.5t-91 250.5q0 165 91 251.5t267 86.5h142q176 0 267 -86.5t91 -251.5q0 -164 -91 -250.5t-267 -86.5h-142zM492 133q64 0 103.5 17t61.5 45.5t30 65t8 76.5t-8 76.5t-30 65t-61.5 45.5t-103.5 17h-87q-60 0 -97.5 -17t-58.5 -45.5t-28.5 -65
t-7.5 -76.5t7.5 -76.5t28.5 -65t58.5 -45.5t97.5 -17h87zM463 717l160 165h185l-159 -165h-186zM195 717l160 165h185l-159 -165h-186z" />
    <glyph glyph-name="ohungarumlaut" unicode="&#x151;" 
d="M25 0zM316 0q-143 0 -217 65t-74 189q0 123 74 188t217 65h116q143 0 217 -65t74 -188q0 -124 -74 -189t-217 -65h-116zM406 129q44 0 71 10.5t42 28t20.5 40t5.5 46.5t-5.5 46t-20.5 39.5t-42 28t-71 10.5h-72q-41 0 -66.5 -10.5t-39.5 -28t-19.5 -39.5t-5.5 -46
t5.5 -46.5t19.5 -40t39.5 -28t66.5 -10.5h72zM383 549l160 165h185l-159 -165h-186zM115 549l160 165h185l-159 -165h-186z" />
    <glyph glyph-name="OE" unicode="&#x152;" horiz-adv-x="1371" 
d="M965 0q-139 0 -214 76q-91 -76 -255 -76h-113q-176 0 -267 86.5t-91 250.5q0 165 91 251.5t267 86.5h113q82 0 146 -20t109 -58q76 78 214 78h372v-138h-346q-35 0 -59.5 -9t-40.5 -25.5t-24.5 -41.5t-11.5 -56h478v-130h-479q6 -66 36 -101.5t101 -35.5h346v-138h-372z
M464 133q63 0 103 17t62 45.5t30 65t8 76.5t-8 76.5t-30 65t-62 45.5t-103 17h-59q-60 0 -97.5 -17t-58.5 -45.5t-28.5 -65t-7.5 -76.5t7.5 -76.5t28.5 -65t58.5 -45.5t97.5 -17h59z" />
    <glyph glyph-name="oe" unicode="&#x153;" horiz-adv-x="1161" 
d="M775 0q-122 0 -183 45q-71 -45 -189 -45h-87q-143 0 -217 65t-74 189q0 123 74 188t217 65h87q59 0 105 -11.5t81 -32.5q60 44 186 44h180q95 0 141.5 -40.5t46.5 -114.5t-38 -108t-102 -34h-310q6 -49 30 -67.5t80 -18.5h314v-124h-342zM377 129q44 0 71.5 10.5t42.5 28
t20 40t5 46.5t-5 46t-20 39.5t-42.5 28t-71.5 10.5h-43q-41 0 -66.5 -10.5t-39.5 -28t-19.5 -39.5t-5.5 -46t5.5 -46.5t19.5 -40t39.5 -28t66.5 -10.5h43zM803 399q-57 0 -81 -19.5t-29 -65.5h231q49 0 49 42q0 43 -49 43h-121z" />
    <glyph glyph-name="Racute" unicode="&#x154;" horiz-adv-x="834" 
d="M39 0zM611 0l-156 224h-233v-224h-183v675h494q71 0 121 -13.5t81.5 -41.5t45.5 -70.5t14 -100.5q0 -88 -35 -137.5t-112 -71.5l183 -240h-220zM222 534v-176h303q46 0 65 17.5t19 71.5q0 27 -4.5 43.5t-14.5 26.5t-26 13.5t-39 3.5h-303zM274 717l160 165h185l-159 -165
h-186z" />
    <glyph glyph-name="racute" unicode="&#x155;" horiz-adv-x="459" 
d="M31 0zM31 0v286q0 116 65.5 168.5t180.5 52.5h167v-122h-135q-55 0 -75.5 -25.5t-20.5 -73.5v-286h-182zM144 549l160 165h185l-159 -165h-186z" />
    <glyph glyph-name="Rcommaaccent" unicode="&#x156;" horiz-adv-x="834" 
d="M39 0zM611 0l-156 224h-233v-224h-183v675h494q71 0 121 -13.5t81.5 -41.5t45.5 -70.5t14 -100.5q0 -88 -35 -137.5t-112 -71.5l183 -240h-220zM222 534v-176h303q46 0 65 17.5t19 71.5q0 27 -4.5 43.5t-14.5 26.5t-26 13.5t-39 3.5h-303zM313 -270v237h176v-63
q0 -39 -11.5 -71t-32.5 -55t-49.5 -35.5t-61.5 -12.5h-21z" />
    <glyph glyph-name="rcommaaccent" unicode="&#x157;" horiz-adv-x="459" 
d="M30 0zM31 0v286q0 116 65.5 168.5t180.5 52.5h167v-122h-135q-55 0 -75.5 -25.5t-20.5 -73.5v-286h-182zM30 -270v237h176v-63q0 -39 -11.5 -71t-32.5 -55t-49.5 -35.5t-61.5 -12.5h-21z" />
    <glyph glyph-name="Rcaron" unicode="&#x158;" horiz-adv-x="834" 
d="M39 0zM611 0l-156 224h-233v-224h-183v675h494q71 0 121 -13.5t81.5 -41.5t45.5 -70.5t14 -100.5q0 -88 -35 -137.5t-112 -71.5l183 -240h-220zM222 534v-176h303q46 0 65 17.5t19 71.5q0 27 -4.5 43.5t-14.5 26.5t-26 13.5t-39 3.5h-303zM310 717l-132 165h156l63 -95h3
l62 95h157l-132 -165h-177z" />
    <glyph glyph-name="rcaron" unicode="&#x159;" horiz-adv-x="459" 
d="M31 0zM31 0v286q0 116 65.5 168.5t180.5 52.5h167v-122h-135q-55 0 -75.5 -25.5t-20.5 -73.5v-286h-182zM180 549l-132 165h156l63 -95h3l62 95h157l-132 -165h-177z" />
    <glyph glyph-name="Sacute" unicode="&#x15a;" horiz-adv-x="791" 
d="M19 0zM35 0v125h466q22 0 38 3t25.5 11.5t14 23.5t4.5 38q0 47 -18.5 62t-63.5 15h-213q-74 0 -125 12t-83 36.5t-46.5 61.5t-14.5 88t14.5 88t46.5 62t83 37t125 12h456v-126h-456q-44 0 -63 -14t-19 -60q0 -23 4.5 -38t14.5 -23.5t25.5 -11.5t37.5 -3h213
q73 0 124.5 -12t83.5 -36.5t46.5 -62.5t14.5 -89t-14.5 -88.5t-46.5 -62t-83.5 -36.5t-124.5 -12h-466zM290 717l160 165h185l-159 -165h-186z" />
    <glyph glyph-name="sacute" unicode="&#x15b;" horiz-adv-x="647" 
d="M17 0zM31 0v124h378q26 0 37.5 9t11.5 30q0 20 -11.5 28t-37.5 8h-207q-95 0 -140 41t-45 117q0 77 45 113.5t140 36.5h410v-122h-372q-28 0 -39.5 -7t-11.5 -30t11.5 -30.5t39.5 -7.5h223q48 0 80.5 -11t52.5 -31.5t28.5 -50.5t8.5 -68t-9 -66t-30 -46.5t-56.5 -27.5
t-87.5 -9h-419zM218 549l160 165h185l-159 -165h-186z" />
    <glyph glyph-name="Scedilla" unicode="&#x15e;" horiz-adv-x="791" 
d="M19 0zM35 0v125h466q22 0 38 3t25.5 11.5t14 23.5t4.5 38q0 47 -18.5 62t-63.5 15h-213q-74 0 -125 12t-83 36.5t-46.5 61.5t-14.5 88t14.5 88t46.5 62t83 37t125 12h456v-126h-456q-44 0 -63 -14t-19 -60q0 -23 4.5 -38t14.5 -23.5t25.5 -11.5t37.5 -3h213
q73 0 124.5 -12t83.5 -36.5t46.5 -62.5t14.5 -89t-14.5 -88.5t-46.5 -62t-83.5 -36.5t-124.5 -12h-466zM307 -270v237h176v-63q0 -39 -11.5 -71t-32.5 -55t-49.5 -35.5t-61.5 -12.5h-21z" />
    <glyph glyph-name="scedilla" unicode="&#x15f;" horiz-adv-x="647" 
d="M17 0zM31 0v124h378q26 0 37.5 9t11.5 30q0 20 -11.5 28t-37.5 8h-207q-95 0 -140 41t-45 117q0 77 45 113.5t140 36.5h410v-122h-372q-28 0 -39.5 -7t-11.5 -30t11.5 -30.5t39.5 -7.5h223q48 0 80.5 -11t52.5 -31.5t28.5 -50.5t8.5 -68t-9 -66t-30 -46.5t-56.5 -27.5
t-87.5 -9h-419zM236 -270v237h176v-63q0 -39 -11.5 -71t-32.5 -55t-49.5 -35.5t-61.5 -12.5h-21z" />
    <glyph glyph-name="Scaron" unicode="&#x160;" horiz-adv-x="791" 
d="M19 0zM35 0v125h466q22 0 38 3t25.5 11.5t14 23.5t4.5 38q0 47 -18.5 62t-63.5 15h-213q-74 0 -125 12t-83 36.5t-46.5 61.5t-14.5 88t14.5 88t46.5 62t83 37t125 12h456v-126h-456q-44 0 -63 -14t-19 -60q0 -23 4.5 -38t14.5 -23.5t25.5 -11.5t37.5 -3h213
q73 0 124.5 -12t83.5 -36.5t46.5 -62.5t14.5 -89t-14.5 -88.5t-46.5 -62t-83.5 -36.5t-124.5 -12h-466zM326 717l-132 165h156l63 -95h3l62 95h157l-132 -165h-177z" />
    <glyph glyph-name="scaron" unicode="&#x161;" horiz-adv-x="647" 
d="M17 0zM31 0v124h378q26 0 37.5 9t11.5 30q0 20 -11.5 28t-37.5 8h-207q-95 0 -140 41t-45 117q0 77 45 113.5t140 36.5h410v-122h-372q-28 0 -39.5 -7t-11.5 -30t11.5 -30.5t39.5 -7.5h223q48 0 80.5 -11t52.5 -31.5t28.5 -50.5t8.5 -68t-9 -66t-30 -46.5t-56.5 -27.5
t-87.5 -9h-419zM247 549l-132 165h156l63 -95h3l62 95h157l-132 -165h-177z" />
    <glyph glyph-name="Tcommaaccent" unicode="&#x162;" horiz-adv-x="802" 
d="M14 0zM308 0v537h-294v138h775v-138h-294v-537h-187zM313 -270v237h176v-63q0 -39 -11.5 -71t-32.5 -55t-49.5 -35.5t-61.5 -12.5h-21z" />
    <glyph glyph-name="tcommaaccent" unicode="&#x163;" horiz-adv-x="381" 
d="M31 0zM288 0q-75 0 -124.5 7.5t-79 27.5t-41.5 55t-12 90v507h182v-180h153v-122h-153v-195q0 -20 4.5 -33t15.5 -21t29 -11.5t46 -3.5h46v-121h-66zM103 -270v237h176v-63q0 -39 -11.5 -71t-32.5 -55t-49.5 -35.5t-61.5 -12.5h-21z" />
    <glyph glyph-name="Tcaron" unicode="&#x164;" horiz-adv-x="802" 
d="M14 0zM308 0v537h-294v138h775v-138h-294v-537h-187zM312 717l-132 165h156l63 -95h3l62 95h157l-132 -165h-177z" />
    <glyph glyph-name="tcaron" unicode="&#x165;" horiz-adv-x="484" 
d="M31 0zM288 0q-75 0 -124.5 7.5t-79 27.5t-41.5 55t-12 90v507h182v-180h153v-122h-153v-195q0 -20 4.5 -33t15.5 -21t29 -11.5t46 -3.5h46v-121h-66zM286.681 540.033l125.869 230.229h145.536l-125.082 -230.229h-146.323z" />
    <glyph glyph-name="Tbar" unicode="&#x166;" horiz-adv-x="802" 
d="M308 0v338h-148v119h148v80h-294v138h775v-138h-294v-80h147v-119h-147v-338h-187z" />
    <glyph glyph-name="tbar" unicode="&#x167;" horiz-adv-x="381" 
d="M288 0q-75 0 -124.5 7.5t-79 27.5t-41.5 55t-12 90v507h182v-180h153v-122h-153v-66h149v-118h-149v-11q0 -20 4.5 -33t15.5 -21t29 -11.5t46 -3.5h46v-121h-66z" />
    <glyph glyph-name="Utilde" unicode="&#x168;" horiz-adv-x="803" 
d="M31 0zM289 0q-124 0 -191 51.5t-67 150.5v473h187v-455q0 -32 21 -54t69 -22h271v531h186v-675h-476zM102 736v119h600v-119h-600z" />
    <glyph glyph-name="utilde" unicode="&#x169;" horiz-adv-x="736" 
d="M31 0zM289 0q-59 0 -106.5 13.5t-81.5 42t-52 73t-18 105.5v273h182v-273q0 -48 22.5 -76.5t85.5 -28.5h139q21 0 32.5 -1t23.5 -3v382h183v-507h-410zM69 568v119h600v-119h-600z" />
    <glyph glyph-name="Umacron" unicode="&#x16a;" horiz-adv-x="803" 
d="M31 0zM289 0q-124 0 -191 51.5t-67 150.5v473h187v-455q0 -32 21 -54t69 -22h271v531h186v-675h-476zM102 736v119h600v-119h-600z" />
    <glyph glyph-name="umacron" unicode="&#x16b;" horiz-adv-x="736" 
d="M31 0zM289 0q-59 0 -106.5 13.5t-81.5 42t-52 73t-18 105.5v273h182v-273q0 -48 22.5 -76.5t85.5 -28.5h139q21 0 32.5 -1t23.5 -3v382h183v-507h-410zM69 568v119h600v-119h-600z" />
    <glyph glyph-name="Ubreve" unicode="&#x16c;" horiz-adv-x="803" 
d="M31 0zM289 0q-124 0 -191 51.5t-67 150.5v473h187v-455q0 -32 21 -54t69 -22h271v531h186v-675h-476zM370 723q-103 0 -155.5 40.5t-52.5 118.5h127q0 -15 4 -29t14.5 -24.5t29 -17t47.5 -6.5h32q31 0 50 6.5t30 17t15.5 24.5t4.5 29h127q-1 -78 -53.5 -118.5
t-155.5 -40.5h-64z" />
    <glyph glyph-name="ubreve" unicode="&#x16d;" horiz-adv-x="736" 
d="M31 0zM289 0q-59 0 -106.5 13.5t-81.5 42t-52 73t-18 105.5v273h182v-273q0 -48 22.5 -76.5t85.5 -28.5h139q21 0 32.5 -1t23.5 -3v382h183v-507h-410zM336 555q-103 0 -155.5 40.5t-52.5 118.5h127q0 -15 4 -29t14.5 -24.5t29 -17t47.5 -6.5h32q31 0 50 6.5t30 17
t15.5 24.5t4.5 29h127q-1 -78 -53.5 -118.5t-155.5 -40.5h-64z" />
    <glyph glyph-name="Uring" unicode="&#x16e;" horiz-adv-x="803" 
d="M31 0zM289 0q-124 0 -191 51.5t-67 150.5v473h187v-455q0 -32 21 -54t69 -22h271v531h186v-675h-476zM381 686q-51 0 -76.5 25.5t-25.5 73.5q0 97 102 97h40q103 0 103 -97q0 -48 -26 -73.5t-77 -25.5h-40zM411 741q27 0 34.5 13.5t7.5 30.5q0 16 -7.5 28.5t-34.5 12.5
h-23q-24 0 -32 -12.5t-8 -28.5q0 -17 8 -30.5t32 -13.5h23z" />
    <glyph glyph-name="uring" unicode="&#x16f;" horiz-adv-x="736" 
d="M31 0zM289 0q-59 0 -106.5 13.5t-81.5 42t-52 73t-18 105.5v273h182v-273q0 -48 22.5 -76.5t85.5 -28.5h139q21 0 32.5 -1t23.5 -3v382h183v-507h-410zM348 518q-51 0 -76.5 25.5t-25.5 73.5q0 97 102 97h40q103 0 103 -97q0 -48 -26 -73.5t-77 -25.5h-40zM378 573
q27 0 34.5 13.5t7.5 30.5q0 16 -7.5 28.5t-34.5 12.5h-23q-24 0 -32 -12.5t-8 -28.5q0 -17 8 -30.5t32 -13.5h23z" />
    <glyph glyph-name="Uhungarumlaut" unicode="&#x170;" horiz-adv-x="803" 
d="M31 0zM289 0q-124 0 -191 51.5t-67 150.5v473h187v-455q0 -32 21 -54t69 -22h271v531h186v-675h-476zM412 717l160 165h185l-159 -165h-186zM144 717l160 165h185l-159 -165h-186z" />
    <glyph glyph-name="uhungarumlaut" unicode="&#x171;" horiz-adv-x="736" 
d="M31 0zM289 0q-59 0 -106.5 13.5t-81.5 42t-52 73t-18 105.5v273h182v-273q0 -48 22.5 -76.5t85.5 -28.5h139q21 0 32.5 -1t23.5 -3v382h183v-507h-410zM378 549l160 165h185l-159 -165h-186zM110 549l160 165h185l-159 -165h-186z" />
    <glyph glyph-name="Uogonek" unicode="&#x172;" horiz-adv-x="803" 
d="M633 -318q-102 0 -147 34.5t-45 109.5q0 50 23.5 82.5t82.5 58.5l72 33h-330q-124 0 -191 51.5t-67 150.5v473h187v-455q0 -32 21 -54t69 -22h271v531h186v-675l-112 -67q-20 -11 -31.5 -29t-11.5 -38q0 -10 3.5 -21t12 -20.5t23 -15.5t35.5 -6h81v-121h-132z" />
    <glyph glyph-name="uogonek" unicode="&#x173;" horiz-adv-x="736" 
d="M566 -318q-102 0 -147 34.5t-45 109.5q0 50 23.5 82.5t82.5 58.5l72 33h-263q-59 0 -106.5 13.5t-81.5 42t-52 73t-18 105.5v273h182v-273q0 -48 22.5 -76.5t85.5 -28.5h139q21 0 32.5 -1t23.5 -3v382h183v-507l-113 -67q-19 -11 -31 -29t-12 -38q0 -10 3.5 -21
t12.5 -20.5t23 -15.5t35 -6h82v-121h-133z" />
    <glyph glyph-name="Wcircumflex" unicode="&#x174;" horiz-adv-x="1244" 
d="M6 0zM777 0l-106 337q-13 42 -25.5 85t-23.5 86h-3q-10 -43 -23 -85.5t-27 -85.5l-111 -337h-236l-216 675h196l101 -338q14 -45 26 -92.5t22 -91.5h5q10 44 24.5 91.5t28.5 92.5l108 338h218l104 -338q14 -47 27 -93.5t24 -90.5h3q10 44 23.5 90t28.5 94l101 338h193
l-224 -675h-238zM686 717l-62 96h-5l-61 -96h-156l132 165h177l132 -165h-157z" />
    <glyph glyph-name="wcircumflex" unicode="&#x175;" horiz-adv-x="1116" 
d="M6 0zM685 0l-84 253q-11 32 -21 64.5t-19 64.5h-4q-8 -32 -17.5 -64t-20.5 -65l-89 -253h-245l-179 507h190l81 -254q11 -35 21 -70.5t18 -68.5h4q8 33 19 69.5t23 69.5l86 254h233l83 -254q10 -35 20.5 -70.5t18.5 -68.5h4q8 33 18 68.5t23 70.5l80 254h182l-180 -507
h-245zM622 549l-62 96h-5l-61 -96h-156l132 165h177l132 -165h-157z" />
    <glyph glyph-name="Ycircumflex" unicode="&#x176;" horiz-adv-x="800" 
d="M2 0zM305 0v258l-303 417h199l199 -282l197 282h201l-306 -417v-258h-187zM464 717l-62 96h-5l-61 -96h-156l132 165h177l132 -165h-157z" />
    <glyph glyph-name="ycircumflex" unicode="&#x177;" horiz-adv-x="745" 
d="M3 0zM155 -190l128 223l-280 474h192l97 -170q30 -51 47.5 -84t30.5 -65h5q11 32 30 65t48 84l96 170h192l-396 -697h-190zM436 549l-62 96h-5l-61 -96h-156l132 165h177l132 -165h-157z" />
    <glyph glyph-name="Ydieresis" unicode="&#x178;" horiz-adv-x="800" 
d="M2 0zM305 0v258l-303 417h199l199 -282l197 282h201l-306 -417v-258h-187zM442 732v133h183v-133h-183zM176 732v133h181v-133h-181z" />
    <glyph glyph-name="Zacute" unicode="&#x179;" horiz-adv-x="800" 
d="M29 0zM29 0v161l305 244q47 37 77.5 61t50 38.5t29.5 21.5t16 10l-1 5q-6 -1 -18.5 -2t-37 -1.5t-63.5 -1t-99 -0.5h-259v139h737v-128l-331 -268q-47 -38 -77.5 -62t-50 -38.5t-29.5 -21.5t-16 -10l2 -6q6 1 18.5 2.5t36.5 2t63.5 1t99.5 0.5h284v-147h-737zM285 717
l160 165h185l-159 -165h-186z" />
    <glyph glyph-name="zacute" unicode="&#x17a;" horiz-adv-x="672" 
d="M29 0zM29 0v121l221 168q21 16 41.5 31.5t38 28t29.5 20.5t16 10v4q-10 -2 -54 -3.5t-104 -1.5h-188v129h618v-96l-239 -190q-57 -45 -86.5 -66.5t-38.5 -25.5l1 -5q10 3 49.5 4t107.5 1h206v-129h-618zM221 549l160 165h185l-159 -165h-186z" />
    <glyph glyph-name="Zdotaccent" unicode="&#x17b;" horiz-adv-x="800" 
d="M29 0zM29 0v161l305 244q47 37 77.5 61t50 38.5t29.5 21.5t16 10l-1 5q-6 -1 -18.5 -2t-37 -1.5t-63.5 -1t-99 -0.5h-259v139h737v-128l-331 -268q-47 -38 -77.5 -62t-50 -38.5t-29.5 -21.5t-16 -10l2 -6q6 1 18.5 2.5t36.5 2t63.5 1t99.5 0.5h284v-147h-737zM318 732
v133h181v-133h-181z" />
    <glyph glyph-name="zdotaccent" unicode="&#x17c;" horiz-adv-x="672" 
d="M29 0zM29 0v121l221 168q21 16 41.5 31.5t38 28t29.5 20.5t16 10v4q-10 -2 -54 -3.5t-104 -1.5h-188v129h618v-96l-239 -190q-57 -45 -86.5 -66.5t-38.5 -25.5l1 -5q10 3 49.5 4t107.5 1h206v-129h-618zM256 564v133h181v-133h-181z" />
    <glyph glyph-name="Zcaron" unicode="&#x17d;" horiz-adv-x="800" 
d="M29 0zM29 0v161l305 244q47 37 77.5 61t50 38.5t29.5 21.5t16 10l-1 5q-6 -1 -18.5 -2t-37 -1.5t-63.5 -1t-99 -0.5h-259v139h737v-128l-331 -268q-47 -38 -77.5 -62t-50 -38.5t-29.5 -21.5t-16 -10l2 -6q6 1 18.5 2.5t36.5 2t63.5 1t99.5 0.5h284v-147h-737zM312 717
l-132 165h156l63 -95h3l62 95h157l-132 -165h-177z" />
    <glyph glyph-name="zcaron" unicode="&#x17e;" horiz-adv-x="672" 
d="M29 0zM29 0v121l221 168q21 16 41.5 31.5t38 28t29.5 20.5t16 10v4q-10 -2 -54 -3.5t-104 -1.5h-188v129h618v-96l-239 -190q-57 -45 -86.5 -66.5t-38.5 -25.5l1 -5q10 3 49.5 4t107.5 1h206v-129h-618zM252 549l-132 165h156l63 -95h3l62 95h157l-132 -165h-177z" />
    <glyph glyph-name="florin" unicode="&#x192;" horiz-adv-x="553" 
d="M375 305l-71 -328q-10 -49 -29 -81.5t-52 -51.5t-82 -26.5t-120 -7.5h-21v120h27q49 0 70.5 15.5t30.5 54.5l106 507q12 49 31.5 81t52 51.5t81 27.5t119.5 8h21v-121h-27q-49 0 -70.5 -15t-30.5 -56l-12 -56h134v-122h-158z" />
    <glyph glyph-name="Scommaaccent" unicode="&#x218;" horiz-adv-x="791" 
d="M19 0zM35 0v125h466q22 0 38 3t25.5 11.5t14 23.5t4.5 38q0 47 -18.5 62t-63.5 15h-213q-74 0 -125 12t-83 36.5t-46.5 61.5t-14.5 88t14.5 88t46.5 62t83 37t125 12h456v-126h-456q-44 0 -63 -14t-19 -60q0 -23 4.5 -38t14.5 -23.5t25.5 -11.5t37.5 -3h213
q73 0 124.5 -12t83.5 -36.5t46.5 -62.5t14.5 -89t-14.5 -88.5t-46.5 -62t-83.5 -36.5t-124.5 -12h-466zM307 -270v237h176v-63q0 -39 -11.5 -71t-32.5 -55t-49.5 -35.5t-61.5 -12.5h-21z" />
    <glyph glyph-name="scommaaccent" unicode="&#x219;" horiz-adv-x="647" 
d="M17 0zM31 0v124h378q26 0 37.5 9t11.5 30q0 20 -11.5 28t-37.5 8h-207q-95 0 -140 41t-45 117q0 77 45 113.5t140 36.5h410v-122h-372q-28 0 -39.5 -7t-11.5 -30t11.5 -30.5t39.5 -7.5h223q48 0 80.5 -11t52.5 -31.5t28.5 -50.5t8.5 -68t-9 -66t-30 -46.5t-56.5 -27.5
t-87.5 -9h-419zM236 -270v237h176v-63q0 -39 -11.5 -71t-32.5 -55t-49.5 -35.5t-61.5 -12.5h-21z" />
    <glyph glyph-name="uni021A" unicode="&#x21a;" horiz-adv-x="802" 
d="M14 0zM308 0v537h-294v138h775v-138h-294v-537h-187zM313 -270v237h176v-63q0 -39 -11.5 -71t-32.5 -55t-49.5 -35.5t-61.5 -12.5h-21z" />
    <glyph glyph-name="uni021B" unicode="&#x21b;" horiz-adv-x="381" 
d="M31 0zM288 0q-75 0 -124.5 7.5t-79 27.5t-41.5 55t-12 90v507h182v-180h153v-122h-153v-195q0 -20 4.5 -33t15.5 -21t29 -11.5t46 -3.5h46v-121h-66zM103 -270v237h176v-63q0 -39 -11.5 -71t-32.5 -55t-49.5 -35.5t-61.5 -12.5h-21z" />
    <glyph glyph-name="circumflex" unicode="&#x2c6;" horiz-adv-x="518" 
d="M323 549l-62 96h-5l-61 -96h-156l132 165h177l132 -165h-157z" />
    <glyph glyph-name="caron" unicode="&#x2c7;" horiz-adv-x="518" 
d="M171 549l-132 165h156l63 -95h3l62 95h157l-132 -165h-177z" />
    <glyph glyph-name="breve" unicode="&#x2d8;" horiz-adv-x="558" 
d="M247 555q-103 0 -155.5 40.5t-52.5 118.5h127q0 -15 4 -29t14.5 -24.5t29 -17t47.5 -6.5h32q31 0 50 6.5t30 17t15.5 24.5t4.5 29h127q-1 -78 -53.5 -118.5t-155.5 -40.5h-64z" />
    <glyph glyph-name="dotaccent" unicode="&#x2d9;" horiz-adv-x="259" 
d="M39 564v133h181v-133h-181z" />
    <glyph glyph-name="ring" unicode="&#x2da;" horiz-adv-x="321" 
d="M141 518q-51 0 -76.5 25.5t-25.5 73.5q0 97 102 97h40q103 0 103 -97q0 -48 -26 -73.5t-77 -25.5h-40zM171 573q27 0 34.5 13.5t7.5 30.5q0 16 -7.5 28.5t-34.5 12.5h-23q-24 0 -32 -12.5t-8 -28.5q0 -17 8 -30.5t32 -13.5h23z" />
    <glyph glyph-name="ogonek" unicode="&#x2db;" horiz-adv-x="401" 
d="M231 -318q-102 0 -147 34.5t-45 109.5q0 50 23.5 82.5t82.5 58.5l72 33h146l-103 -67q-19 -12 -31 -29.5t-12 -37.5q0 -10 3.5 -21t12 -20.5t23 -15.5t35.5 -6h72v-121h-132z" />
    <glyph glyph-name="tilde" unicode="&#x2dc;" horiz-adv-x="677" 
d="M39 568v119h600v-119h-600z" />
    <glyph glyph-name="hungarumlaut" unicode="&#x2dd;" horiz-adv-x="691" 
d="M307 549l160 165h185l-159 -165h-186zM39 549l160 165h185l-159 -165h-186z" />
    <glyph glyph-name="Delta" unicode="&#x394;" horiz-adv-x="850" 
d="M5 0l316 675h216l309 -675h-841zM498 337q-26 63 -46 108t-25 66h-4q-5 -21 -24.5 -66t-47.5 -108l-84 -188h312z" />
    <glyph glyph-name="Omega" unicode="&#x3a9;" horiz-adv-x="900" 
d="M571 0v187q115 61 115 194q0 31 -8 60t-30 51.5t-62 35.5t-103 13h-66q-63 0 -103 -13t-62 -35.5t-30 -51.5t-8 -60q0 -133 115 -194v-187h-304v147h188q-91 29 -138.5 92.5t-47.5 159.5q0 134 91.5 205t266.5 71h130q176 0 267 -71t91 -205q0 -96 -47.5 -159.5
t-138.5 -92.5h188v-147h-304z" />
    <glyph glyph-name="mu" unicode="&#x3bc;" horiz-adv-x="767" 
d="M220 0v-190h-181v697h181v-382q13 2 24.5 3t31.5 1h143q44 0 71 10.5t42 27.5t19.5 39.5t4.5 46.5v254h180v-254q0 -123 -73.5 -188t-216.5 -65h-226z" />
    <glyph glyph-name="pi" unicode="&#x3c0;" horiz-adv-x="754" 
d="M717 0h-181v378h-316v-378h-181v507h678v-507z" />
    <glyph glyph-name="Wgrave" unicode="&#x1e80;" horiz-adv-x="1244" 
d="M6 0zM777 0l-106 337q-13 42 -25.5 85t-23.5 86h-3q-10 -43 -23 -85.5t-27 -85.5l-111 -337h-236l-216 675h196l101 -338q14 -45 26 -92.5t22 -91.5h5q10 44 24.5 91.5t28.5 92.5l108 338h218l104 -338q14 -47 27 -93.5t24 -90.5h3q10 44 23.5 90t28.5 94l101 338h193
l-224 -675h-238zM560 717l-158 165h184l161 -165h-187z" />
    <glyph glyph-name="wgrave" unicode="&#x1e81;" horiz-adv-x="1116" 
d="M6 0zM685 0l-84 253q-11 32 -21 64.5t-19 64.5h-4q-8 -32 -17.5 -64t-20.5 -65l-89 -253h-245l-179 507h190l81 -254q11 -35 21 -70.5t18 -68.5h4q8 33 19 69.5t23 69.5l86 254h233l83 -254q10 -35 20.5 -70.5t18.5 -68.5h4q8 33 18 68.5t23 70.5l80 254h182l-180 -507
h-245zM496 549l-158 165h184l161 -165h-187z" />
    <glyph glyph-name="Wacute" unicode="&#x1e82;" horiz-adv-x="1244" 
d="M6 0zM777 0l-106 337q-13 42 -25.5 85t-23.5 86h-3q-10 -43 -23 -85.5t-27 -85.5l-111 -337h-236l-216 675h196l101 -338q14 -45 26 -92.5t22 -91.5h5q10 44 24.5 91.5t28.5 92.5l108 338h218l104 -338q14 -47 27 -93.5t24 -90.5h3q10 44 23.5 90t28.5 94l101 338h193
l-224 -675h-238zM498 717l160 165h185l-159 -165h-186z" />
    <glyph glyph-name="wacute" unicode="&#x1e83;" horiz-adv-x="1116" 
d="M6 0zM685 0l-84 253q-11 32 -21 64.5t-19 64.5h-4q-8 -32 -17.5 -64t-20.5 -65l-89 -253h-245l-179 507h190l81 -254q11 -35 21 -70.5t18 -68.5h4q8 33 19 69.5t23 69.5l86 254h233l83 -254q10 -35 20.5 -70.5t18.5 -68.5h4q8 33 18 68.5t23 70.5l80 254h182l-180 -507
h-245zM433 549l160 165h185l-159 -165h-186z" />
    <glyph glyph-name="Wdieresis" unicode="&#x1e84;" horiz-adv-x="1244" 
d="M6 0zM777 0l-106 337q-13 42 -25.5 85t-23.5 86h-3q-10 -43 -23 -85.5t-27 -85.5l-111 -337h-236l-216 675h196l101 -338q14 -45 26 -92.5t22 -91.5h5q10 44 24.5 91.5t28.5 92.5l108 338h218l104 -338q14 -47 27 -93.5t24 -90.5h3q10 44 23.5 90t28.5 94l101 338h193
l-224 -675h-238zM664 732v133h183v-133h-183zM398 732v133h181v-133h-181z" />
    <glyph glyph-name="wdieresis" unicode="&#x1e85;" horiz-adv-x="1116" 
d="M6 0zM685 0l-84 253q-11 32 -21 64.5t-19 64.5h-4q-8 -32 -17.5 -64t-20.5 -65l-89 -253h-245l-179 507h190l81 -254q11 -35 21 -70.5t18 -68.5h4q8 33 19 69.5t23 69.5l86 254h233l83 -254q10 -35 20.5 -70.5t18.5 -68.5h4q8 33 18 68.5t23 70.5l80 254h182l-180 -507
h-245zM600 564v133h183v-133h-183zM334 564v133h181v-133h-181z" />
    <glyph glyph-name="Ygrave" unicode="&#x1ef2;" horiz-adv-x="800" 
d="M2 0zM305 0v258l-303 417h199l199 -282l197 282h201l-306 -417v-258h-187zM338 717l-158 165h184l161 -165h-187z" />
    <glyph glyph-name="ygrave" unicode="&#x1ef3;" horiz-adv-x="745" 
d="M3 0zM155 -190l128 223l-280 474h192l97 -170q30 -51 47.5 -84t30.5 -65h5q11 32 30 65t48 84l96 170h192l-396 -697h-190zM310 549l-158 165h184l161 -165h-187z" />
    <glyph glyph-name="endash" unicode="&#x2013;" horiz-adv-x="615" 
d="M19 255v120h578v-120h-578z" />
    <glyph glyph-name="emdash" unicode="&#x2014;" horiz-adv-x="913" 
d="M19 255v120h874v-120h-874z" />
    <glyph glyph-name="quoteleft" unicode="&#x2018;" horiz-adv-x="237" 
d="M186 438q-33 0 -61.5 12.5t-49.5 35.5t-32.5 55t-11.5 71v63h175v-237h-20z" />
    <glyph glyph-name="quoteright" unicode="&#x2019;" horiz-adv-x="237" 
d="M31 438v237h175v-63q0 -39 -11.5 -71t-32.5 -55t-49.5 -35.5t-61.5 -12.5h-20z" />
    <glyph glyph-name="quotesinglbase" unicode="&#x201a;" horiz-adv-x="237" 
d="M31 -58v236h175v-62q0 -39 -11.5 -71t-32.5 -55t-49.5 -35.5t-61.5 -12.5h-20z" />
    <glyph glyph-name="quotedblleft" unicode="&#x201c;" horiz-adv-x="475" 
d="M31 438zM186 438q-33 0 -61.5 12.5t-49.5 35.5t-32.5 55t-11.5 71v63h175v-237h-20zM423 438q-33 0 -61.5 12.5t-49.5 35.5t-32.5 55t-11.5 71v63h175v-237h-20z" />
    <glyph glyph-name="quotedblright" unicode="&#x201d;" horiz-adv-x="475" 
d="M31 438zM31 438v237h175v-63q0 -39 -11.5 -71t-32.5 -55t-49.5 -35.5t-61.5 -12.5h-20zM268 438v237h175v-63q0 -39 -11.5 -71t-32.5 -55t-49.5 -35.5t-61.5 -12.5h-20z" />
    <glyph glyph-name="quotedblbase" unicode="&#x201e;" horiz-adv-x="475" 
d="M31 0zM31 -58v236h175v-62q0 -39 -11.5 -71t-32.5 -55t-49.5 -35.5t-61.5 -12.5h-20zM268 -58v236h175v-62q0 -39 -11.5 -71t-32.5 -55t-49.5 -35.5t-61.5 -12.5h-20z" />
    <glyph glyph-name="dagger" unicode="&#x2020;" horiz-adv-x="488" 
d="M191 0v447h-152v102h152v126h104v-126h154v-102h-154v-447h-104z" />
    <glyph glyph-name="daggerdbl" unicode="&#x2021;" horiz-adv-x="488" 
d="M295 124v-124h-104v124h-152v104h152v219h-152v102h152v126h104v-126h154v-102h-154v-219h154v-104h-154z" />
    <glyph glyph-name="bullet" unicode="&#x2022;" horiz-adv-x="381" 
d="M171 202q-66 0 -99 34t-33 98t33 98t99 34h40q65 0 98.5 -34t33.5 -98t-33.5 -98t-98.5 -34h-40z" />
    <glyph glyph-name="ellipsis" unicode="&#x2026;" horiz-adv-x="1185" 
d="M57 0zM57 0v178h203v-178h-203zM492 0v178h203v-178h-203zM927 0v178h203v-178h-203z" />
    <glyph glyph-name="perthousand" unicode="&#x2030;" horiz-adv-x="1525" 
d="M39 0zM204 301q-81 0 -123 45.5t-42 142.5q0 95 42 140.5t123 45.5h118q80 0 122 -45.5t42 -140.5q0 -97 -42 -142.5t-122 -45.5h-118zM299 388q44 0 60 21.5t16 79.5q0 55 -16 77t-60 22h-74q-43 0 -58.5 -21.5t-15.5 -77.5q0 -58 15.5 -79.5t58.5 -21.5h74zM181 0
l563 675h132l-563 -675h-132zM735 0q-81 0 -123 45.5t-42 142.5q0 95 42 140.5t123 45.5h118q80 0 122 -45.5t42 -140.5q0 -97 -42 -142.5t-122 -45.5h-118zM830 87q44 0 60 21.5t16 79.5q0 55 -16 77t-60 22h-74q-43 0 -58.5 -21.5t-15.5 -77.5q0 -58 15.5 -79.5
t58.5 -21.5h74zM1204 0q-81 0 -123 45.5t-42 142.5q0 95 42 140.5t123 45.5h118q80 0 122 -45.5t42 -140.5q0 -97 -42 -142.5t-122 -45.5h-118zM1299 87q44 0 60 21.5t16 79.5q0 55 -16 77t-60 22h-74q-43 0 -58.5 -21.5t-15.5 -77.5q0 -58 15.5 -79.5t58.5 -21.5h74z" />
    <glyph glyph-name="guilsinglleft" unicode="&#x2039;" horiz-adv-x="276" 
d="M136 93l-117 198q-4 7 -6.5 15t-2.5 17q0 8 2.5 16.5t6.5 16.5l117 198h120l-128 -227v-4l128 -230h-120z" />
    <glyph glyph-name="guilsinglright" unicode="&#x203a;" horiz-adv-x="276" 
d="M19 93l129 230v4l-129 227h121l116 -198q9 -17 9 -33q0 -9 -2.5 -17t-6.5 -15l-116 -198h-121z" />
    <glyph glyph-name="fraction" unicode="&#x2044;" horiz-adv-x="238" 
d="M-228 0l563 675h132l-563 -675h-132z" />
    <glyph glyph-name="uni2070" unicode="&#x2070;" horiz-adv-x="501" 
d="M25 301zM190 301q-81 0 -123 45.5t-42 142.5q0 95 42 140.5t123 45.5h118q80 0 122 -45.5t42 -140.5q0 -97 -42 -142.5t-122 -45.5h-118zM285 388q44 0 60 21.5t16 79.5q0 55 -16 77t-60 22h-74q-43 0 -58.5 -21.5t-15.5 -77.5q0 -58 15.5 -79.5t58.5 -21.5h74z" />
    <glyph glyph-name="uni2074" unicode="&#x2074;" horiz-adv-x="456" 
d="M33 301zM309 301v105h-130q-69 0 -107.5 29.5t-38.5 84.5v155h111v-150q0 -16 11.5 -25.5t31.5 -9.5h122v185h110v-374h-110z" />
    <glyph glyph-name="uni2075" unicode="&#x2075;" horiz-adv-x="451" 
d="M32 301zM32 301v79h239q22 0 31 7.5t9 30.5t-9 30.5t-31 7.5h-238v219h375v-79h-266v-64h134q79 0 113 -27t34 -88q0 -63 -34 -89.5t-113 -26.5h-244z" />
    <glyph glyph-name="uni2076" unicode="&#x2076;" horiz-adv-x="481" 
d="M24 301zM190 301q-81 0 -123.5 45.5t-42.5 142.5q0 95 42.5 140.5t123.5 45.5h242v-87h-221q-35 0 -51 -11.5t-22 -44.5h167q79 0 112.5 -27t33.5 -88q0 -63 -33.5 -89.5t-112.5 -26.5h-115zM135 456q4 -42 21 -59t55 -17h91q20 0 29 7.5t9 30.5t-9 30.5t-29 7.5h-167z
" />
    <glyph glyph-name="uni2077" unicode="&#x2077;" horiz-adv-x="453" 
d="M20 301zM81 301l177 243q11 14 21 26t17 18v4q-9 -2 -28 -3t-42 -1h-206v87h408v-77l-209 -297h-138z" />
    <glyph glyph-name="uni2078" unicode="&#x2078;" horiz-adv-x="489" 
d="M24 301zM156 301q-68 0 -100 30t-32 85q0 30 13 50t30 30q-13 9 -22 25.5t-9 50.5q0 20 8 38.5t24.5 33t40.5 23t56 8.5h153q33 0 57 -8.5t40 -23t24 -33t8 -38.5q0 -34 -8 -50.5t-22 -25.5q17 -10 30 -30t13 -50q0 -55 -32.5 -85t-100.5 -30h-171zM177 456
q-23 0 -31 -8.5t-8 -25.5t8 -25.5t31 -8.5h131q23 0 30.5 8.5t7.5 25.5t-7.5 25.5t-30.5 8.5h-131zM183 593q-23 0 -29.5 -8.5t-6.5 -23.5q0 -17 6.5 -25t29.5 -8h119q21 0 28.5 8t7.5 25q0 15 -7.5 23.5t-28.5 8.5h-119z" />
    <glyph glyph-name="uni2079" unicode="&#x2079;" horiz-adv-x="480" 
d="M24 301zM44 301v87h219q36 0 54 14t21 46h-167q-80 0 -113.5 28.5t-33.5 85.5t33.5 85t113.5 28h114q81 0 123 -45.5t42 -140.5q0 -97 -42 -142.5t-123 -45.5h-241zM177 596q-42 0 -42 -35q0 -22 10 -29t32 -7h163q-2 42 -20 56.5t-57 14.5h-86z" />
    <glyph glyph-name="uni2080" unicode="&#x2080;" horiz-adv-x="501" 
d="M190 0q-81 0 -123 45.5t-42 142.5q0 95 42 140.5t123 45.5h118q80 0 122 -45.5t42 -140.5q0 -97 -42 -142.5t-122 -45.5h-118zM285 87q44 0 60 21.5t16 79.5q0 55 -16 77t-60 22h-74q-43 0 -58.5 -21.5t-15.5 -77.5q0 -58 15.5 -79.5t58.5 -21.5h74z" />
    <glyph glyph-name="uni2081" unicode="&#x2081;" horiz-adv-x="226" 
d="M79 0v267q0 24 -25 24h-41v83h84q48 0 70 -22t22 -73v-279h-110z" />
    <glyph glyph-name="uni2082" unicode="&#x2082;" horiz-adv-x="442" 
d="M30 0v109q0 60 34 87t117 27h86q20 0 28.5 7.5t8.5 29.5q0 20 -8.5 26.5t-28.5 6.5h-227v81h225q82 0 116 -28.5t34 -84.5q0 -57 -34 -85.5t-116 -28.5h-84q-21 0 -30.5 -7t-9.5 -30v-31h275v-79h-386z" />
    <glyph glyph-name="uni2083" unicode="&#x2083;" horiz-adv-x="439" 
d="M32 0v87h229q23 0 31 8t8 25q0 16 -8 24.5t-31 8.5h-222v77h214q23 0 30.5 7t7.5 24q0 15 -7.5 23t-30.5 8h-220v82h237q65 0 96 -30.5t31 -70.5q0 -32 -7 -50.5t-21 -27.5q18 -10 30 -30t12 -50q0 -55 -31.5 -85t-99.5 -30h-248z" />
    <glyph glyph-name="uni2084" unicode="&#x2084;" horiz-adv-x="456" 
d="M309 0v105h-130q-69 0 -107.5 29.5t-38.5 84.5v155h111v-150q0 -16 11.5 -25.5t31.5 -9.5h122v185h110v-374h-110z" />
    <glyph glyph-name="uni2085" unicode="&#x2085;" horiz-adv-x="451" 
d="M32 0v79h239q22 0 31 7.5t9 30.5t-9 30.5t-31 7.5h-238v219h375v-79h-266v-64h134q79 0 113 -27t34 -88q0 -63 -34 -89.5t-113 -26.5h-244z" />
    <glyph glyph-name="uni2086" unicode="&#x2086;" horiz-adv-x="481" 
d="M190 0q-81 0 -123.5 45.5t-42.5 142.5q0 95 42.5 140.5t123.5 45.5h242v-87h-221q-35 0 -51 -11.5t-22 -44.5h167q79 0 112.5 -27t33.5 -88q0 -63 -33.5 -89.5t-112.5 -26.5h-115zM135 155q4 -42 21 -59t55 -17h91q20 0 29 7.5t9 30.5t-9 30.5t-29 7.5h-167z" />
    <glyph glyph-name="uni2087" unicode="&#x2087;" horiz-adv-x="453" 
d="M81 0l177 243q11 14 21 26t17 18v4q-9 -2 -28 -3t-42 -1h-206v87h408v-77l-209 -297h-138z" />
    <glyph glyph-name="uni2088" unicode="&#x2088;" horiz-adv-x="489" 
d="M156 0q-68 0 -100 30t-32 85q0 30 13 50t30 30q-13 9 -22 25.5t-9 50.5q0 20 8 38.5t24.5 33t40.5 23t56 8.5h153q33 0 57 -8.5t40 -23t24 -33t8 -38.5q0 -34 -8 -50.5t-22 -25.5q17 -10 30 -30t13 -50q0 -55 -32.5 -85t-100.5 -30h-171zM177 155q-23 0 -31 -8.5
t-8 -25.5t8 -25.5t31 -8.5h131q23 0 30.5 8.5t7.5 25.5t-7.5 25.5t-30.5 8.5h-131zM183 292q-23 0 -29.5 -8.5t-6.5 -23.5q0 -17 6.5 -25t29.5 -8h119q21 0 28.5 8t7.5 25q0 15 -7.5 23.5t-28.5 8.5h-119z" />
    <glyph glyph-name="uni2089" unicode="&#x2089;" horiz-adv-x="480" 
d="M44 0v87h219q36 0 54 14t21 46h-167q-80 0 -113.5 28.5t-33.5 85.5t33.5 85t113.5 28h114q81 0 123 -45.5t42 -140.5q0 -97 -42 -142.5t-123 -45.5h-241zM177 295q-42 0 -42 -35q0 -22 10 -29t32 -7h163q-2 42 -20 56.5t-57 14.5h-86z" />
    <glyph glyph-name="Euro" unicode="&#x20ac;" horiz-adv-x="741" 
d="M393 0q-118 0 -190 53.5t-96 165.5h-94l19 84h65q-1 8 -1 17v17v21t1 20h-84l19 85h76q25 107 97.5 159.5t187.5 52.5h342l-64 -133h-273q-48 0 -74 -20.5t-39 -58.5h348l-40 -85h-322q-1 -10 -1 -20v-21v-17t1 -17h285l-40 -84h-235q12 -42 42.5 -64.5t87.5 -22.5h286
v-132h-304z" />
    <glyph glyph-name="uni20B9" unicode="&#x20b9;" horiz-adv-x="601" 
d="M256 0l-178 195v115h93q35 0 60.5 15.5t30.5 55.5h-253l30 108h222q-8 31 -25.5 48t-46.5 17h-180l30 121h548l-29 -121h-139q14 -28 17 -65h151l-29 -108h-120q-6 -32 -20 -60t-34.5 -50t-46 -37t-53.5 -22l192 -212h-220z" />
    <glyph glyph-name="trademark" unicode="&#x2122;" horiz-adv-x="1220" 
d="M158 303v298h-140v96h412v-96h-139v-298h-133zM1053 303v242q0 22 -18 37.5t-45 15.5h-94v-295h-128v295h-155v-295h-130v394h516q88 0 135.5 -36.5t47.5 -105.5v-252h-129z" />
    <glyph glyph-name="onethird" unicode="&#x2153;" horiz-adv-x="955" 
d="M39 0zM119 301v267q0 24 -25 24h-41v83h84q48 0 70 -22t22 -73v-279h-110zM39 0l563 675h132l-563 -675h-132zM537 0v87h229q23 0 31 8t8 25q0 16 -8 24.5t-31 8.5h-222v77h214q23 0 30.5 7t7.5 24q0 15 -7.5 23t-30.5 8h-220v82h237q65 0 96 -30.5t31 -70.5
q0 -32 -7 -50.5t-21 -27.5q18 -10 30 -30t12 -50q0 -55 -31.5 -85t-99.5 -30h-248z" />
    <glyph glyph-name="twothirds" unicode="&#x2154;" horiz-adv-x="1140" 
d="M39 0zM39 301v109q0 60 34 87t117 27h86q20 0 28.5 7.5t8.5 29.5q0 20 -8.5 26.5t-28.5 6.5h-227v81h225q82 0 116 -28.5t34 -84.5q0 -57 -34 -85.5t-116 -28.5h-84q-21 0 -30.5 -7t-9.5 -30v-31h275v-79h-386zM223 0l563 675h132l-563 -675h-132zM721 0v87h229
q23 0 31 8t8 25q0 16 -8 24.5t-31 8.5h-222v77h214q23 0 30.5 7t7.5 24q0 15 -7.5 23t-30.5 8h-220v82h237q65 0 96 -30.5t31 -70.5q0 -32 -7 -50.5t-21 -27.5q18 -10 30 -30t12 -50q0 -55 -31.5 -85t-99.5 -30h-248z" />
    <glyph glyph-name="oneeighth" unicode="&#x215b;" horiz-adv-x="936" 
d="M39 0zM119 301v267q0 24 -25 24h-41v83h84q48 0 70 -22t22 -73v-279h-110zM39 0l563 675h132l-563 -675h-132zM592 0q-68 0 -100 30t-32 85q0 30 13 50t30 30q-13 9 -22 25.5t-9 50.5q0 20 8 38.5t24.5 33t40.5 23t56 8.5h153q33 0 57 -8.5t40 -23t24 -33t8 -38.5
q0 -34 -8 -50.5t-22 -25.5q17 -10 30 -30t13 -50q0 -55 -32.5 -85t-100.5 -30h-171zM613 155q-23 0 -31 -8.5t-8 -25.5t8 -25.5t31 -8.5h131q23 0 30.5 8.5t7.5 25.5t-7.5 25.5t-30.5 8.5h-131zM619 292q-23 0 -29.5 -8.5t-6.5 -23.5q0 -17 6.5 -25t29.5 -8h119q21 0 28.5 8
t7.5 25q0 15 -7.5 23.5t-28.5 8.5h-119z" />
    <glyph glyph-name="threeeighths" unicode="&#x215c;" horiz-adv-x="1050" 
d="M39 0zM39 301v87h229q23 0 31 8t8 25q0 16 -8 24.5t-31 8.5h-222v77h214q23 0 30.5 7t7.5 24q0 15 -7.5 23t-30.5 8h-220v82h237q65 0 96 -30.5t31 -70.5q0 -32 -7 -50.5t-21 -27.5q18 -10 30 -30t12 -50q0 -55 -31.5 -85t-99.5 -30h-248zM158 0l563 675h132l-563 -675
h-132zM706 0q-68 0 -100 30t-32 85q0 30 13 50t30 30q-13 9 -22 25.5t-9 50.5q0 20 8 38.5t24.5 33t40.5 23t56 8.5h153q33 0 57 -8.5t40 -23t24 -33t8 -38.5q0 -34 -8 -50.5t-22 -25.5q17 -10 30 -30t13 -50q0 -55 -32.5 -85t-100.5 -30h-171zM727 155q-23 0 -31 -8.5
t-8 -25.5t8 -25.5t31 -8.5h131q23 0 30.5 8.5t7.5 25.5t-7.5 25.5t-30.5 8.5h-131zM733 292q-23 0 -29.5 -8.5t-6.5 -23.5q0 -17 6.5 -25t29.5 -8h119q21 0 28.5 8t7.5 25q0 15 -7.5 23.5t-28.5 8.5h-119z" />
    <glyph glyph-name="fiveeighths" unicode="&#x215d;" horiz-adv-x="1055" 
d="M39 0zM39 301v79h239q22 0 31 7.5t9 30.5t-9 30.5t-31 7.5h-238v219h375v-79h-266v-64h134q79 0 113 -27t34 -88q0 -63 -34 -89.5t-113 -26.5h-244zM165 0l563 675h132l-563 -675h-132zM712 0q-68 0 -100 30t-32 85q0 30 13 50t30 30q-13 9 -22 25.5t-9 50.5q0 20 8 38.5
t24.5 33t40.5 23t56 8.5h153q33 0 57 -8.5t40 -23t24 -33t8 -38.5q0 -34 -8 -50.5t-22 -25.5q17 -10 30 -30t13 -50q0 -55 -32.5 -85t-100.5 -30h-171zM733 155q-23 0 -31 -8.5t-8 -25.5t8 -25.5t31 -8.5h131q23 0 30.5 8.5t7.5 25.5t-7.5 25.5t-30.5 8.5h-131zM739 292
q-23 0 -29.5 -8.5t-6.5 -23.5q0 -17 6.5 -25t29.5 -8h119q21 0 28.5 8t7.5 25q0 15 -7.5 23.5t-28.5 8.5h-119z" />
    <glyph glyph-name="seveneighths" unicode="&#x215e;" horiz-adv-x="981" 
d="M38 0zM99 301l177 243q11 14 21 26t17 18v4q-9 -2 -28 -3t-42 -1h-206v87h408v-77l-209 -297h-138zM83 0l563 675h132l-563 -675h-132zM638 0q-68 0 -100 30t-32 85q0 30 13 50t30 30q-13 9 -22 25.5t-9 50.5q0 20 8 38.5t24.5 33t40.5 23t56 8.5h153q33 0 57 -8.5
t40 -23t24 -33t8 -38.5q0 -34 -8 -50.5t-22 -25.5q17 -10 30 -30t13 -50q0 -55 -32.5 -85t-100.5 -30h-171zM659 155q-23 0 -31 -8.5t-8 -25.5t8 -25.5t31 -8.5h131q23 0 30.5 8.5t7.5 25.5t-7.5 25.5t-30.5 8.5h-131zM665 292q-23 0 -29.5 -8.5t-6.5 -23.5q0 -17 6.5 -25
t29.5 -8h119q21 0 28.5 8t7.5 25q0 15 -7.5 23.5t-28.5 8.5h-119z" />
    <glyph glyph-name="partialdiff" unicode="&#x2202;" horiz-adv-x="789" 
d="M244 0q-105 0 -162 46.5t-57 142.5q0 48 21 89t62 70.5t101.5 46t139.5 16.5h236q0 5 0.5 11t0.5 12q0 52 -32 76t-95 24h-198v141h273q114 0 172.5 -51t58.5 -156q0 -84 -26 -167.5t-77 -150.5t-126 -108.5t-173 -41.5h-119zM326 289q-55 0 -82 -29.5t-27 -69.5
q0 -42 16 -53.5t51 -11.5h72q30 0 58.5 12.5t54.5 34.5t48 52t38 65h-229z" />
    <glyph glyph-name="product" unicode="&#x220f;" horiz-adv-x="898" 
d="M736 -318v1090h-574v-1090h-123v1200h821v-1200h-124z" />
    <glyph glyph-name="summation" unicode="&#x2211;" horiz-adv-x="710" 
d="M22 -318v88l419 495l-419 494v89h665v-96h-537l408 -487l-408 -486h537v-97h-665z" />
    <glyph glyph-name="minus" unicode="&#x2212;" horiz-adv-x="654" 
d="M39 277v118h576v-118h-576z" />
    <glyph glyph-name="radical" unicode="&#x221a;" horiz-adv-x="617" 
d="M234 0l-82 277h-113v118h201l70 -263h4l151 543h127l-201 -675h-157z" />
    <glyph glyph-name="infinity" unicode="&#x221e;" horiz-adv-x="1099" 
d="M776 138q-30 0 -61 11t-60.5 28.5t-56.5 39.5t-49 43q-23 -21 -50 -42.5t-56.5 -39.5t-59.5 -29t-60 -11h-85q-106 0 -159.5 51.5t-53.5 148.5q0 99 53.5 150t159.5 51h85q30 0 60.5 -11.5t59.5 -29t56 -39.5t50 -43q22 21 49 43t56.5 39.5t60.5 29t61 11.5h84
q106 0 160 -51t54 -150q0 -97 -54 -148.5t-160 -51.5h-84zM844 237q33 0 54 8.5t33 22.5t16 32t4 38t-4 38.5t-16 32.5t-33 22.5t-54 8.5h-47q-28 0 -53.5 -10t-47.5 -25t-39.5 -33t-29.5 -34q37 -46 78.5 -73.5t91.5 -27.5h47zM302 237q28 0 51.5 8.5t44.5 22.5t39 32
t34 38q-12 16 -29.5 34t-39 33t-47 25t-53.5 10h-49q-33 0 -53.5 -8.5t-32.5 -22.5t-16 -32.5t-4 -38.5t4 -38t16 -32t32.5 -22.5t53.5 -8.5h49z" />
    <glyph glyph-name="integral" unicode="&#x222b;" horiz-adv-x="435" 
d="M11 -318v111h68q34 0 55.5 18.5t21.5 60.5v820q0 43 10.5 78t34.5 60t62 38.5t94 13.5h67v-110h-67q-35 0 -56.5 -19t-21.5 -61v-820q0 -43 -10.5 -78t-34 -60t-61.5 -38.5t-93 -13.5h-69z" />
    <glyph glyph-name="approxequal" unicode="&#x2248;" horiz-adv-x="655" 
d="M39 102zM617 189q-10 -16 -26.5 -31.5t-37.5 -28t-45 -20t-48 -7.5q-41 0 -74 16t-63.5 35t-60 35t-61.5 16q-26 0 -50 -9t-45 -23.5t-38 -32.5t-29 -37v134q9 16 25.5 32t37 28.5t44.5 20t49 7.5q40 0 73.5 -16t63.5 -35.5t59.5 -35.5t63.5 -16q26 0 49.5 9t44.5 23.5
t38 33t30 37.5v-135zM617 436q-10 -16 -26.5 -31.5t-37.5 -28t-45 -20t-48 -7.5q-41 0 -74 16t-63.5 35t-60 35t-61.5 16q-26 0 -50 -9t-45 -23.5t-38 -32.5t-29 -37v134q9 16 25.5 32t37 28.5t44.5 20t49 7.5q40 0 73.5 -16t63.5 -35.5t59.5 -35.5t63.5 -16q26 0 49.5 9
t44.5 23.5t38 33t30 37.5v-135z" />
    <glyph glyph-name="notequal" unicode="&#x2260;" horiz-adv-x="654" 
d="M259 133l-88 -133h-132l87 133h-87v119h166l110 169h-276v118h354l90 136h132l-90 -136h90v-118h-168l-110 -169h278v-119h-356z" />
    <glyph glyph-name="lessequal" unicode="&#x2264;" horiz-adv-x="654" 
d="M39 0zM39 258v157l576 172v-130l-444 -119v-4l444 -119v-130zM39 -117v118h576v-118h-576z" />
    <glyph glyph-name="greaterequal" unicode="&#x2265;" horiz-adv-x="654" 
d="M39 0zM39 85v130l444 119v4l-444 119v130l576 -172v-157zM39 -117v118h576v-118h-576z" />
    <glyph glyph-name="lozenge" unicode="&#x25ca;" horiz-adv-x="435" 
d="M139 0l-100 337l100 338h157l101 -338l-101 -337h-157zM274 337l-55 205h-4l-54 -205l54 -205h4z" />
    <glyph glyph-name="glyph383" horiz-adv-x="321" 
 />
    <glyph glyph-name="glyph384" horiz-adv-x="321" 
d="M0 0z" />
    </font>
</defs>
</svg>
