<svg width="35" height="35" viewBox="0 0 35 35" fill="none" xmlns="http://www.w3.org/2000/svg">
<rect x="1.00333" y="1.32596" width="32.6418" height="32.4346" rx="16.2173" fill="white" fill-opacity="0.05" stroke="white" stroke-width="0.720769"/>
<g clip-path="url(#clip0_1_566)">
<path d="M23.8069 10.6911C22.6972 10.1937 21.5078 9.82614 20.2639 9.61712C20.2529 9.615 20.2414 9.61637 20.2311 9.62101C20.2209 9.62566 20.2123 9.63337 20.2067 9.64306C20.0543 9.90903 19.8846 10.2557 19.7657 10.5296C18.4465 10.3337 17.1053 10.3337 15.7861 10.5296C15.6536 10.2261 15.5042 9.93009 15.3386 9.64306C15.333 9.63325 15.3245 9.62537 15.3143 9.62048C15.304 9.61558 15.2925 9.61391 15.2813 9.61568C14.0382 9.8247 12.8487 10.1923 11.7383 10.6903C11.7288 10.6943 11.7207 10.7011 11.7151 10.7098C9.45809 14.0073 8.83943 17.2234 9.14332 20.3991C9.14416 20.4069 9.14659 20.4144 9.15046 20.4212C9.15432 20.428 9.15954 20.434 9.1658 20.4388C10.4832 21.3919 11.9525 22.118 13.5124 22.5866C13.5232 22.59 13.5349 22.59 13.5457 22.5866C13.5566 22.5833 13.5662 22.5768 13.5733 22.5679C13.9084 22.121 14.2072 21.6489 14.4625 21.153C14.4777 21.1242 14.4632 21.0896 14.4327 21.0781C13.9642 20.9027 13.5103 20.6911 13.075 20.4452C13.0672 20.4408 13.0606 20.4345 13.0559 20.4269C13.0511 20.4193 13.0483 20.4107 13.0477 20.4017C13.0471 20.3928 13.0488 20.3839 13.0526 20.3757C13.0563 20.3676 13.062 20.3605 13.0692 20.3551C13.1606 20.2881 13.252 20.2182 13.339 20.1483C13.3469 20.142 13.3563 20.138 13.3663 20.1367C13.3763 20.1354 13.3864 20.137 13.3956 20.1411C16.2438 21.4125 19.3283 21.4125 22.1431 20.1411C22.1523 20.1367 22.1626 20.135 22.1727 20.1361C22.1828 20.1373 22.1925 20.1412 22.2004 20.1476C22.2875 20.2182 22.3781 20.2881 22.4702 20.3551C22.4775 20.3604 22.4833 20.3674 22.4872 20.3755C22.4911 20.3835 22.4929 20.3924 22.4924 20.4014C22.492 20.4103 22.4894 20.419 22.4847 20.4266C22.4801 20.4343 22.4736 20.4407 22.4659 20.4452C22.0322 20.6932 21.581 20.9029 21.1074 21.0774C21.1002 21.08 21.0935 21.0841 21.088 21.0895C21.0825 21.0949 21.0781 21.1013 21.0753 21.1085C21.0725 21.1157 21.0713 21.1233 21.0717 21.131C21.0721 21.1387 21.0741 21.1462 21.0777 21.153C21.3388 21.6482 21.6376 22.1196 21.9662 22.5672C21.973 22.5764 21.9825 22.5832 21.9934 22.5868C22.0043 22.5905 22.0161 22.5906 22.0271 22.5874C23.5896 22.12 25.0614 21.3936 26.3802 20.4388C26.3866 20.4343 26.392 20.4285 26.396 20.4218C26.4 20.4151 26.4025 20.4076 26.4034 20.3998C26.766 16.7282 25.7956 13.5381 23.8294 10.7112C23.8246 10.7021 23.8166 10.6949 23.8069 10.6911ZM14.8882 18.4653C14.0309 18.4653 13.3238 17.6948 13.3238 16.7499C13.3238 15.8042 14.0172 15.0344 14.8882 15.0344C15.7658 15.0344 16.4664 15.8107 16.4526 16.7499C16.4526 17.6955 15.7593 18.4653 14.8882 18.4653ZM20.6723 18.4653C19.8143 18.4653 19.1079 17.6948 19.1079 16.7499C19.1079 15.8042 19.8005 15.0344 20.6723 15.0344C21.5499 15.0344 22.2505 15.8107 22.2367 16.7499C22.2367 17.6955 21.5506 18.4653 20.6723 18.4653Z" fill="white"/>
</g>
<defs>
<clipPath id="clip0_1_566">
<rect width="17.4066" height="17.2985" fill="white" transform="translate(9.07117 7.45239)"/>
</clipPath>
</defs>
</svg>
