<svg width="48" height="34" viewBox="0 0 48 34" fill="none" xmlns="http://www.w3.org/2000/svg">
<path fill-rule="evenodd" clip-rule="evenodd" d="M43.1681 8.53098C51.8266 1.54888 38.6317 -1.57732 18.489 10.6711C19.2408 9.96323 20.5452 9.02604 22.1538 8.01564C21.0423 7.91055 19.9624 7.96198 18.8443 8.22663C17.4899 8.54721 16.2112 9.12189 15.0849 9.91624C13.9585 10.7106 13.0077 11.7083 12.2894 12.8495C11.5711 13.9908 11.1 15.2521 10.9045 16.558C10.7089 17.8639 10.7928 19.1874 11.1511 20.4494C11.5095 21.7113 12.135 22.8857 12.9901 23.9022C13.6948 24.74 14.8891 25.6781 15.9676 26.3229C19.6009 24.9245 23.9403 22.6282 28.6799 19.2323C26.768 21.3257 20.2941 25.7288 15.5386 27.8031C8.93159 30.6849 -1.16037 30.5262 7.11649 22.7536C2.96057 26.6563 5.20898 28.9237 11.1388 27.7617C10.5298 27.3096 10.0421 26.7947 9.37892 26.0064C8.23355 24.6449 7.39577 23.0718 6.91575 21.3815C6.43573 19.6912 6.32335 17.9183 6.58534 16.1692C6.84732 14.42 7.47829 12.7305 8.44044 11.2019C9.40259 9.67324 10.6761 8.3369 12.1848 7.27291C13.6934 6.20893 15.4062 5.43918 17.2204 5.00977C19.0346 4.58037 20.913 4.50014 22.743 4.77389C24.1452 4.98365 25.4853 5.52258 26.0352 5.76311C28.6987 4.32707 31.6011 2.96793 34.0776 2.10321C41.7931 -0.590795 53.1891 0.450237 43.1681 8.53098Z" fill="#FF6600"/>
<path fill-rule="evenodd" clip-rule="evenodd" d="M28.4378 9.95886C24.2638 11.5334 19.2455 14.1663 13.7532 18.1015C15.9208 15.7281 23.2607 10.7359 28.6524 8.38418C36.1432 5.11686 47.5852 5.29685 38.2011 14.1092C43.171 9.44204 40.0628 6.8377 32.499 8.68287C32.8589 9.06505 34.0853 10.4008 34.6761 11.4662C35.7412 13.387 35.9909 15.0092 36.1128 16.9036C36.2347 18.798 35.9874 20.6985 35.3855 22.4913C34.7837 24.284 33.8399 25.9322 32.6104 27.3369C31.381 28.7417 29.8914 29.8742 28.2307 30.6666C26.57 31.459 24.7725 31.895 22.9458 31.9485C21.1191 32.002 19.3008 31.6719 17.5998 30.978L16.68 30.5366C14.8097 31.2912 12.909 31.9541 11.2389 32.3893C4.34785 34.185 -5.4763 32.4772 3.79694 26.1656C-4.21547 31.6191 7.02408 35.2647 25.3821 26.0472C24.6155 26.66 23.2586 27.4633 21.6058 28.304L21.9977 28.3743C23.3614 28.3344 24.7034 28.0089 25.9432 27.4173C27.1831 26.8257 28.2952 25.9802 29.2131 24.9314C30.1309 23.8826 30.8356 22.6522 31.2849 21.3138C31.7342 19.9753 31.9188 18.5565 31.8278 17.1421C31.7368 15.7278 31.5344 14.5255 30.7552 13.0827C30.1459 11.9544 29.2184 10.543 28.4378 9.95886Z" fill="#E2E2E2"/>
</svg>
