<svg width="35" height="34" viewBox="0 0 35 34" fill="none" xmlns="http://www.w3.org/2000/svg">
<rect x="1.00333" y="1.17044" width="32.6418" height="32.4346" rx="16.2173" fill="white" fill-opacity="0.05" stroke="white" stroke-width="0.720769"/>
<path d="M17.3243 15.1356C16.0766 15.1356 15.0584 16.1475 15.0584 17.3874C15.0584 18.6274 16.0766 19.6393 17.3243 19.6393C18.572 19.6393 19.5902 18.6274 19.5902 17.3874C19.5902 16.1475 18.572 15.1356 17.3243 15.1356ZM24.1203 17.3874C24.1203 16.4549 24.1288 15.5309 24.0761 14.6001C24.0234 13.5189 23.7753 12.5594 22.9797 11.7688C22.1825 10.9765 21.2187 10.7316 20.1308 10.6792C19.1924 10.6268 18.2626 10.6353 17.326 10.6353C16.3877 10.6353 15.4578 10.6268 14.5212 10.6792C13.4333 10.7316 12.4678 10.9782 11.6722 11.7688C10.875 12.5611 10.6285 13.5189 10.5758 14.6001C10.5231 15.5326 10.5316 16.4566 10.5316 17.3874C10.5316 18.3182 10.5231 19.244 10.5758 20.1748C10.6285 21.2559 10.8767 22.2154 11.6722 23.006C12.4695 23.7983 13.4333 24.0433 14.5212 24.0956C15.4595 24.148 16.3894 24.1396 17.326 24.1396C18.2643 24.1396 19.1941 24.148 20.1308 24.0956C21.2187 24.0433 22.1842 23.7966 22.9797 23.006C23.777 22.2138 24.0234 21.2559 24.0761 20.1748C24.1305 19.244 24.1203 18.3199 24.1203 17.3874ZM17.3243 20.8522C15.3949 20.8522 13.8379 19.3048 13.8379 17.3874C13.8379 15.4701 15.3949 13.9227 17.3243 13.9227C19.2536 13.9227 20.8107 15.4701 20.8107 17.3874C20.8107 19.3048 19.2536 20.8522 17.3243 20.8522ZM20.9535 14.5899C20.503 14.5899 20.1393 14.2284 20.1393 13.7808C20.1393 13.3331 20.503 12.9716 20.9535 12.9716C21.404 12.9716 21.7677 13.3331 21.7677 13.7808C21.7679 13.8871 21.7469 13.9923 21.706 14.0906C21.6651 14.1888 21.6052 14.2781 21.5295 14.3532C21.4539 14.4284 21.3641 14.488 21.2652 14.5286C21.1664 14.5692 21.0605 14.5901 20.9535 14.5899Z" fill="white"/>
</svg>
