<svg width="62" height="63" viewBox="0 0 62 63" fill="none" xmlns="http://www.w3.org/2000/svg">
<path d="M21.5039 50.4774L11.1573 60.8241L8.39726 54.2241L1.73059 51.3974L10.8506 42.2774L11.7439 42.9707C12.6976 43.4697 13.5589 44.1281 14.2906 44.9174C15.4506 46.2507 15.8506 47.9707 18.3973 49.4374C19.3537 49.9865 20.4097 50.3401 21.5039 50.4774ZM60.3973 51.3974L53.7306 54.2241L50.9039 60.8907L40.5573 50.5441C41.6515 50.4067 42.7075 50.0532 43.6639 49.5041C47.1439 47.4907 46.4373 45.2241 49.8506 43.3174C50.3255 43.037 50.7721 42.711 51.1839 42.3441L60.3973 51.3974Z" fill="#0F0E0E"/>
<path d="M17.5039 48.824L9.50392 56.824L8.37059 54.1574L5.73059 53.0907L14.1173 44.704C15.6239 46.2907 15.3839 47.2507 17.5039 48.824ZM56.3973 53.0907L53.7306 54.224L52.5973 56.8907L44.5973 48.8907C46.7573 47.2907 46.4773 46.3574 48.0239 44.7707L56.3973 53.0907Z" fill="#EFEFEF"/>
<path d="M35.2906 3.29069C36.5724 4.02892 38.0248 4.41958 39.5039 4.42402C40.9869 4.4201 42.4446 4.80761 43.7299 5.5474C45.0152 6.28719 46.0825 7.35306 46.8239 8.63736C47.5559 9.92956 48.6251 10.9987 49.9173 11.7307C51.2016 12.4722 52.2674 13.5394 53.0072 14.8247C53.747 16.11 54.1345 17.5677 54.1306 19.0507C54.135 20.5299 54.5257 21.9822 55.2639 23.264C56.0046 24.5495 56.3944 26.0071 56.3944 27.4907C56.3944 28.9743 56.0046 30.4318 55.2639 31.7174C54.5257 32.9992 54.135 34.4515 54.1306 35.9307C54.1345 37.4137 53.747 38.8714 53.0072 40.1567C52.2674 41.4419 51.2016 42.5092 49.9173 43.2507C48.6251 43.9827 47.5559 45.0518 46.8239 46.344C46.0825 47.6283 45.0152 48.6942 43.7299 49.434C42.4446 50.1738 40.9869 50.5613 39.5039 50.5574C38.0248 50.5618 36.5724 50.9525 35.2906 51.6907C34.0051 52.4313 32.5475 52.8212 31.0639 52.8212C29.5803 52.8212 28.1228 52.4313 26.8373 51.6907C25.5555 50.9525 24.1031 50.5618 22.6239 50.5574C21.141 50.5613 19.6832 50.1738 18.398 49.434C17.1127 48.6942 16.0454 47.6283 15.3039 46.344C14.572 45.0518 13.5028 43.9827 12.2106 43.2507C10.9263 42.5092 9.86043 41.4419 9.12064 40.1567C8.38085 38.8714 7.99335 37.4137 7.99727 35.9307C7.99283 34.4515 7.60216 32.9992 6.86393 31.7174C6.1233 30.4318 5.73346 28.9743 5.73346 27.4907C5.73346 26.0071 6.1233 24.5495 6.86393 23.264C7.60216 21.9822 7.99283 20.5299 7.99727 19.0507C7.99335 17.5677 8.38085 16.11 9.12064 14.8247C9.86043 13.5394 10.9263 12.4722 12.2106 11.7307C13.5028 10.9987 14.572 9.92956 15.3039 8.63736C16.0454 7.35306 17.1127 6.28719 18.398 5.5474C19.6832 4.80761 21.141 4.4201 22.6239 4.42402C24.1031 4.41958 25.5555 4.02892 26.8373 3.29069C28.1228 2.55006 29.5803 2.16022 31.0639 2.16022C32.5475 2.16022 34.0051 2.55006 35.2906 3.29069Z" fill="#0F0E0E"/>
<path d="M34.3976 8.38401C35.4111 8.96919 36.5607 9.27729 37.731 9.27734C38.9012 9.27737 40.0508 9.58543 41.0642 10.1705C42.0776 10.7557 42.9192 11.5972 43.5043 12.6107C44.0894 13.6241 44.9309 14.4656 45.9443 15.0507C46.9577 15.6358 47.7993 16.4773 48.3844 17.4908C48.9695 18.5042 49.2776 19.6538 49.2776 20.824C49.2777 21.9943 49.5858 23.1439 50.171 24.1573C50.7561 25.1708 51.0641 26.3204 51.0641 27.4907C51.0641 28.6609 50.7561 29.8105 50.171 30.824C49.5858 31.8375 49.2777 32.9871 49.2776 34.1573C49.2776 35.3276 48.9695 36.4772 48.3844 37.4906C47.7993 38.504 46.9577 39.3456 45.9443 39.9307C44.9309 40.5158 44.0894 41.3573 43.5043 42.3707C42.9192 43.3841 42.0776 44.2257 41.0642 44.8108C40.0508 45.3959 38.9012 45.704 37.731 45.704C36.5607 45.7041 35.4111 46.0122 34.3976 46.5973C33.3842 47.1825 32.2345 47.4905 31.0643 47.4905C29.894 47.4905 28.7444 47.1825 27.731 46.5973C26.7175 46.0122 25.5679 45.7041 24.3976 45.704C23.2274 45.704 22.0778 45.3959 21.0644 44.8108C20.051 44.2257 19.2094 43.3841 18.6243 42.3707C18.0392 41.3573 17.1977 40.5158 16.1843 39.9307C15.1708 39.3456 14.3293 38.504 13.7442 37.4906C13.159 36.4772 12.851 35.3276 12.851 34.1573C12.8509 32.9871 12.5428 31.8375 11.9576 30.824C11.3725 29.8105 11.0645 28.6609 11.0645 27.4907C11.0645 26.3204 11.3725 25.1708 11.9576 24.1573C12.5428 23.1439 12.8509 21.9943 12.851 20.824C12.851 19.6538 13.159 18.5042 13.7442 17.4908C14.3293 16.4773 15.1708 15.6358 16.1843 15.0507C17.1977 14.4656 18.0392 13.6241 18.6243 12.6107C19.2094 11.5972 20.051 10.7557 21.0644 10.1705C22.0778 9.58543 23.2274 9.27737 24.3976 9.27734C25.5679 9.27729 26.7175 8.96919 27.731 8.38401C28.7444 7.79889 29.894 7.49084 31.0643 7.49084C32.2345 7.49084 33.3842 7.79889 34.3976 8.38401Z" fill="#FFD9C0"/>
<path d="M61.3439 50.4507L53.1306 42.2507C54.6328 40.4872 55.4597 38.2473 55.4639 35.9307C55.4581 34.687 55.78 33.4638 56.3972 32.384C57.2497 30.8941 57.6982 29.2073 57.6982 27.4907C57.6982 25.7741 57.2497 24.0873 56.3972 22.5974C55.7707 21.5202 55.4396 20.2968 55.4372 19.0507C55.437 17.3356 54.9861 15.6507 54.1296 14.1647C53.2732 12.6787 52.0412 11.4439 50.5572 10.584C49.448 9.94685 48.5278 9.02663 47.8906 7.91738C47.0309 6.455 45.8058 5.24119 44.3355 4.39503C42.8652 3.54886 41.2003 3.0994 39.5039 3.09072C38.2602 3.09651 37.037 2.7746 35.9572 2.15738C34.4673 1.3049 32.7805 0.856445 31.0639 0.856445C29.3473 0.856445 27.6605 1.3049 26.1706 2.15738C25.0934 2.78392 23.87 3.11507 22.6239 3.11738C20.9088 3.11758 19.2238 3.56851 17.7379 4.42498C16.2519 5.28145 15.0171 6.5134 14.1572 7.99738C13.52 9.10663 12.5998 10.0268 11.4906 10.664C10.0282 11.5238 8.81439 12.7488 7.96822 14.2191C7.12205 15.6894 6.67259 17.3544 6.66391 19.0507C6.66971 20.2944 6.3478 21.5177 5.73058 22.5974C4.87809 24.0873 4.42964 25.7741 4.42964 27.4907C4.42964 29.2073 4.87809 30.8941 5.73058 32.384C6.35711 33.4612 6.68827 34.6846 6.69058 35.9307C6.69474 38.2473 7.52168 40.4872 9.02391 42.2507L0.783909 50.4507C0.628993 50.6054 0.514535 50.7958 0.450641 51.0051C0.386748 51.2145 0.375384 51.4364 0.417553 51.6512C0.459722 51.866 0.554126 52.0671 0.692432 52.2368C0.830737 52.4064 1.00869 52.5394 1.21058 52.624L7.31724 55.2907L9.98391 61.3974C10.0685 61.5993 10.2015 61.7772 10.3712 61.9155C10.5409 62.0538 10.742 62.1482 10.9568 62.1904C11.1716 62.2326 11.3934 62.2212 11.6028 62.1573C11.8122 62.0934 12.0026 61.979 12.1572 61.824L22.0639 51.904H22.6772C26.1439 51.904 26.7839 54.1707 31.1172 54.1707C35.4506 54.1707 36.0506 51.904 39.5572 51.904H40.1706L50.0772 61.824C50.2319 61.979 50.4223 62.0934 50.6317 62.1573C50.841 62.2212 51.0629 62.2326 51.2777 62.1904C51.4925 62.1482 51.6936 62.0538 51.8633 61.9155C52.033 61.7772 52.166 61.5993 52.2506 61.3974L54.9172 55.2907L61.0239 52.624C61.218 52.5287 61.3859 52.3877 61.5133 52.213C61.6407 52.0384 61.7237 51.8354 61.7552 51.6215C61.7867 51.4076 61.7657 51.1893 61.6941 50.9853C61.6224 50.7814 61.5022 50.5979 61.3439 50.4507ZM11.6106 58.4507C9.43724 53.3707 9.51724 53.2374 8.85058 52.9574L4.06391 50.944L10.9839 44.0241C12.2886 44.7195 13.3841 45.7505 14.1572 47.0107C15.2474 48.8848 16.9251 50.347 18.9306 51.1707L11.6106 58.4507ZM34.6239 50.4507C33.5407 51.073 32.3132 51.4005 31.0639 51.4005C29.8146 51.4005 28.5872 51.073 27.5039 50.4507C26.0242 49.5816 24.34 49.1214 22.6239 49.1174C21.3767 49.1163 20.1516 48.7883 19.0707 48.166C17.9898 47.5436 17.091 46.6488 16.4639 45.5707C15.5821 44.1432 14.3467 42.9675 12.8772 42.1574C11.7893 41.5246 10.8882 40.6153 10.2653 39.5217C9.64239 38.4281 9.31991 37.1892 9.33058 35.9307C9.32656 34.2146 8.8664 32.5304 7.99724 31.0507C7.37493 29.9675 7.04745 28.74 7.04745 27.4907C7.04745 26.2414 7.37493 25.014 7.99724 23.9307C8.8664 22.451 9.32656 20.7668 9.33058 19.0507C9.33164 17.8035 9.65968 16.5784 10.282 15.4975C10.9043 14.4166 11.7991 13.5178 12.8772 12.8907C14.3684 12.0327 15.6059 10.7952 16.4639 9.30405C17.091 8.22596 17.9898 7.33112 19.0707 6.70881C20.1516 6.08649 21.3767 5.75844 22.6239 5.75738C24.34 5.75337 26.0242 5.29321 27.5039 4.42405C28.588 3.80431 29.8152 3.47833 31.0639 3.47833C32.3127 3.47833 33.5398 3.80431 34.6239 4.42405C36.1036 5.29321 37.7878 5.75337 39.5039 5.75738C40.7624 5.74672 42.0013 6.0692 43.0949 6.6921C44.1885 7.315 45.0978 8.21614 45.7306 9.30405C46.5886 10.7952 47.8261 12.0327 49.3172 12.8907C50.3953 13.5178 51.2902 14.4166 51.9125 15.4975C52.5348 16.5784 52.8629 17.8035 52.8639 19.0507C52.8679 20.7668 53.3281 22.451 54.1972 23.9307C54.8196 25.014 55.147 26.2414 55.147 27.4907C55.147 28.74 54.8196 29.9675 54.1972 31.0507C53.3281 32.5304 52.8679 34.2146 52.8639 35.9307C52.8679 37.1958 52.5353 38.4391 51.9004 39.5333C51.2654 40.6275 50.3509 41.5331 49.2506 42.1574C47.7923 43.0062 46.5794 44.2191 45.7306 45.6774C45.1035 46.7555 44.2047 47.6503 43.1238 48.2726C42.0429 48.8949 40.8178 49.223 39.5706 49.224C37.8331 49.2121 36.1245 49.6681 34.6239 50.544V50.4507ZM53.2906 52.904C52.6372 53.1841 52.7572 53.1974 50.5306 58.3974L43.1972 51.1707C45.2027 50.347 46.8805 48.8848 47.9706 47.0107C48.7457 45.7521 49.8407 44.7216 51.1439 44.0241L58.0639 50.944L53.2906 52.904Z" fill="#CECECE"/>
<path d="M23.0639 18.2907L23.9439 19.8774L25.7305 20.224L24.4905 21.5574L24.7172 23.3574L23.0639 22.5974L21.4106 23.3574L21.6372 21.5574L20.3972 20.224L22.1839 19.8774L23.0639 18.2907ZM39.0639 18.2907L38.1839 19.8774L36.3972 20.224L37.6372 21.5574L37.4105 23.3574L39.0639 22.5974L40.7172 23.3574L40.4905 21.5574L41.7305 20.224L39.9439 19.8774L39.0639 18.2907ZM31.0639 14.2907L31.9439 15.8774L33.7305 16.224L32.4905 17.5574L32.7172 19.3574L31.0639 18.5974L29.4106 19.3574L29.6372 17.5574L28.3972 16.224L30.1839 15.8774L31.0639 14.2907Z" fill="#FF6600"/>
<path d="M24.3972 39.4907H25.7306L27.8372 40.5441C28.2058 40.7278 28.612 40.8236 29.0239 40.8241H36.7439C37.391 40.8304 38.0183 40.6013 38.5089 40.1794C38.9995 39.7574 39.32 39.1715 39.4106 38.5307C40.4772 31.0774 40.4239 31.5841 40.4239 31.3174C40.4239 30.9877 40.3585 30.6613 40.2316 30.357C40.1046 30.0528 39.9186 29.7767 39.6842 29.5449C39.4498 29.313 39.1718 29.1299 38.8662 29.0062C38.5606 28.8824 38.2335 28.8205 37.9039 28.8241H32.3972L33.1305 25.1307C33.6639 22.4641 30.0639 21.1307 29.4239 23.0641C28.1972 26.7707 28.8906 25.6641 25.7306 28.8241H24.3972V39.4907Z" fill="#FF6600"/>
<path d="M20.3972 27.4907H23.0639C23.4175 27.4907 23.7566 27.6312 24.0067 27.8812C24.2567 28.1313 24.3972 28.4704 24.3972 28.8241V39.4907C24.3972 39.8443 24.2567 40.1835 24.0067 40.4335C23.7566 40.6836 23.4175 40.8241 23.0639 40.8241H20.3972V27.4907Z" fill="#EFEFEF"/>
</svg>
