<svg width="29" height="29" viewBox="0 0 29 29" fill="none" xmlns="http://www.w3.org/2000/svg">
<path d="M12.8667 16.7465L10.3292 14.209C10.1153 13.9951 9.85278 13.8882 9.54167 13.8882C9.23056 13.8882 8.95833 14.0049 8.725 14.2382C8.51111 14.4521 8.40417 14.7243 8.40417 15.0549C8.40417 15.3854 8.51111 15.6576 8.725 15.8715L12.05 19.1965C12.2639 19.4104 12.5361 19.5174 12.8667 19.5174C13.1972 19.5174 13.4694 19.4104 13.6833 19.1965L20.3042 12.5757C20.5181 12.3618 20.625 12.0993 20.625 11.7882C20.625 11.4771 20.5083 11.2049 20.275 10.9715C20.0611 10.7576 19.7889 10.6507 19.4583 10.6507C19.1278 10.6507 18.8556 10.7576 18.6417 10.9715L12.8667 16.7465ZM14.5 26.3132C12.8861 26.3132 11.3694 26.0067 9.95 25.3939C8.53056 24.7817 7.29583 23.9507 6.24583 22.9007C5.19583 21.8507 4.36478 20.616 3.75267 19.1965C3.13978 17.7771 2.83333 16.2604 2.83333 14.6465C2.83333 13.0326 3.13978 11.516 3.75267 10.0965C4.36478 8.67708 5.19583 7.44236 6.24583 6.39236C7.29583 5.34236 8.53056 4.51091 9.95 3.89802C11.3694 3.28591 12.8861 2.97986 14.5 2.97986C16.1139 2.97986 17.6306 3.28591 19.05 3.89802C20.4694 4.51091 21.7042 5.34236 22.7542 6.39236C23.8042 7.44236 24.6352 8.67708 25.2473 10.0965C25.8602 11.516 26.1667 13.0326 26.1667 14.6465C26.1667 16.2604 25.8602 17.7771 25.2473 19.1965C24.6352 20.616 23.8042 21.8507 22.7542 22.9007C21.7042 23.9507 20.4694 24.7817 19.05 25.3939C17.6306 26.0067 16.1139 26.3132 14.5 26.3132Z" fill="#FF6600"/>
</svg>
