<svg width="35" height="34" viewBox="0 0 35 34" fill="none" xmlns="http://www.w3.org/2000/svg">
<rect x="1.00333" y="1.01517" width="32.6418" height="32.4346" rx="16.2173" fill="white" fill-opacity="0.05" stroke="white" stroke-width="0.720769"/>
<path d="M25.7687 12.1426C25.1631 12.4093 24.5126 12.5895 23.8286 12.6709C24.5343 12.2513 25.0623 11.5908 25.314 10.8128C24.651 11.2041 23.9253 11.4796 23.1686 11.6272C22.6598 11.0873 21.9858 10.7294 21.2512 10.6091C20.5167 10.4889 19.7628 10.613 19.1065 10.9622C18.4503 11.3113 17.9284 11.8661 17.6218 12.5402C17.3153 13.2144 17.2414 13.9703 17.4114 14.6905C16.068 14.6235 14.7537 14.2765 13.554 13.672C12.3542 13.0675 11.2958 12.2191 10.4473 11.1818C10.1572 11.6791 9.9904 12.2558 9.9904 12.8698C9.99007 13.4227 10.1271 13.967 10.3892 14.4546C10.6514 14.9422 11.0306 15.358 11.4932 15.665C10.9567 15.648 10.432 15.504 9.96283 15.2448V15.288C9.96278 16.0634 10.2327 16.8149 10.7267 17.415C11.2207 18.0151 11.9084 18.4269 12.6732 18.5805C12.1755 18.7144 11.6537 18.7341 11.1472 18.6382C11.363 19.3053 11.7833 19.8887 12.3493 20.3067C12.9152 20.7247 13.5986 20.9563 14.3036 20.9691C13.1068 21.9028 11.6287 22.4093 10.1072 22.4071C9.83764 22.4071 9.56834 22.3915 9.30066 22.3602C10.8451 23.3471 12.643 23.8708 14.4791 23.8688C20.6947 23.8688 24.0926 18.7528 24.0926 14.3157C24.0926 14.1716 24.089 14.026 24.0825 13.8818C24.7434 13.4068 25.3139 12.8186 25.7673 12.1448L25.7687 12.1426Z" fill="white"/>
</svg>
